<?xml version="1.0" encoding="UTF-8" standalone="no"?>
<!DOCTYPE svg PUBLIC "-//W3C//DTD SVG 1.1//EN"
 "http://www.w3.org/Graphics/SVG/1.1/DTD/svg11.dtd">
<!-- Generated by graphviz version 2.38.0 (20140413.2041)
 -->
<!-- Title: G Pages: 1 -->
<svg width="164pt" height="260pt"
 viewBox="0.00 0.00 163.89 260.00" xmlns="http://www.w3.org/2000/svg" xmlns:xlink="http://www.w3.org/1999/xlink">
<g id="graph0" class="graph" transform="scale(1 1) rotate(0) translate(4 256)">
<title>G</title>
<polygon fill="white" stroke="none" points="-4,4 -4,-256 159.894,-256 159.894,4 -4,4"/>
<!-- Node0 -->
<g id="node1" class="node"><title>Node0</title>
<g id="a_node1"><a xlink:title="0x1e0 to 0x1f8">
<ellipse fill="none" stroke="black" cx="77.4469" cy="-234" rx="34.394" ry="18"/>
<text text-anchor="middle" x="77.4469" y="-230.3" font-family="Times,serif" font-size="14.00">Node0</text>
</a>
</g>
</g>
<!-- Node1 -->
<g id="node2" class="node"><title>Node1</title>
<g id="a_node2"><a xlink:title="0x210 to 0x223">
<ellipse fill="none" stroke="black" cx="46.4469" cy="-162" rx="34.394" ry="18"/>
<text text-anchor="middle" x="46.4469" y="-158.3" font-family="Times,serif" font-size="14.00">Node1</text>
</a>
</g>
</g>
<!-- Node0&#45;&gt;Node1 -->
<g id="edge1" class="edge"><title>Node0&#45;&gt;Node1</title>
<path fill="none" stroke="black" d="M70.1004,-216.411C66.5239,-208.335 62.1379,-198.431 58.1183,-189.355"/>
<polygon fill="black" stroke="black" points="61.2057,-187.682 53.9561,-179.956 54.8052,-190.517 61.2057,-187.682"/>
</g>
<!-- Node2 -->
<g id="node3" class="node"><title>Node2</title>
<g id="a_node3"><a xlink:title="0x1fa to 0x205">
<ellipse fill="none" stroke="black" cx="77.4469" cy="-90" rx="34.394" ry="18"/>
<text text-anchor="middle" x="77.4469" y="-86.3" font-family="Times,serif" font-size="14.00">Node2</text>
</a>
</g>
</g>
<!-- Node0&#45;&gt;Node2 -->
<g id="edge2" class="edge"><title>Node0&#45;&gt;Node2</title>
<path fill="none" stroke="black" d="M82.3161,-215.979C85.0111,-205.665 88.0843,-192.189 89.4469,-180 91.2246,-164.099 91.2246,-159.901 89.4469,-144 88.4889,-135.43 86.6851,-126.223 84.7617,-117.926"/>
<polygon fill="black" stroke="black" points="88.1111,-116.89 82.3161,-108.021 81.3152,-118.568 88.1111,-116.89"/>
</g>
<!-- Node1&#45;&gt;Node2 -->
<g id="edge3" class="edge"><title>Node1&#45;&gt;Node2</title>
<path fill="none" stroke="black" d="M53.7935,-144.411C57.3699,-136.335 61.756,-126.431 65.7756,-117.355"/>
<polygon fill="black" stroke="black" points="69.0887,-118.517 69.9378,-107.956 62.6882,-115.682 69.0887,-118.517"/>
</g>
<!-- Node3 -->
<g id="node4" class="node"><title>Node3</title>
<g id="a_node4"><a xlink:title="0x20e to 0x20e">
<ellipse fill="none" stroke="black" cx="34.4469" cy="-18" rx="34.394" ry="18"/>
<text text-anchor="middle" x="34.4469" y="-14.3" font-family="Times,serif" font-size="14.00">Node3</text>
</a>
</g>
</g>
<!-- Node2&#45;&gt;Node3 -->
<g id="edge4" class="edge"><title>Node2&#45;&gt;Node3</title>
<path fill="none" stroke="black" d="M67.4738,-72.7646C62.2847,-64.3172 55.8237,-53.7993 49.9959,-44.3122"/>
<polygon fill="black" stroke="black" points="52.8811,-42.3222 44.6646,-35.6334 46.9166,-45.9862 52.8811,-42.3222"/>
</g>
<!-- Node4 -->
<g id="node5" class="node"><title>Node4</title>
<g id="a_node5"><a xlink:title="0x207 to 0x20e">
<ellipse fill="none" stroke="black" cx="121.447" cy="-18" rx="34.394" ry="18"/>
<text text-anchor="middle" x="121.447" y="-14.3" font-family="Times,serif" font-size="14.00">Node4</text>
</a>
</g>
</g>
<!-- Node2&#45;&gt;Node4 -->
<g id="edge5" class="edge"><title>Node2&#45;&gt;Node4</title>
<path fill="none" stroke="black" d="M87.652,-72.7646C92.9618,-64.3172 99.5731,-53.7993 105.536,-44.3122"/>
<polygon fill="black" stroke="black" points="108.633,-45.9624 110.992,-35.6334 102.707,-42.2372 108.633,-45.9624"/>
</g>
</g>
</svg>
