<?xml version="1.0" encoding="UTF-8" standalone="no"?>
<!DOCTYPE svg PUBLIC "-//W3C//DTD SVG 1.1//EN"
 "http://www.w3.org/Graphics/SVG/1.1/DTD/svg11.dtd">
<!-- Generated by graphviz version 2.38.0 (20140413.2041)
 -->
<!-- Title: G Pages: 1 -->
<svg width="403pt" height="404pt"
 viewBox="0.00 0.00 402.86 404.00" xmlns="http://www.w3.org/2000/svg" xmlns:xlink="http://www.w3.org/1999/xlink">
<g id="graph0" class="graph" transform="scale(1 1) rotate(0) translate(4 400)">
<title>G</title>
<polygon fill="white" stroke="none" points="-4,4 -4,-400 398.862,-400 398.862,4 -4,4"/>
<!-- Node0 -->
<g id="node1" class="node"><title>Node0</title>
<g id="a_node1"><a xlink:title="0x0 to 0x55">
<ellipse fill="none" stroke="black" cx="299.347" cy="-378" rx="34.394" ry="18"/>
<text text-anchor="middle" x="299.347" y="-374.3" font-family="Times,serif" font-size="14.00">Node0</text>
</a>
</g>
</g>
<!-- Node1 -->
<g id="node2" class="node"><title>Node1</title>
<g id="a_node2"><a xlink:title="0x5b to 0x6e">
<ellipse fill="none" stroke="black" cx="238.347" cy="-306" rx="34.394" ry="18"/>
<text text-anchor="middle" x="238.347" y="-302.3" font-family="Times,serif" font-size="14.00">Node1</text>
</a>
</g>
</g>
<!-- Node0&#45;&gt;Node1 -->
<g id="edge1" class="edge"><title>Node0&#45;&gt;Node1</title>
<path fill="none" stroke="black" d="M285.505,-361.116C277.628,-352.076 267.612,-340.583 258.839,-330.515"/>
<polygon fill="black" stroke="black" points="261.342,-328.061 252.134,-322.821 256.065,-332.66 261.342,-328.061"/>
</g>
<!-- Node2 -->
<g id="node3" class="node"><title>Node2</title>
<g id="a_node3"><a xlink:title="0x74 to 0x76">
<ellipse fill="none" stroke="black" cx="360.347" cy="-306" rx="34.394" ry="18"/>
<text text-anchor="middle" x="360.347" y="-302.3" font-family="Times,serif" font-size="14.00">Node2</text>
</a>
</g>
</g>
<!-- Node0&#45;&gt;Node2 -->
<g id="edge2" class="edge"><title>Node0&#45;&gt;Node2</title>
<path fill="none" stroke="black" d="M313.188,-361.116C321.066,-352.076 331.081,-340.583 339.855,-330.515"/>
<polygon fill="black" stroke="black" points="342.628,-332.66 346.56,-322.821 337.351,-328.061 342.628,-332.66"/>
</g>
<!-- Node3 -->
<g id="node4" class="node"><title>Node3</title>
<g id="a_node4"><a xlink:title="0xc1 to 0xd8">
<ellipse fill="none" stroke="black" cx="143.347" cy="-234" rx="34.394" ry="18"/>
<text text-anchor="middle" x="143.347" y="-230.3" font-family="Times,serif" font-size="14.00">Node3</text>
</a>
</g>
</g>
<!-- Node1&#45;&gt;Node3 -->
<g id="edge3" class="edge"><title>Node1&#45;&gt;Node3</title>
<path fill="none" stroke="black" d="M219.122,-290.834C205.215,-280.587 186.224,-266.594 170.734,-255.18"/>
<polygon fill="black" stroke="black" points="172.669,-252.259 162.543,-249.144 168.517,-257.894 172.669,-252.259"/>
</g>
<!-- Node4 -->
<g id="node5" class="node"><title>Node4</title>
<g id="a_node5"><a xlink:title="0x140 to 0x156">
<ellipse fill="none" stroke="black" cx="238.347" cy="-234" rx="34.394" ry="18"/>
<text text-anchor="middle" x="238.347" y="-230.3" font-family="Times,serif" font-size="14.00">Node4</text>
</a>
</g>
</g>
<!-- Node1&#45;&gt;Node4 -->
<g id="edge4" class="edge"><title>Node1&#45;&gt;Node4</title>
<path fill="none" stroke="black" d="M238.347,-287.697C238.347,-279.983 238.347,-270.712 238.347,-262.112"/>
<polygon fill="black" stroke="black" points="241.847,-262.104 238.347,-252.104 234.847,-262.104 241.847,-262.104"/>
</g>
<!-- Node5 -->
<g id="node6" class="node"><title>Node5</title>
<g id="a_node6"><a xlink:title="0x158 to 0x162">
<ellipse fill="none" stroke="black" cx="213.347" cy="-18" rx="34.394" ry="18"/>
<text text-anchor="middle" x="213.347" y="-14.3" font-family="Times,serif" font-size="14.00">Node5</text>
</a>
</g>
</g>
<!-- Node2&#45;&gt;Node5 -->
<g id="edge5" class="edge"><title>Node2&#45;&gt;Node5</title>
<path fill="none" stroke="black" d="M367.379,-288.37C383.564,-247.216 418.514,-139.098 370.347,-72 344.968,-36.6465 294.759,-24.5683 257.929,-20.6027"/>
<polygon fill="black" stroke="black" points="258.204,-17.1135 247.927,-19.6868 257.566,-24.0843 258.204,-17.1135"/>
</g>
<!-- Node6 -->
<g id="node7" class="node"><title>Node6</title>
<g id="a_node7"><a xlink:title="0xda to 0xdd">
<ellipse fill="none" stroke="black" cx="44.3466" cy="-162" rx="34.394" ry="18"/>
<text text-anchor="middle" x="44.3466" y="-158.3" font-family="Times,serif" font-size="14.00">Node6</text>
</a>
</g>
</g>
<!-- Node3&#45;&gt;Node6 -->
<g id="edge6" class="edge"><title>Node3&#45;&gt;Node6</title>
<path fill="none" stroke="black" d="M123.787,-219.17C109.104,-208.788 88.7893,-194.424 72.3791,-182.821"/>
<polygon fill="black" stroke="black" points="74.3898,-179.956 64.204,-177.041 70.3485,-185.672 74.3898,-179.956"/>
</g>
<!-- Node9 -->
<g id="node8" class="node"><title>Node9</title>
<g id="a_node8"><a xlink:title="0x80 to 0xae">
<ellipse fill="none" stroke="black" cx="143.347" cy="-162" rx="34.394" ry="18"/>
<text text-anchor="middle" x="143.347" y="-158.3" font-family="Times,serif" font-size="14.00">Node9</text>
</a>
</g>
</g>
<!-- Node3&#45;&gt;Node9 -->
<g id="edge7" class="edge"><title>Node3&#45;&gt;Node9</title>
<path fill="none" stroke="black" d="M143.347,-215.697C143.347,-207.983 143.347,-198.712 143.347,-190.112"/>
<polygon fill="black" stroke="black" points="146.847,-190.104 143.347,-180.104 139.847,-190.104 146.847,-190.104"/>
</g>
<!-- Node7 -->
<g id="node9" class="node"><title>Node7</title>
<g id="a_node9"><a xlink:title="0xe3 to 0xfa">
<ellipse fill="none" stroke="black" cx="234.347" cy="-162" rx="34.394" ry="18"/>
<text text-anchor="middle" x="234.347" y="-158.3" font-family="Times,serif" font-size="14.00">Node7</text>
</a>
</g>
</g>
<!-- Node4&#45;&gt;Node7 -->
<g id="edge8" class="edge"><title>Node4&#45;&gt;Node7</title>
<path fill="none" stroke="black" d="M237.358,-215.697C236.917,-207.983 236.387,-198.712 235.896,-190.112"/>
<polygon fill="black" stroke="black" points="239.389,-189.888 235.324,-180.104 232.4,-190.288 239.389,-189.888"/>
</g>
<!-- Node8 -->
<g id="node10" class="node"><title>Node8</title>
<g id="a_node10"><a xlink:title="0x100 to 0x117">
<ellipse fill="none" stroke="black" cx="321.347" cy="-162" rx="34.394" ry="18"/>
<text text-anchor="middle" x="321.347" y="-158.3" font-family="Times,serif" font-size="14.00">Node8</text>
</a>
</g>
</g>
<!-- Node4&#45;&gt;Node8 -->
<g id="edge9" class="edge"><title>Node4&#45;&gt;Node8</title>
<path fill="none" stroke="black" d="M255.949,-218.155C267.692,-208.251 283.308,-195.081 296.335,-184.094"/>
<polygon fill="black" stroke="black" points="298.667,-186.706 304.054,-177.584 294.154,-181.355 298.667,-186.706"/>
</g>
<!-- Node10 -->
<g id="node11" class="node"><title>Node10</title>
<g id="a_node11"><a xlink:title="0xb4 to 0xbf">
<ellipse fill="none" stroke="black" cx="38.3466" cy="-90" rx="38.1938" ry="18"/>
<text text-anchor="middle" x="38.3466" y="-86.3" font-family="Times,serif" font-size="14.00">Node10</text>
</a>
</g>
</g>
<!-- Node6&#45;&gt;Node10 -->
<g id="edge10" class="edge"><title>Node6&#45;&gt;Node10</title>
<path fill="none" stroke="black" d="M37.0159,-144.055C35.537,-136.346 34.496,-127.027 34.087,-118.364"/>
<polygon fill="black" stroke="black" points="37.585,-118.214 33.9145,-108.275 30.586,-118.334 37.585,-118.214"/>
</g>
<!-- Node11 -->
<g id="node12" class="node"><title>Node11</title>
<g id="a_node12"><a xlink:title="0x11d to 0x128">
<ellipse fill="none" stroke="black" cx="133.347" cy="-90" rx="38.1938" ry="18"/>
<text text-anchor="middle" x="133.347" y="-86.3" font-family="Times,serif" font-size="14.00">Node11</text>
</a>
</g>
</g>
<!-- Node6&#45;&gt;Node11 -->
<g id="edge11" class="edge"><title>Node6&#45;&gt;Node11</title>
<path fill="none" stroke="black" d="M62.7875,-146.496C75.4709,-136.52 92.5153,-123.115 106.675,-111.978"/>
<polygon fill="black" stroke="black" points="108.927,-114.659 114.623,-105.726 104.599,-109.157 108.927,-114.659"/>
</g>
<!-- Node12 -->
<g id="node13" class="node"><title>Node12</title>
<g id="a_node13"><a xlink:title="0x12e to 0x139">
<ellipse fill="none" stroke="black" cx="228.347" cy="-90" rx="38.1938" ry="18"/>
<text text-anchor="middle" x="228.347" y="-86.3" font-family="Times,serif" font-size="14.00">Node12</text>
</a>
</g>
</g>
<!-- Node7&#45;&gt;Node12 -->
<g id="edge12" class="edge"><title>Node7&#45;&gt;Node12</title>
<path fill="none" stroke="black" d="M232.863,-143.697C232.202,-135.983 231.408,-126.712 230.671,-118.112"/>
<polygon fill="black" stroke="black" points="234.154,-117.769 229.813,-108.104 227.18,-118.367 234.154,-117.769"/>
</g>
<!-- Node13 -->
<g id="node14" class="node"><title>Node13</title>
<g id="a_node14"><a xlink:title="0x13b to 0x13b">
<ellipse fill="none" stroke="black" cx="323.347" cy="-90" rx="38.1938" ry="18"/>
<text text-anchor="middle" x="323.347" y="-86.3" font-family="Times,serif" font-size="14.00">Node13</text>
</a>
</g>
</g>
<!-- Node7&#45;&gt;Node13 -->
<g id="edge13" class="edge"><title>Node7&#45;&gt;Node13</title>
<path fill="none" stroke="black" d="M252.787,-146.496C265.471,-136.52 282.515,-123.115 296.675,-111.978"/>
<polygon fill="black" stroke="black" points="298.927,-114.659 304.623,-105.726 294.599,-109.157 298.927,-114.659"/>
</g>
<!-- Node10&#45;&gt;Node5 -->
<g id="edge14" class="edge"><title>Node10&#45;&gt;Node5</title>
<path fill="none" stroke="black" d="M66.4634,-77.7533C96.4965,-65.74 144.202,-46.6578 177.052,-33.5179"/>
<polygon fill="black" stroke="black" points="178.749,-36.6088 186.734,-29.6452 176.149,-30.1095 178.749,-36.6088"/>
</g>
<!-- Node10&#45;&gt;Node6 -->
<g id="edge15" class="edge"><title>Node10&#45;&gt;Node6</title>
<path fill="none" stroke="black" d="M45.6472,-107.789C47.1542,-115.591 48.2115,-125.067 48.6161,-133.848"/>
<polygon fill="black" stroke="black" points="45.1196,-134.11 48.7724,-144.055 52.1188,-134.003 45.1196,-134.11"/>
</g>
</g>
</svg>
