<?xml version="1.0" encoding="UTF-8" standalone="no"?>
<!DOCTYPE svg PUBLIC "-//W3C//DTD SVG 1.1//EN"
 "http://www.w3.org/Graphics/SVG/1.1/DTD/svg11.dtd">
<!-- Generated by graphviz version 2.38.0 (20140413.2041)
 -->
<!-- Title: G Pages: 1 -->
<svg width="223pt" height="332pt"
 viewBox="0.00 0.00 222.89 332.00" xmlns="http://www.w3.org/2000/svg" xmlns:xlink="http://www.w3.org/1999/xlink">
<g id="graph0" class="graph" transform="scale(1 1) rotate(0) translate(4 328)">
<title>G</title>
<polygon fill="white" stroke="none" points="-4,4 -4,-328 218.894,-328 218.894,4 -4,4"/>
<!-- Node0 -->
<g id="node1" class="node"><title>Node0</title>
<g id="a_node1"><a xlink:title="0x400720 to 0x40072f">
<ellipse fill="none" stroke="black" cx="77.4469" cy="-306" rx="34.394" ry="18"/>
<text text-anchor="middle" x="77.4469" y="-302.3" font-family="Times,serif" font-size="14.00">Node0</text>
</a>
</g>
</g>
<!-- Node1 -->
<g id="node2" class="node"><title>Node1</title>
<g id="a_node2"><a xlink:title="0x400772 to 0x400772">
<ellipse fill="none" stroke="black" cx="34.4469" cy="-234" rx="34.394" ry="18"/>
<text text-anchor="middle" x="34.4469" y="-230.3" font-family="Times,serif" font-size="14.00">Node1</text>
</a>
</g>
</g>
<!-- Node0&#45;&gt;Node1 -->
<g id="edge1" class="edge"><title>Node0&#45;&gt;Node1</title>
<path fill="none" stroke="black" d="M67.4738,-288.765C62.2847,-280.317 55.8237,-269.799 49.9959,-260.312"/>
<polygon fill="black" stroke="black" points="52.8811,-258.322 44.6646,-251.633 46.9166,-261.986 52.8811,-258.322"/>
</g>
<!-- Node2 -->
<g id="node3" class="node"><title>Node2</title>
<g id="a_node3"><a xlink:title="0x400731 to 0x400744">
<ellipse fill="none" stroke="black" cx="121.447" cy="-234" rx="34.394" ry="18"/>
<text text-anchor="middle" x="121.447" y="-230.3" font-family="Times,serif" font-size="14.00">Node2</text>
</a>
</g>
</g>
<!-- Node0&#45;&gt;Node2 -->
<g id="edge2" class="edge"><title>Node0&#45;&gt;Node2</title>
<path fill="none" stroke="black" d="M87.652,-288.765C92.9618,-280.317 99.5731,-269.799 105.536,-260.312"/>
<polygon fill="black" stroke="black" points="108.633,-261.962 110.992,-251.633 102.707,-258.237 108.633,-261.962"/>
</g>
<!-- Node3 -->
<g id="node4" class="node"><title>Node3</title>
<g id="a_node4"><a xlink:title="0x40075b to 0x400760">
<ellipse fill="none" stroke="black" cx="62.4469" cy="-162" rx="34.394" ry="18"/>
<text text-anchor="middle" x="62.4469" y="-158.3" font-family="Times,serif" font-size="14.00">Node3</text>
</a>
</g>
</g>
<!-- Node2&#45;&gt;Node3 -->
<g id="edge3" class="edge"><title>Node2&#45;&gt;Node3</title>
<path fill="none" stroke="black" d="M108.059,-217.116C100.44,-208.076 90.7527,-196.583 82.2671,-186.515"/>
<polygon fill="black" stroke="black" points="84.9029,-184.212 75.782,-178.821 79.5505,-188.723 84.9029,-184.212"/>
</g>
<!-- Node7 -->
<g id="node5" class="node"><title>Node7</title>
<g id="a_node5"><a xlink:title="0x400746 to 0x400746">
<ellipse fill="none" stroke="black" cx="180.447" cy="-162" rx="34.394" ry="18"/>
<text text-anchor="middle" x="180.447" y="-158.3" font-family="Times,serif" font-size="14.00">Node7</text>
</a>
</g>
</g>
<!-- Node2&#45;&gt;Node7 -->
<g id="edge4" class="edge"><title>Node2&#45;&gt;Node7</title>
<path fill="none" stroke="black" d="M134.835,-217.116C142.454,-208.076 152.141,-196.583 160.627,-186.515"/>
<polygon fill="black" stroke="black" points="163.343,-188.723 167.112,-178.821 157.991,-184.212 163.343,-188.723"/>
</g>
<!-- Node4 -->
<g id="node6" class="node"><title>Node4</title>
<g id="a_node6"><a xlink:title="0x400750 to 0x400759">
<ellipse fill="none" stroke="black" cx="47.4469" cy="-90" rx="34.394" ry="18"/>
<text text-anchor="middle" x="47.4469" y="-86.3" font-family="Times,serif" font-size="14.00">Node4</text>
</a>
</g>
</g>
<!-- Node3&#45;&gt;Node4 -->
<g id="edge5" class="edge"><title>Node3&#45;&gt;Node4</title>
<path fill="none" stroke="black" d="M53.0522,-144.411C50.5609,-136.708 48.2956,-127.341 46.7501,-118.616"/>
<polygon fill="black" stroke="black" points="50.1724,-117.831 45.2551,-108.447 43.2468,-118.85 50.1724,-117.831"/>
</g>
<!-- Node6 -->
<g id="node7" class="node"><title>Node6</title>
<g id="a_node7"><a xlink:title="0x400762 to 0x400767">
<ellipse fill="none" stroke="black" cx="134.447" cy="-90" rx="34.394" ry="18"/>
<text text-anchor="middle" x="134.447" y="-86.3" font-family="Times,serif" font-size="14.00">Node6</text>
</a>
</g>
</g>
<!-- Node3&#45;&gt;Node6 -->
<g id="edge6" class="edge"><title>Node3&#45;&gt;Node6</title>
<path fill="none" stroke="black" d="M78.0699,-145.811C87.8823,-136.271 100.706,-123.803 111.644,-113.17"/>
<polygon fill="black" stroke="black" points="114.124,-115.64 118.855,-106.159 109.245,-110.621 114.124,-115.64"/>
</g>
<!-- Node5 -->
<g id="node8" class="node"><title>Node5</title>
<g id="a_node8"><a xlink:title="0x400770 to 0x400772">
<ellipse fill="none" stroke="black" cx="121.447" cy="-18" rx="34.394" ry="18"/>
<text text-anchor="middle" x="121.447" y="-14.3" font-family="Times,serif" font-size="14.00">Node5</text>
</a>
</g>
</g>
<!-- Node7&#45;&gt;Node5 -->
<g id="edge9" class="edge"><title>Node7&#45;&gt;Node5</title>
<path fill="none" stroke="black" d="M183.598,-143.735C186.164,-125.141 187.862,-95.1168 177.447,-72 171.575,-58.9678 160.859,-47.5863 150.361,-38.7458"/>
<polygon fill="black" stroke="black" points="152.474,-35.9544 142.459,-32.4954 148.131,-41.4445 152.474,-35.9544"/>
</g>
<!-- Node4&#45;&gt;Node3 -->
<g id="edge7" class="edge"><title>Node4&#45;&gt;Node3</title>
<path fill="none" stroke="black" d="M56.8524,-107.622C59.3788,-115.441 61.672,-124.967 63.2165,-133.796"/>
<polygon fill="black" stroke="black" points="59.7534,-134.304 64.6548,-143.697 66.6806,-133.297 59.7534,-134.304"/>
</g>
<!-- Node4&#45;&gt;Node5 -->
<g id="edge8" class="edge"><title>Node4&#45;&gt;Node5</title>
<path fill="none" stroke="black" d="M63.5038,-73.811C73.5888,-64.2712 86.769,-51.8035 98.0104,-41.1697"/>
<polygon fill="black" stroke="black" points="100.562,-43.574 105.421,-34.1593 95.7515,-38.4887 100.562,-43.574"/>
</g>
</g>
</svg>
