<?xml version="1.0" encoding="UTF-8" standalone="no"?>
<!DOCTYPE svg PUBLIC "-//W3C//DTD SVG 1.1//EN"
 "http://www.w3.org/Graphics/SVG/1.1/DTD/svg11.dtd">
<!-- Generated by graphviz version 2.38.0 (20140413.2041)
 -->
<!-- Title: G Pages: 1 -->
<svg width="207pt" height="188pt"
 viewBox="0.00 0.00 206.89 188.00" xmlns="http://www.w3.org/2000/svg" xmlns:xlink="http://www.w3.org/1999/xlink">
<g id="graph0" class="graph" transform="scale(1 1) rotate(0) translate(4 184)">
<title>G</title>
<polygon fill="white" stroke="none" points="-4,4 -4,-184 202.894,-184 202.894,4 -4,4"/>
<!-- Node0 -->
<g id="node1" class="node"><title>Node0</title>
<g id="a_node1"><a xlink:title="0x400930 to 0x400943">
<ellipse fill="none" stroke="black" cx="77.4469" cy="-162" rx="34.394" ry="18"/>
<text text-anchor="middle" x="77.4469" y="-158.3" font-family="Times,serif" font-size="14.00">Node0</text>
</a>
</g>
</g>
<!-- Node1 -->
<g id="node2" class="node"><title>Node1</title>
<g id="a_node2"><a xlink:title="0x40099d to 0x40099d">
<ellipse fill="none" stroke="black" cx="34.4469" cy="-90" rx="34.394" ry="18"/>
<text text-anchor="middle" x="34.4469" y="-86.3" font-family="Times,serif" font-size="14.00">Node1</text>
</a>
</g>
</g>
<!-- Node0&#45;&gt;Node1 -->
<g id="edge1" class="edge"><title>Node0&#45;&gt;Node1</title>
<path fill="none" stroke="black" d="M67.4738,-144.765C62.2847,-136.317 55.8237,-125.799 49.9959,-116.312"/>
<polygon fill="black" stroke="black" points="52.8811,-114.322 44.6646,-107.633 46.9166,-117.986 52.8811,-114.322"/>
</g>
<!-- Node2 -->
<g id="node3" class="node"><title>Node2</title>
<g id="a_node3"><a xlink:title="0x400945 to 0x400965">
<ellipse fill="none" stroke="black" cx="121.447" cy="-90" rx="34.394" ry="18"/>
<text text-anchor="middle" x="121.447" y="-86.3" font-family="Times,serif" font-size="14.00">Node2</text>
</a>
</g>
</g>
<!-- Node0&#45;&gt;Node2 -->
<g id="edge2" class="edge"><title>Node0&#45;&gt;Node2</title>
<path fill="none" stroke="black" d="M87.652,-144.765C92.9618,-136.317 99.5731,-125.799 105.536,-116.312"/>
<polygon fill="black" stroke="black" points="108.633,-117.962 110.992,-107.633 102.707,-114.237 108.633,-117.962"/>
</g>
<!-- Node3 -->
<g id="node4" class="node"><title>Node3</title>
<g id="a_node4"><a xlink:title="0x400998 to 0x40099d">
<ellipse fill="none" stroke="black" cx="77.4469" cy="-18" rx="34.394" ry="18"/>
<text text-anchor="middle" x="77.4469" y="-14.3" font-family="Times,serif" font-size="14.00">Node3</text>
</a>
</g>
</g>
<!-- Node2&#45;&gt;Node3 -->
<g id="edge3" class="edge"><title>Node2&#45;&gt;Node3</title>
<path fill="none" stroke="black" d="M111.242,-72.7646C105.932,-64.3172 99.3208,-53.7993 93.3575,-44.3122"/>
<polygon fill="black" stroke="black" points="96.1872,-42.2372 87.9022,-35.6334 90.2608,-45.9624 96.1872,-42.2372"/>
</g>
<!-- Node4 -->
<g id="node5" class="node"><title>Node4</title>
<g id="a_node5"><a xlink:title="0x400967 to 0x400990">
<ellipse fill="none" stroke="black" cx="164.447" cy="-18" rx="34.394" ry="18"/>
<text text-anchor="middle" x="164.447" y="-14.3" font-family="Times,serif" font-size="14.00">Node4</text>
</a>
</g>
</g>
<!-- Node2&#45;&gt;Node4 -->
<g id="edge4" class="edge"><title>Node2&#45;&gt;Node4</title>
<path fill="none" stroke="black" d="M131.42,-72.7646C136.609,-64.3172 143.07,-53.7993 148.898,-44.3122"/>
<polygon fill="black" stroke="black" points="151.977,-45.9862 154.229,-35.6334 146.013,-42.3222 151.977,-45.9862"/>
</g>
</g>
</svg>
