<?xml version="1.0" encoding="UTF-8" standalone="no"?>
<!DOCTYPE svg PUBLIC "-//W3C//DTD SVG 1.1//EN"
 "http://www.w3.org/Graphics/SVG/1.1/DTD/svg11.dtd">
<!-- Generated by graphviz version 2.38.0 (20140413.2041)
 -->
<!-- Title: G Pages: 1 -->
<svg width="241pt" height="548pt"
 viewBox="0.00 0.00 240.79 548.00" xmlns="http://www.w3.org/2000/svg" xmlns:xlink="http://www.w3.org/1999/xlink">
<g id="graph0" class="graph" transform="scale(1 1) rotate(0) translate(4 544)">
<title>G</title>
<polygon fill="white" stroke="none" points="-4,4 -4,-544 236.794,-544 236.794,4 -4,4"/>
<!-- Node0 -->
<g id="node1" class="node"><title>Node0</title>
<g id="a_node1"><a xlink:title="0x400870 to 0x40087e">
<ellipse fill="none" stroke="black" cx="53.4469" cy="-522" rx="34.394" ry="18"/>
<text text-anchor="middle" x="53.4469" y="-518.3" font-family="Times,serif" font-size="14.00">Node0</text>
</a>
</g>
</g>
<!-- Node1 -->
<g id="node2" class="node"><title>Node1</title>
<g id="a_node2"><a xlink:title="0x4008b5 to 0x4008b7">
<ellipse fill="none" stroke="black" cx="34.4469" cy="-162" rx="34.394" ry="18"/>
<text text-anchor="middle" x="34.4469" y="-158.3" font-family="Times,serif" font-size="14.00">Node1</text>
</a>
</g>
</g>
<!-- Node0&#45;&gt;Node1 -->
<g id="edge1" class="edge"><title>Node0&#45;&gt;Node1</title>
<path fill="none" stroke="black" d="M43.5686,-504.613C28.997,-478.84 3.44694,-426.83 3.44694,-379 3.44694,-379 3.44694,-379 3.44694,-305 3.44694,-263.873 16.0123,-217.557 25.1433,-189.328"/>
<polygon fill="black" stroke="black" points="28.4808,-190.384 28.3223,-179.79 21.8399,-188.17 28.4808,-190.384"/>
</g>
<!-- Node2 -->
<g id="node3" class="node"><title>Node2</title>
<g id="a_node3"><a xlink:title="0x400880 to 0x400895">
<ellipse fill="none" stroke="black" cx="103.447" cy="-450" rx="34.394" ry="18"/>
<text text-anchor="middle" x="103.447" y="-446.3" font-family="Times,serif" font-size="14.00">Node2</text>
</a>
</g>
</g>
<!-- Node0&#45;&gt;Node2 -->
<g id="edge2" class="edge"><title>Node0&#45;&gt;Node2</title>
<path fill="none" stroke="black" d="M65.0436,-504.765C71.2912,-496.018 79.1242,-485.052 86.0838,-475.308"/>
<polygon fill="black" stroke="black" points="88.9488,-477.319 91.9132,-467.147 83.2527,-473.25 88.9488,-477.319"/>
</g>
<!-- Node3 -->
<g id="node4" class="node"><title>Node3</title>
<g id="a_node4"><a xlink:title="0x4008ad to 0x4008b3">
<ellipse fill="none" stroke="black" cx="103.447" cy="-378" rx="34.394" ry="18"/>
<text text-anchor="middle" x="103.447" y="-374.3" font-family="Times,serif" font-size="14.00">Node3</text>
</a>
</g>
</g>
<!-- Node2&#45;&gt;Node3 -->
<g id="edge3" class="edge"><title>Node2&#45;&gt;Node3</title>
<path fill="none" stroke="black" d="M103.447,-431.697C103.447,-423.983 103.447,-414.712 103.447,-406.112"/>
<polygon fill="black" stroke="black" points="106.947,-406.104 103.447,-396.104 99.947,-406.104 106.947,-406.104"/>
</g>
<!-- Node10 -->
<g id="node5" class="node"><title>Node10</title>
<g id="a_node5"><a xlink:title="0x400897 to 0x400897">
<ellipse fill="none" stroke="black" cx="194.447" cy="-306" rx="38.1938" ry="18"/>
<text text-anchor="middle" x="194.447" y="-302.3" font-family="Times,serif" font-size="14.00">Node10</text>
</a>
</g>
</g>
<!-- Node2&#45;&gt;Node10 -->
<g id="edge4" class="edge"><title>Node2&#45;&gt;Node10</title>
<path fill="none" stroke="black" d="M117.435,-433.362C126.27,-423.112 137.638,-409.21 146.447,-396 159.924,-375.789 172.856,-351.424 181.894,-333.301"/>
<polygon fill="black" stroke="black" points="185.225,-334.459 186.494,-323.941 178.942,-331.372 185.225,-334.459"/>
</g>
<!-- Node3&#45;&gt;Node1 -->
<g id="edge5" class="edge"><title>Node3&#45;&gt;Node1</title>
<path fill="none" stroke="black" d="M87.452,-361.79C78.0695,-351.921 66.8368,-338.276 60.4469,-324 40.8051,-280.118 35.781,-223.615 34.6245,-190.541"/>
<polygon fill="black" stroke="black" points="38.1167,-190.183 34.365,-180.275 31.1189,-190.36 38.1167,-190.183"/>
</g>
<!-- Node4 -->
<g id="node6" class="node"><title>Node4</title>
<g id="a_node6"><a xlink:title="0x4008a0 to 0x4008ab">
<ellipse fill="none" stroke="black" cx="103.447" cy="-306" rx="34.394" ry="18"/>
<text text-anchor="middle" x="103.447" y="-302.3" font-family="Times,serif" font-size="14.00">Node4</text>
</a>
</g>
</g>
<!-- Node3&#45;&gt;Node4 -->
<g id="edge6" class="edge"><title>Node3&#45;&gt;Node4</title>
<path fill="none" stroke="black" d="M97.5687,-360.055C96.7384,-352.231 96.5012,-342.748 96.8571,-333.977"/>
<polygon fill="black" stroke="black" points="100.363,-334.013 97.5854,-323.789 93.3812,-333.514 100.363,-334.013"/>
</g>
<!-- Node5 -->
<g id="node7" class="node"><title>Node5</title>
<g id="a_node7"><a xlink:title="0x4008c0 to 0x4008c3">
<ellipse fill="none" stroke="black" cx="115.447" cy="-234" rx="34.394" ry="18"/>
<text text-anchor="middle" x="115.447" y="-230.3" font-family="Times,serif" font-size="14.00">Node5</text>
</a>
</g>
</g>
<!-- Node10&#45;&gt;Node5 -->
<g id="edge14" class="edge"><title>Node10&#45;&gt;Node5</title>
<path fill="none" stroke="black" d="M177.305,-289.811C166.361,-280.114 152.002,-267.39 139.874,-256.644"/>
<polygon fill="black" stroke="black" points="142.09,-253.931 132.284,-249.919 137.447,-259.17 142.09,-253.931"/>
</g>
<!-- Node4&#45;&gt;Node3 -->
<g id="edge7" class="edge"><title>Node4&#45;&gt;Node3</title>
<path fill="none" stroke="black" d="M109.309,-323.789C110.147,-331.591 110.392,-341.067 110.044,-349.848"/>
<polygon fill="black" stroke="black" points="106.536,-349.834 109.325,-360.055 113.519,-350.325 106.536,-349.834"/>
</g>
<!-- Node4&#45;&gt;Node5 -->
<g id="edge8" class="edge"><title>Node4&#45;&gt;Node5</title>
<path fill="none" stroke="black" d="M106.352,-288.055C107.673,-280.346 109.271,-271.027 110.756,-262.364"/>
<polygon fill="black" stroke="black" points="114.245,-262.723 112.485,-252.275 107.346,-261.54 114.245,-262.723"/>
</g>
<!-- Node5&#45;&gt;Node1 -->
<g id="edge9" class="edge"><title>Node5&#45;&gt;Node1</title>
<path fill="none" stroke="black" d="M98.2689,-218.155C86.9929,-208.41 72.0581,-195.503 59.4708,-184.626"/>
<polygon fill="black" stroke="black" points="61.4549,-181.714 51.6002,-177.824 56.8778,-187.011 61.4549,-181.714"/>
</g>
<!-- Node6 -->
<g id="node8" class="node"><title>Node6</title>
<g id="a_node8"><a xlink:title="0x4008c5 to 0x4008d8">
<ellipse fill="none" stroke="black" cx="121.447" cy="-162" rx="34.394" ry="18"/>
<text text-anchor="middle" x="121.447" y="-158.3" font-family="Times,serif" font-size="14.00">Node6</text>
</a>
</g>
</g>
<!-- Node5&#45;&gt;Node6 -->
<g id="edge10" class="edge"><title>Node5&#45;&gt;Node6</title>
<path fill="none" stroke="black" d="M116.93,-215.697C117.591,-207.983 118.386,-198.712 119.123,-190.112"/>
<polygon fill="black" stroke="black" points="122.614,-190.367 119.981,-180.104 115.64,-189.769 122.614,-190.367"/>
</g>
<!-- Node7 -->
<g id="node9" class="node"><title>Node7</title>
<g id="a_node9"><a xlink:title="0x400918 to 0x40092a">
<ellipse fill="none" stroke="black" cx="77.4469" cy="-90" rx="34.394" ry="18"/>
<text text-anchor="middle" x="77.4469" y="-86.3" font-family="Times,serif" font-size="14.00">Node7</text>
</a>
</g>
</g>
<!-- Node6&#45;&gt;Node7 -->
<g id="edge11" class="edge"><title>Node6&#45;&gt;Node7</title>
<path fill="none" stroke="black" d="M111.242,-144.765C105.932,-136.317 99.3208,-125.799 93.3575,-116.312"/>
<polygon fill="black" stroke="black" points="96.1872,-114.237 87.9022,-107.633 90.2608,-117.962 96.1872,-114.237"/>
</g>
<!-- Node9 -->
<g id="node10" class="node"><title>Node9</title>
<g id="a_node10"><a xlink:title="0x4008da to 0x400913">
<ellipse fill="none" stroke="black" cx="164.447" cy="-90" rx="34.394" ry="18"/>
<text text-anchor="middle" x="164.447" y="-86.3" font-family="Times,serif" font-size="14.00">Node9</text>
</a>
</g>
</g>
<!-- Node6&#45;&gt;Node9 -->
<g id="edge12" class="edge"><title>Node6&#45;&gt;Node9</title>
<path fill="none" stroke="black" d="M131.42,-144.765C136.609,-136.317 143.07,-125.799 148.898,-116.312"/>
<polygon fill="black" stroke="black" points="151.977,-117.986 154.229,-107.633 146.013,-114.322 151.977,-117.986"/>
</g>
<!-- Node8 -->
<g id="node11" class="node"><title>Node8</title>
<g id="a_node11"><a xlink:title="0x4008f4 to 0x400913">
<ellipse fill="none" stroke="black" cx="77.4469" cy="-18" rx="34.394" ry="18"/>
<text text-anchor="middle" x="77.4469" y="-14.3" font-family="Times,serif" font-size="14.00">Node8</text>
</a>
</g>
</g>
<!-- Node7&#45;&gt;Node8 -->
<g id="edge13" class="edge"><title>Node7&#45;&gt;Node8</title>
<path fill="none" stroke="black" d="M77.4469,-71.6966C77.4469,-63.9827 77.4469,-54.7125 77.4469,-46.1124"/>
<polygon fill="black" stroke="black" points="80.947,-46.1043 77.4469,-36.1043 73.947,-46.1044 80.947,-46.1043"/>
</g>
</g>
</svg>
