<?xml version="1.0" encoding="UTF-8" standalone="no"?>
<!DOCTYPE svg PUBLIC "-//W3C//DTD SVG 1.1//EN"
 "http://www.w3.org/Graphics/SVG/1.1/DTD/svg11.dtd">
<!-- Generated by graphviz version 2.38.0 (20140413.2041)
 -->
<!-- Title: G Pages: 1 -->
<svg width="250pt" height="260pt"
 viewBox="0.00 0.00 249.89 260.00" xmlns="http://www.w3.org/2000/svg" xmlns:xlink="http://www.w3.org/1999/xlink">
<g id="graph0" class="graph" transform="scale(1 1) rotate(0) translate(4 256)">
<title>G</title>
<polygon fill="white" stroke="none" points="-4,4 -4,-256 245.894,-256 245.894,4 -4,4"/>
<!-- Node0 -->
<g id="node1" class="node"><title>Node0</title>
<g id="a_node1"><a xlink:title="0x4009a0 to 0x4009b8">
<ellipse fill="none" stroke="black" cx="77.4469" cy="-234" rx="34.394" ry="18"/>
<text text-anchor="middle" x="77.4469" y="-230.3" font-family="Times,serif" font-size="14.00">Node0</text>
</a>
</g>
</g>
<!-- Node1 -->
<g id="node2" class="node"><title>Node1</title>
<g id="a_node2"><a xlink:title="0x4009f8 to 0x4009fa">
<ellipse fill="none" stroke="black" cx="34.4469" cy="-162" rx="34.394" ry="18"/>
<text text-anchor="middle" x="34.4469" y="-158.3" font-family="Times,serif" font-size="14.00">Node1</text>
</a>
</g>
</g>
<!-- Node0&#45;&gt;Node1 -->
<g id="edge1" class="edge"><title>Node0&#45;&gt;Node1</title>
<path fill="none" stroke="black" d="M67.4738,-216.765C62.2847,-208.317 55.8237,-197.799 49.9959,-188.312"/>
<polygon fill="black" stroke="black" points="52.8811,-186.322 44.6646,-179.633 46.9166,-189.986 52.8811,-186.322"/>
</g>
<!-- Node2 -->
<g id="node3" class="node"><title>Node2</title>
<g id="a_node3"><a xlink:title="0x4009ba to 0x4009cb">
<ellipse fill="none" stroke="black" cx="121.447" cy="-162" rx="34.394" ry="18"/>
<text text-anchor="middle" x="121.447" y="-158.3" font-family="Times,serif" font-size="14.00">Node2</text>
</a>
</g>
</g>
<!-- Node0&#45;&gt;Node2 -->
<g id="edge2" class="edge"><title>Node0&#45;&gt;Node2</title>
<path fill="none" stroke="black" d="M87.652,-216.765C92.9618,-208.317 99.5731,-197.799 105.536,-188.312"/>
<polygon fill="black" stroke="black" points="108.633,-189.962 110.992,-179.633 102.707,-186.237 108.633,-189.962"/>
</g>
<!-- Node3 -->
<g id="node4" class="node"><title>Node3</title>
<g id="a_node4"><a xlink:title="0x4009fa to 0x4009fa">
<ellipse fill="none" stroke="black" cx="77.4469" cy="-90" rx="34.394" ry="18"/>
<text text-anchor="middle" x="77.4469" y="-86.3" font-family="Times,serif" font-size="14.00">Node3</text>
</a>
</g>
</g>
<!-- Node2&#45;&gt;Node3 -->
<g id="edge3" class="edge"><title>Node2&#45;&gt;Node3</title>
<path fill="none" stroke="black" d="M111.242,-144.765C105.932,-136.317 99.3208,-125.799 93.3575,-116.312"/>
<polygon fill="black" stroke="black" points="96.1872,-114.237 87.9022,-107.633 90.2608,-117.962 96.1872,-114.237"/>
</g>
<!-- Node4 -->
<g id="node5" class="node"><title>Node4</title>
<g id="a_node5"><a xlink:title="0x4009cd to 0x4009d2">
<ellipse fill="none" stroke="black" cx="164.447" cy="-90" rx="34.394" ry="18"/>
<text text-anchor="middle" x="164.447" y="-86.3" font-family="Times,serif" font-size="14.00">Node4</text>
</a>
</g>
</g>
<!-- Node2&#45;&gt;Node4 -->
<g id="edge4" class="edge"><title>Node2&#45;&gt;Node4</title>
<path fill="none" stroke="black" d="M131.42,-144.765C136.609,-136.317 143.07,-125.799 148.898,-116.312"/>
<polygon fill="black" stroke="black" points="151.977,-117.986 154.229,-107.633 146.013,-114.322 151.977,-117.986"/>
</g>
<!-- Node5 -->
<g id="node6" class="node"><title>Node5</title>
<g id="a_node6"><a xlink:title="0x400a00 to 0x400a1e">
<ellipse fill="none" stroke="black" cx="120.447" cy="-18" rx="34.394" ry="18"/>
<text text-anchor="middle" x="120.447" y="-14.3" font-family="Times,serif" font-size="14.00">Node5</text>
</a>
</g>
</g>
<!-- Node4&#45;&gt;Node5 -->
<g id="edge5" class="edge"><title>Node4&#45;&gt;Node5</title>
<path fill="none" stroke="black" d="M154.242,-72.7646C148.932,-64.3172 142.321,-53.7993 136.357,-44.3122"/>
<polygon fill="black" stroke="black" points="139.187,-42.2372 130.902,-35.6334 133.261,-45.9624 139.187,-42.2372"/>
</g>
<!-- Node6 -->
<g id="node7" class="node"><title>Node6</title>
<g id="a_node7"><a xlink:title="0x4009d4 to 0x4009f2">
<ellipse fill="none" stroke="black" cx="207.447" cy="-18" rx="34.394" ry="18"/>
<text text-anchor="middle" x="207.447" y="-14.3" font-family="Times,serif" font-size="14.00">Node6</text>
</a>
</g>
</g>
<!-- Node4&#45;&gt;Node6 -->
<g id="edge6" class="edge"><title>Node4&#45;&gt;Node6</title>
<path fill="none" stroke="black" d="M174.42,-72.7646C179.609,-64.3172 186.07,-53.7993 191.898,-44.3122"/>
<polygon fill="black" stroke="black" points="194.977,-45.9862 197.229,-35.6334 189.013,-42.3222 194.977,-45.9862"/>
</g>
</g>
</svg>
