<?xml version="1.0" encoding="UTF-8" standalone="no"?>
<!DOCTYPE svg PUBLIC "-//W3C//DTD SVG 1.1//EN"
 "http://www.w3.org/Graphics/SVG/1.1/DTD/svg11.dtd">
<!-- Generated by graphviz version 2.38.0 (20140413.2041)
 -->
<!-- Title: G Pages: 1 -->
<svg width="270pt" height="404pt"
 viewBox="0.00 0.00 269.89 404.00" xmlns="http://www.w3.org/2000/svg" xmlns:xlink="http://www.w3.org/1999/xlink">
<g id="graph0" class="graph" transform="scale(1 1) rotate(0) translate(4 400)">
<title>G</title>
<polygon fill="white" stroke="none" points="-4,4 -4,-400 265.894,-400 265.894,4 -4,4"/>
<!-- Node0 -->
<g id="node1" class="node"><title>Node0</title>
<g id="a_node1"><a xlink:title="0x400a50 to 0x400a93">
<ellipse fill="none" stroke="black" cx="168.447" cy="-378" rx="34.394" ry="18"/>
<text text-anchor="middle" x="168.447" y="-374.3" font-family="Times,serif" font-size="14.00">Node0</text>
</a>
</g>
</g>
<!-- Node1 -->
<g id="node2" class="node"><title>Node1</title>
<g id="a_node2"><a xlink:title="0x400ab7 to 0x400ad6">
<ellipse fill="none" stroke="black" cx="123.447" cy="-306" rx="34.394" ry="18"/>
<text text-anchor="middle" x="123.447" y="-302.3" font-family="Times,serif" font-size="14.00">Node1</text>
</a>
</g>
</g>
<!-- Node0&#45;&gt;Node1 -->
<g id="edge1" class="edge"><title>Node0&#45;&gt;Node1</title>
<path fill="none" stroke="black" d="M158.01,-360.765C152.579,-352.317 145.818,-341.799 139.719,-332.312"/>
<polygon fill="black" stroke="black" points="142.492,-330.153 134.14,-323.633 136.603,-333.938 142.492,-330.153"/>
</g>
<!-- Node9 -->
<g id="node3" class="node"><title>Node9</title>
<g id="a_node3"><a xlink:title="0x400a95 to 0x400a95">
<ellipse fill="none" stroke="black" cx="227.447" cy="-234" rx="34.394" ry="18"/>
<text text-anchor="middle" x="227.447" y="-230.3" font-family="Times,serif" font-size="14.00">Node9</text>
</a>
</g>
</g>
<!-- Node0&#45;&gt;Node9 -->
<g id="edge2" class="edge"><title>Node0&#45;&gt;Node9</title>
<path fill="none" stroke="black" d="M175.447,-360.153C185.604,-335.706 204.524,-290.171 216.525,-261.286"/>
<polygon fill="black" stroke="black" points="219.851,-262.403 220.456,-251.825 213.387,-259.717 219.851,-262.403"/>
</g>
<!-- Node2 -->
<g id="node4" class="node"><title>Node2</title>
<g id="a_node4"><a xlink:title="0x400aa0 to 0x400aa5">
<ellipse fill="none" stroke="black" cx="171.447" cy="-162" rx="34.394" ry="18"/>
<text text-anchor="middle" x="171.447" y="-158.3" font-family="Times,serif" font-size="14.00">Node2</text>
</a>
</g>
</g>
<!-- Node1&#45;&gt;Node2 -->
<g id="edge3" class="edge"><title>Node1&#45;&gt;Node2</title>
<path fill="none" stroke="black" d="M129.142,-288.153C137.369,-263.813 152.663,-218.568 162.433,-189.665"/>
<polygon fill="black" stroke="black" points="165.873,-190.419 165.76,-179.825 159.242,-188.178 165.873,-190.419"/>
</g>
<!-- Node5 -->
<g id="node5" class="node"><title>Node5</title>
<g id="a_node5"><a xlink:title="0x400ad8 to 0x400adc">
<ellipse fill="none" stroke="black" cx="47.4469" cy="-234" rx="34.394" ry="18"/>
<text text-anchor="middle" x="47.4469" y="-230.3" font-family="Times,serif" font-size="14.00">Node5</text>
</a>
</g>
</g>
<!-- Node1&#45;&gt;Node5 -->
<g id="edge4" class="edge"><title>Node1&#45;&gt;Node5</title>
<path fill="none" stroke="black" d="M106.956,-289.811C96.5276,-280.206 82.8765,-267.633 71.2799,-256.951"/>
<polygon fill="black" stroke="black" points="73.3712,-254.119 63.6445,-249.919 68.6288,-259.268 73.3712,-254.119"/>
</g>
<!-- Node3 -->
<g id="node6" class="node"><title>Node3</title>
<g id="a_node6"><a xlink:title="0x400b40 to 0x400b50">
<ellipse fill="none" stroke="black" cx="152.447" cy="-18" rx="34.394" ry="18"/>
<text text-anchor="middle" x="152.447" y="-14.3" font-family="Times,serif" font-size="14.00">Node3</text>
</a>
</g>
</g>
<!-- Node9&#45;&gt;Node3 -->
<g id="edge15" class="edge"><title>Node9&#45;&gt;Node3</title>
<path fill="none" stroke="black" d="M226.458,-215.945C225.061,-197.786 221.801,-168.367 214.447,-144 204.222,-110.121 196.272,-103.653 180.447,-72 175.936,-62.977 170.826,-53.1879 166.218,-44.5067"/>
<polygon fill="black" stroke="black" points="169.265,-42.7823 161.467,-35.6102 163.091,-46.0799 169.265,-42.7823"/>
</g>
<!-- Node2&#45;&gt;Node3 -->
<g id="edge5" class="edge"><title>Node2&#45;&gt;Node3</title>
<path fill="none" stroke="black" d="M170.832,-143.854C170.016,-125.871 168.213,-96.8244 164.447,-72 163.153,-63.474 161.254,-54.2797 159.346,-45.9812"/>
<polygon fill="black" stroke="black" points="162.704,-44.9754 156.969,-36.0666 155.897,-46.607 162.704,-44.9754"/>
</g>
<!-- Node4 -->
<g id="node7" class="node"><title>Node4</title>
<g id="a_node7"><a xlink:title="0x400aab to 0x400ab1">
<ellipse fill="none" stroke="black" cx="121.447" cy="-90" rx="34.394" ry="18"/>
<text text-anchor="middle" x="121.447" y="-86.3" font-family="Times,serif" font-size="14.00">Node4</text>
</a>
</g>
</g>
<!-- Node2&#45;&gt;Node4 -->
<g id="edge6" class="edge"><title>Node2&#45;&gt;Node4</title>
<path fill="none" stroke="black" d="M159.85,-144.765C153.603,-136.018 145.77,-125.052 138.81,-115.308"/>
<polygon fill="black" stroke="black" points="141.641,-113.25 132.981,-107.147 135.945,-117.319 141.641,-113.25"/>
</g>
<!-- Node5&#45;&gt;Node2 -->
<g id="edge9" class="edge"><title>Node5&#45;&gt;Node2</title>
<path fill="none" stroke="black" d="M69.9024,-220.324C89.4441,-209.292 117.981,-193.182 139.831,-180.848"/>
<polygon fill="black" stroke="black" points="141.752,-183.783 148.74,-175.819 138.311,-177.687 141.752,-183.783"/>
</g>
<!-- Node6 -->
<g id="node8" class="node"><title>Node6</title>
<g id="a_node8"><a xlink:title="0x400ade to 0x400b0e">
<ellipse fill="none" stroke="black" cx="47.4469" cy="-162" rx="34.394" ry="18"/>
<text text-anchor="middle" x="47.4469" y="-158.3" font-family="Times,serif" font-size="14.00">Node6</text>
</a>
</g>
</g>
<!-- Node5&#45;&gt;Node6 -->
<g id="edge10" class="edge"><title>Node5&#45;&gt;Node6</title>
<path fill="none" stroke="black" d="M47.4469,-215.697C47.4469,-207.983 47.4469,-198.712 47.4469,-190.112"/>
<polygon fill="black" stroke="black" points="50.947,-190.104 47.4469,-180.104 43.947,-190.104 50.947,-190.104"/>
</g>
<!-- Node4&#45;&gt;Node1 -->
<g id="edge7" class="edge"><title>Node4&#45;&gt;Node1</title>
<path fill="none" stroke="black" d="M121.608,-108.232C121.955,-145.324 122.774,-232.981 123.192,-277.712"/>
<polygon fill="black" stroke="black" points="119.693,-277.882 123.287,-287.849 126.693,-277.817 119.693,-277.882"/>
</g>
<!-- Node4&#45;&gt;Node3 -->
<g id="edge8" class="edge"><title>Node4&#45;&gt;Node3</title>
<path fill="none" stroke="black" d="M128.794,-72.411C132.37,-64.3352 136.756,-54.4312 140.776,-45.3547"/>
<polygon fill="black" stroke="black" points="144.089,-46.517 144.938,-35.9562 137.688,-43.6825 144.089,-46.517"/>
</g>
<!-- Node6&#45;&gt;Node4 -->
<g id="edge11" class="edge"><title>Node6&#45;&gt;Node4</title>
<path fill="none" stroke="black" d="M63.5038,-145.811C73.5888,-136.271 86.769,-123.803 98.0104,-113.17"/>
<polygon fill="black" stroke="black" points="100.562,-115.574 105.421,-106.159 95.7515,-110.489 100.562,-115.574"/>
</g>
<!-- Node7 -->
<g id="node9" class="node"><title>Node7</title>
<g id="a_node9"><a xlink:title="0x400b10 to 0x400b14">
<ellipse fill="none" stroke="black" cx="34.4469" cy="-90" rx="34.394" ry="18"/>
<text text-anchor="middle" x="34.4469" y="-86.3" font-family="Times,serif" font-size="14.00">Node7</text>
</a>
</g>
</g>
<!-- Node6&#45;&gt;Node7 -->
<g id="edge12" class="edge"><title>Node6&#45;&gt;Node7</title>
<path fill="none" stroke="black" d="M44.3,-144.055C42.8683,-136.346 41.1377,-127.027 39.5289,-118.364"/>
<polygon fill="black" stroke="black" points="42.9224,-117.468 37.6552,-108.275 36.0401,-118.746 42.9224,-117.468"/>
</g>
<!-- Node7&#45;&gt;Node3 -->
<g id="edge13" class="edge"><title>Node7&#45;&gt;Node3</title>
<path fill="none" stroke="black" d="M56.3653,-75.9976C74.7117,-65.1141 101.103,-49.4584 121.586,-37.3075"/>
<polygon fill="black" stroke="black" points="123.431,-40.2826 130.246,-32.1703 119.859,-34.2622 123.431,-40.2826"/>
</g>
<!-- Node8 -->
<g id="node10" class="node"><title>Node8</title>
<g id="a_node10"><a xlink:title="0x400b16 to 0x400b3c">
<ellipse fill="none" stroke="black" cx="34.4469" cy="-18" rx="34.394" ry="18"/>
<text text-anchor="middle" x="34.4469" y="-14.3" font-family="Times,serif" font-size="14.00">Node8</text>
</a>
</g>
</g>
<!-- Node7&#45;&gt;Node8 -->
<g id="edge14" class="edge"><title>Node7&#45;&gt;Node8</title>
<path fill="none" stroke="black" d="M34.4469,-71.6966C34.4469,-63.9827 34.4469,-54.7125 34.4469,-46.1124"/>
<polygon fill="black" stroke="black" points="37.947,-46.1043 34.4469,-36.1043 30.947,-46.1044 37.947,-46.1043"/>
</g>
</g>
</svg>
