<?xml version="1.0" encoding="UTF-8" standalone="no"?>
<!DOCTYPE svg PUBLIC "-//W3C//DTD SVG 1.1//EN"
 "http://www.w3.org/Graphics/SVG/1.1/DTD/svg11.dtd">
<!-- Generated by graphviz version 2.38.0 (20140413.2041)
 -->
<!-- Title: G Pages: 1 -->
<svg width="301pt" height="476pt"
 viewBox="0.00 0.00 300.89 476.00" xmlns="http://www.w3.org/2000/svg" xmlns:xlink="http://www.w3.org/1999/xlink">
<g id="graph0" class="graph" transform="scale(1 1) rotate(0) translate(4 472)">
<title>G</title>
<polygon fill="white" stroke="none" points="-4,4 -4,-472 296.894,-472 296.894,4 -4,4"/>
<!-- Node0 -->
<g id="node1" class="node"><title>Node0</title>
<g id="a_node1"><a xlink:title="0x4014d0 to 0x401501">
<ellipse fill="none" stroke="black" cx="53.4469" cy="-450" rx="34.394" ry="18"/>
<text text-anchor="middle" x="53.4469" y="-446.3" font-family="Times,serif" font-size="14.00">Node0</text>
</a>
</g>
</g>
<!-- Node1 -->
<g id="node2" class="node"><title>Node1</title>
<g id="a_node2"><a xlink:title="0x40155f to 0x401570">
<ellipse fill="none" stroke="black" cx="34.4469" cy="-234" rx="34.394" ry="18"/>
<text text-anchor="middle" x="34.4469" y="-230.3" font-family="Times,serif" font-size="14.00">Node1</text>
</a>
</g>
</g>
<!-- Node0&#45;&gt;Node1 -->
<g id="edge1" class="edge"><title>Node0&#45;&gt;Node1</title>
<path fill="none" stroke="black" d="M48.77,-431.955C46.1431,-421.634 43.074,-408.156 41.4469,-396 35.205,-349.365 34.1432,-294.522 34.1493,-262.381"/>
<polygon fill="black" stroke="black" points="37.6506,-262.022 34.1892,-252.009 30.6506,-261.995 37.6506,-262.022"/>
</g>
<!-- Node2 -->
<g id="node3" class="node"><title>Node2</title>
<g id="a_node3"><a xlink:title="0x401503 to 0x40151a">
<ellipse fill="none" stroke="black" cx="84.4469" cy="-378" rx="34.394" ry="18"/>
<text text-anchor="middle" x="84.4469" y="-374.3" font-family="Times,serif" font-size="14.00">Node2</text>
</a>
</g>
</g>
<!-- Node0&#45;&gt;Node2 -->
<g id="edge2" class="edge"><title>Node0&#45;&gt;Node2</title>
<path fill="none" stroke="black" d="M60.7935,-432.411C64.3699,-424.335 68.756,-414.431 72.7756,-405.355"/>
<polygon fill="black" stroke="black" points="76.0887,-406.517 76.9378,-395.956 69.6882,-403.682 76.0887,-406.517"/>
</g>
<!-- Node3 -->
<g id="node4" class="node"><title>Node3</title>
<g id="a_node4"><a xlink:title="0x401571 to 0x401582">
<ellipse fill="none" stroke="black" cx="84.4469" cy="-306" rx="34.394" ry="18"/>
<text text-anchor="middle" x="84.4469" y="-302.3" font-family="Times,serif" font-size="14.00">Node3</text>
</a>
</g>
</g>
<!-- Node2&#45;&gt;Node3 -->
<g id="edge3" class="edge"><title>Node2&#45;&gt;Node3</title>
<path fill="none" stroke="black" d="M84.4469,-359.697C84.4469,-351.983 84.4469,-342.712 84.4469,-334.112"/>
<polygon fill="black" stroke="black" points="87.947,-334.104 84.4469,-324.104 80.947,-334.104 87.947,-334.104"/>
</g>
<!-- Node4 -->
<g id="node5" class="node"><title>Node4</title>
<g id="a_node5"><a xlink:title="0x40151c to 0x401529">
<ellipse fill="none" stroke="black" cx="171.447" cy="-306" rx="34.394" ry="18"/>
<text text-anchor="middle" x="171.447" y="-302.3" font-family="Times,serif" font-size="14.00">Node4</text>
</a>
</g>
</g>
<!-- Node2&#45;&gt;Node4 -->
<g id="edge4" class="edge"><title>Node2&#45;&gt;Node4</title>
<path fill="none" stroke="black" d="M102.473,-362.496C114.838,-352.547 131.443,-339.187 145.262,-328.068"/>
<polygon fill="black" stroke="black" points="147.846,-330.481 153.444,-321.485 143.458,-325.027 147.846,-330.481"/>
</g>
<!-- Node3&#45;&gt;Node1 -->
<g id="edge5" class="edge"><title>Node3&#45;&gt;Node1</title>
<path fill="none" stroke="black" d="M72.8503,-288.765C66.6027,-280.018 58.7697,-269.052 51.8101,-259.308"/>
<polygon fill="black" stroke="black" points="54.6412,-257.25 45.9807,-251.147 48.9451,-261.319 54.6412,-257.25"/>
</g>
<!-- Node5 -->
<g id="node6" class="node"><title>Node5</title>
<g id="a_node6"><a xlink:title="0x401559 to 0x401570">
<ellipse fill="none" stroke="black" cx="178.447" cy="-18" rx="34.394" ry="18"/>
<text text-anchor="middle" x="178.447" y="-14.3" font-family="Times,serif" font-size="14.00">Node5</text>
</a>
</g>
</g>
<!-- Node4&#45;&gt;Node5 -->
<g id="edge6" class="edge"><title>Node4&#45;&gt;Node5</title>
<path fill="none" stroke="black" d="M166.578,-287.979C163.883,-277.665 160.81,-264.189 159.447,-252 151.133,-177.633 164.65,-89.5274 172.865,-46.0473"/>
<polygon fill="black" stroke="black" points="176.347,-46.4745 174.823,-35.99 169.476,-45.137 176.347,-46.4745"/>
</g>
<!-- Node6 -->
<g id="node7" class="node"><title>Node6</title>
<g id="a_node7"><a xlink:title="0x40152b to 0x401534">
<ellipse fill="none" stroke="black" cx="202.447" cy="-234" rx="34.394" ry="18"/>
<text text-anchor="middle" x="202.447" y="-230.3" font-family="Times,serif" font-size="14.00">Node6</text>
</a>
</g>
</g>
<!-- Node4&#45;&gt;Node6 -->
<g id="edge7" class="edge"><title>Node4&#45;&gt;Node6</title>
<path fill="none" stroke="black" d="M178.794,-288.411C182.37,-280.335 186.756,-270.431 190.776,-261.355"/>
<polygon fill="black" stroke="black" points="194.089,-262.517 194.938,-251.956 187.688,-259.682 194.089,-262.517"/>
</g>
<!-- Node7 -->
<g id="node8" class="node"><title>Node7</title>
<g id="a_node8"><a xlink:title="0x401547 to 0x401557">
<ellipse fill="none" stroke="black" cx="202.447" cy="-162" rx="34.394" ry="18"/>
<text text-anchor="middle" x="202.447" y="-158.3" font-family="Times,serif" font-size="14.00">Node7</text>
</a>
</g>
</g>
<!-- Node6&#45;&gt;Node7 -->
<g id="edge8" class="edge"><title>Node6&#45;&gt;Node7</title>
<path fill="none" stroke="black" d="M202.447,-215.697C202.447,-207.983 202.447,-198.712 202.447,-190.112"/>
<polygon fill="black" stroke="black" points="205.947,-190.104 202.447,-180.104 198.947,-190.104 205.947,-190.104"/>
</g>
<!-- Node7&#45;&gt;Node5 -->
<g id="edge9" class="edge"><title>Node7&#45;&gt;Node5</title>
<path fill="none" stroke="black" d="M199.552,-143.871C195.462,-119.67 187.947,-75.2108 183.077,-46.3932"/>
<polygon fill="black" stroke="black" points="186.47,-45.4661 181.352,-36.1893 179.568,-46.6327 186.47,-45.4661"/>
</g>
<!-- Node8 -->
<g id="node9" class="node"><title>Node8</title>
<g id="a_node9"><a xlink:title="0x401540 to 0x401557">
<ellipse fill="none" stroke="black" cx="240.447" cy="-90" rx="34.394" ry="18"/>
<text text-anchor="middle" x="240.447" y="-86.3" font-family="Times,serif" font-size="14.00">Node8</text>
</a>
</g>
</g>
<!-- Node7&#45;&gt;Node8 -->
<g id="edge10" class="edge"><title>Node7&#45;&gt;Node8</title>
<path fill="none" stroke="black" d="M211.452,-144.411C215.996,-136.042 221.604,-125.71 226.675,-116.37"/>
<polygon fill="black" stroke="black" points="229.811,-117.928 231.506,-107.47 223.659,-114.589 229.811,-117.928"/>
</g>
<!-- Node8&#45;&gt;Node5 -->
<g id="edge11" class="edge"><title>Node8&#45;&gt;Node5</title>
<path fill="none" stroke="black" d="M226.687,-73.4647C218.693,-64.4386 208.455,-52.88 199.469,-42.7349"/>
<polygon fill="black" stroke="black" points="201.849,-40.1424 192.598,-34.9772 196.608,-44.7837 201.849,-40.1424"/>
</g>
<!-- Node8&#45;&gt;Node8 -->
<g id="edge12" class="edge"><title>Node8&#45;&gt;Node8</title>
<path fill="none" stroke="black" d="M264.996,-102.708C279.406,-105.416 292.894,-101.18 292.894,-90 292.894,-81.5279 285.148,-77.0434 275.125,-76.5464"/>
<polygon fill="black" stroke="black" points="274.712,-73.0673 264.996,-77.2918 275.226,-80.0484 274.712,-73.0673"/>
</g>
</g>
</svg>
