<?xml version="1.0" encoding="UTF-8" standalone="no"?>
<!DOCTYPE svg PUBLIC "-//W3C//DTD SVG 1.1//EN"
 "http://www.w3.org/Graphics/SVG/1.1/DTD/svg11.dtd">
<!-- Generated by graphviz version 2.38.0 (20140413.2041)
 -->
<!-- Title: G Pages: 1 -->
<svg width="245pt" height="332pt"
 viewBox="0.00 0.00 244.89 332.00" xmlns="http://www.w3.org/2000/svg" xmlns:xlink="http://www.w3.org/1999/xlink">
<g id="graph0" class="graph" transform="scale(1 1) rotate(0) translate(4 328)">
<title>G</title>
<polygon fill="white" stroke="none" points="-4,4 -4,-328 240.894,-328 240.894,4 -4,4"/>
<!-- Node0 -->
<g id="node1" class="node"><title>Node0</title>
<g id="a_node1"><a xlink:title="0x44ca10 to 0x44ca3c">
<ellipse fill="none" stroke="black" cx="34.4469" cy="-306" rx="34.394" ry="18"/>
<text text-anchor="middle" x="34.4469" y="-302.3" font-family="Times,serif" font-size="14.00">Node0</text>
</a>
</g>
</g>
<!-- Node1 -->
<g id="node2" class="node"><title>Node1</title>
<g id="a_node2"><a xlink:title="0x44ca86 to 0x44ca97">
<ellipse fill="none" stroke="black" cx="53.4469" cy="-18" rx="34.394" ry="18"/>
<text text-anchor="middle" x="53.4469" y="-14.3" font-family="Times,serif" font-size="14.00">Node1</text>
</a>
</g>
</g>
<!-- Node0&#45;&gt;Node1 -->
<g id="edge1" class="edge"><title>Node0&#45;&gt;Node1</title>
<path fill="none" stroke="black" d="M29.5778,-287.979C26.8827,-277.665 23.8095,-264.189 22.4469,-252 17.1141,-204.297 16.627,-191.646 22.4469,-144 26.6456,-109.627 37.1101,-71.0941 44.7223,-46.0148"/>
<polygon fill="black" stroke="black" points="48.165,-46.7296 47.7834,-36.1416 41.4789,-44.6566 48.165,-46.7296"/>
</g>
<!-- Node2 -->
<g id="node3" class="node"><title>Node2</title>
<g id="a_node3"><a xlink:title="0x44ca3e to 0x44ca5e">
<ellipse fill="none" stroke="black" cx="65.4469" cy="-234" rx="34.394" ry="18"/>
<text text-anchor="middle" x="65.4469" y="-230.3" font-family="Times,serif" font-size="14.00">Node2</text>
</a>
</g>
</g>
<!-- Node0&#45;&gt;Node2 -->
<g id="edge2" class="edge"><title>Node0&#45;&gt;Node2</title>
<path fill="none" stroke="black" d="M41.7935,-288.411C45.3699,-280.335 49.756,-270.431 53.7756,-261.355"/>
<polygon fill="black" stroke="black" points="57.0887,-262.517 57.9378,-251.956 50.6882,-259.682 57.0887,-262.517"/>
</g>
<!-- Node3 -->
<g id="node4" class="node"><title>Node3</title>
<g id="a_node4"><a xlink:title="0x44caa8 to 0x44cab9">
<ellipse fill="none" stroke="black" cx="65.4469" cy="-162" rx="34.394" ry="18"/>
<text text-anchor="middle" x="65.4469" y="-158.3" font-family="Times,serif" font-size="14.00">Node3</text>
</a>
</g>
</g>
<!-- Node2&#45;&gt;Node3 -->
<g id="edge3" class="edge"><title>Node2&#45;&gt;Node3</title>
<path fill="none" stroke="black" d="M65.4469,-215.697C65.4469,-207.983 65.4469,-198.712 65.4469,-190.112"/>
<polygon fill="black" stroke="black" points="68.947,-190.104 65.4469,-180.104 61.947,-190.104 68.947,-190.104"/>
</g>
<!-- Node4 -->
<g id="node5" class="node"><title>Node4</title>
<g id="a_node5"><a xlink:title="0x44ca60 to 0x44ca6f">
<ellipse fill="none" stroke="black" cx="152.447" cy="-162" rx="34.394" ry="18"/>
<text text-anchor="middle" x="152.447" y="-158.3" font-family="Times,serif" font-size="14.00">Node4</text>
</a>
</g>
</g>
<!-- Node2&#45;&gt;Node4 -->
<g id="edge4" class="edge"><title>Node2&#45;&gt;Node4</title>
<path fill="none" stroke="black" d="M83.4734,-218.496C95.8384,-208.547 112.443,-195.187 126.262,-184.068"/>
<polygon fill="black" stroke="black" points="128.846,-186.481 134.444,-177.485 124.458,-181.027 128.846,-186.481"/>
</g>
<!-- Node3&#45;&gt;Node1 -->
<g id="edge5" class="edge"><title>Node3&#45;&gt;Node1</title>
<path fill="none" stroke="black" d="M63.9995,-143.871C61.9543,-119.67 58.1972,-75.2108 55.7619,-46.3932"/>
<polygon fill="black" stroke="black" points="59.2293,-45.859 54.8996,-36.1893 52.2541,-46.4485 59.2293,-45.859"/>
</g>
<!-- Node5 -->
<g id="node6" class="node"><title>Node5</title>
<g id="a_node6"><a xlink:title="0x44caa0 to 0x44cab9">
<ellipse fill="none" stroke="black" cx="115.447" cy="-90" rx="34.394" ry="18"/>
<text text-anchor="middle" x="115.447" y="-86.3" font-family="Times,serif" font-size="14.00">Node5</text>
</a>
</g>
</g>
<!-- Node4&#45;&gt;Node5 -->
<g id="edge6" class="edge"><title>Node4&#45;&gt;Node5</title>
<path fill="none" stroke="black" d="M143.678,-144.411C139.255,-136.042 133.794,-125.71 128.857,-116.37"/>
<polygon fill="black" stroke="black" points="131.92,-114.675 124.152,-107.47 125.731,-117.947 131.92,-114.675"/>
</g>
<!-- Node6 -->
<g id="node7" class="node"><title>Node6</title>
<g id="a_node7"><a xlink:title="0x44ca71 to 0x44ca97">
<ellipse fill="none" stroke="black" cx="202.447" cy="-90" rx="34.394" ry="18"/>
<text text-anchor="middle" x="202.447" y="-86.3" font-family="Times,serif" font-size="14.00">Node6</text>
</a>
</g>
</g>
<!-- Node4&#45;&gt;Node6 -->
<g id="edge7" class="edge"><title>Node4&#45;&gt;Node6</title>
<path fill="none" stroke="black" d="M164.044,-144.765C170.291,-136.018 178.124,-125.052 185.084,-115.308"/>
<polygon fill="black" stroke="black" points="187.949,-117.319 190.913,-107.147 182.253,-113.25 187.949,-117.319"/>
</g>
<!-- Node5&#45;&gt;Node1 -->
<g id="edge8" class="edge"><title>Node5&#45;&gt;Node1</title>
<path fill="none" stroke="black" d="M101.687,-73.4647C93.6925,-64.4386 83.4549,-52.88 74.4693,-42.7349"/>
<polygon fill="black" stroke="black" points="76.8486,-40.1424 67.5981,-34.9772 71.6085,-44.7837 76.8486,-40.1424"/>
</g>
</g>
</svg>
