<?xml version="1.0" encoding="UTF-8" standalone="no"?>
<!DOCTYPE svg PUBLIC "-//W3C//DTD SVG 1.1//EN"
 "http://www.w3.org/Graphics/SVG/1.1/DTD/svg11.dtd">
<!-- Generated by graphviz version 2.38.0 (20140413.2041)
 -->
<!-- Title: G Pages: 1 -->
<svg width="164pt" height="188pt"
 viewBox="0.00 0.00 163.89 188.00" xmlns="http://www.w3.org/2000/svg" xmlns:xlink="http://www.w3.org/1999/xlink">
<g id="graph0" class="graph" transform="scale(1 1) rotate(0) translate(4 184)">
<title>G</title>
<polygon fill="white" stroke="none" points="-4,4 -4,-184 159.894,-184 159.894,4 -4,4"/>
<!-- Node0 -->
<g id="node1" class="node"><title>Node0</title>
<g id="a_node1"><a xlink:title="0x44cc30 to 0x44cc44">
<ellipse fill="none" stroke="black" cx="65.4469" cy="-162" rx="34.394" ry="18"/>
<text text-anchor="middle" x="65.4469" y="-158.3" font-family="Times,serif" font-size="14.00">Node0</text>
</a>
</g>
</g>
<!-- Node1 -->
<g id="node2" class="node"><title>Node1</title>
<g id="a_node2"><a xlink:title="0x44cc50 to 0x44cc6e">
<ellipse fill="none" stroke="black" cx="34.4469" cy="-18" rx="34.394" ry="18"/>
<text text-anchor="middle" x="34.4469" y="-14.3" font-family="Times,serif" font-size="14.00">Node1</text>
</a>
</g>
</g>
<!-- Node0&#45;&gt;Node1 -->
<g id="edge1" class="edge"><title>Node0&#45;&gt;Node1</title>
<path fill="none" stroke="black" d="M61.5022,-143.826C59.1348,-133.458 56.0815,-119.978 53.4469,-108 48.8939,-87.2987 43.895,-63.8526 40.1679,-46.2237"/>
<polygon fill="black" stroke="black" points="43.5159,-45.1375 38.027,-36.0754 36.6666,-46.5826 43.5159,-45.1375"/>
</g>
<!-- Node2 -->
<g id="node3" class="node"><title>Node2</title>
<g id="a_node3"><a xlink:title="0x44cc46 to 0x44cc4b">
<ellipse fill="none" stroke="black" cx="96.4469" cy="-90" rx="34.394" ry="18"/>
<text text-anchor="middle" x="96.4469" y="-86.3" font-family="Times,serif" font-size="14.00">Node2</text>
</a>
</g>
</g>
<!-- Node0&#45;&gt;Node2 -->
<g id="edge2" class="edge"><title>Node0&#45;&gt;Node2</title>
<path fill="none" stroke="black" d="M72.7935,-144.411C76.3699,-136.335 80.756,-126.431 84.7756,-117.355"/>
<polygon fill="black" stroke="black" points="88.0887,-118.517 88.9378,-107.956 81.6882,-115.682 88.0887,-118.517"/>
</g>
<!-- Node2&#45;&gt;Node1 -->
<g id="edge3" class="edge"><title>Node2&#45;&gt;Node1</title>
<path fill="none" stroke="black" d="M82.6871,-73.4647C74.6925,-64.4386 64.4549,-52.88 55.4693,-42.7349"/>
<polygon fill="black" stroke="black" points="57.8486,-40.1424 48.5981,-34.9772 52.6085,-44.7837 57.8486,-40.1424"/>
</g>
<!-- Node3 -->
<g id="node4" class="node"><title>Node3</title>
<g id="a_node4"><a xlink:title="0x44cc4d to 0x44cc4d">
<ellipse fill="none" stroke="black" cx="121.447" cy="-18" rx="34.394" ry="18"/>
<text text-anchor="middle" x="121.447" y="-14.3" font-family="Times,serif" font-size="14.00">Node3</text>
</a>
</g>
</g>
<!-- Node2&#45;&gt;Node3 -->
<g id="edge4" class="edge"><title>Node2&#45;&gt;Node3</title>
<path fill="none" stroke="black" d="M102.499,-72.055C105.355,-64.0586 108.829,-54.3308 112.019,-45.3995"/>
<polygon fill="black" stroke="black" points="115.384,-46.3836 115.451,-35.789 108.791,-44.0292 115.384,-46.3836"/>
</g>
</g>
</svg>
