<?xml version="1.0" encoding="UTF-8" standalone="no"?>
<!DOCTYPE svg PUBLIC "-//W3C//DTD SVG 1.1//EN"
 "http://www.w3.org/Graphics/SVG/1.1/DTD/svg11.dtd">
<!-- Generated by graphviz version 2.38.0 (20140413.2041)
 -->
<!-- Title: G Pages: 1 -->
<svg width="514pt" height="980pt"
 viewBox="0.00 0.00 513.59 980.00" xmlns="http://www.w3.org/2000/svg" xmlns:xlink="http://www.w3.org/1999/xlink">
<g id="graph0" class="graph" transform="scale(1 1) rotate(0) translate(4 976)">
<title>G</title>
<polygon fill="white" stroke="none" points="-4,4 -4,-976 509.594,-976 509.594,4 -4,4"/>
<!-- Node0 -->
<g id="node1" class="node"><title>Node0</title>
<g id="a_node1"><a xlink:title="0x44c040 to 0x44c08f">
<ellipse fill="none" stroke="black" cx="452.594" cy="-954" rx="34.394" ry="18"/>
<text text-anchor="middle" x="452.594" y="-950.3" font-family="Times,serif" font-size="14.00">Node0</text>
</a>
</g>
</g>
<!-- Node1 -->
<g id="node2" class="node"><title>Node1</title>
<g id="a_node2"><a xlink:title="0x44c2e9 to 0x44c2fa">
<ellipse fill="none" stroke="black" cx="353.594" cy="-18" rx="34.394" ry="18"/>
<text text-anchor="middle" x="353.594" y="-14.3" font-family="Times,serif" font-size="14.00">Node1</text>
</a>
</g>
</g>
<!-- Node0&#45;&gt;Node1 -->
<g id="edge1" class="edge"><title>Node0&#45;&gt;Node1</title>
<path fill="none" stroke="black" d="M463.065,-936.692C478.511,-911.025 505.594,-859.155 505.594,-811 505.594,-811 505.594,-811 505.594,-161 505.594,-97.785 434.525,-54.6272 389.578,-33.6538"/>
<polygon fill="black" stroke="black" points="390.973,-30.4433 380.419,-29.5159 388.091,-36.8226 390.973,-30.4433"/>
</g>
<!-- Node2 -->
<g id="node3" class="node"><title>Node2</title>
<g id="a_node3"><a xlink:title="0x44c095 to 0x44c0bc">
<ellipse fill="none" stroke="black" cx="400.594" cy="-882" rx="34.394" ry="18"/>
<text text-anchor="middle" x="400.594" y="-878.3" font-family="Times,serif" font-size="14.00">Node2</text>
</a>
</g>
</g>
<!-- Node0&#45;&gt;Node2 -->
<g id="edge2" class="edge"><title>Node0&#45;&gt;Node2</title>
<path fill="none" stroke="black" d="M440.534,-936.765C434.036,-928.018 425.89,-917.052 418.652,-907.308"/>
<polygon fill="black" stroke="black" points="421.362,-905.088 412.589,-899.147 415.743,-909.262 421.362,-905.088"/>
</g>
<!-- Node3 -->
<g id="node4" class="node"><title>Node3</title>
<g id="a_node4"><a xlink:title="0x44c31a to 0x44c332">
<ellipse fill="none" stroke="black" cx="88.5942" cy="-234" rx="34.394" ry="18"/>
<text text-anchor="middle" x="88.5942" y="-230.3" font-family="Times,serif" font-size="14.00">Node3</text>
</a>
</g>
</g>
<!-- Node2&#45;&gt;Node3 -->
<g id="edge3" class="edge"><title>Node2&#45;&gt;Node3</title>
<path fill="none" stroke="black" d="M368.606,-875.149C282.205,-858.439 50.5942,-807.279 50.5942,-739 50.5942,-739 50.5942,-739 50.5942,-377 50.5942,-335.406 65.9968,-289.217 77.1897,-261.143"/>
<polygon fill="black" stroke="black" points="80.5222,-262.242 81.0866,-251.662 74.0477,-259.581 80.5222,-262.242"/>
</g>
<!-- Node4 -->
<g id="node5" class="node"><title>Node4</title>
<g id="a_node5"><a xlink:title="0x44c0c2 to 0x44c0e4">
<ellipse fill="none" stroke="black" cx="400.594" cy="-810" rx="34.394" ry="18"/>
<text text-anchor="middle" x="400.594" y="-806.3" font-family="Times,serif" font-size="14.00">Node4</text>
</a>
</g>
</g>
<!-- Node2&#45;&gt;Node4 -->
<g id="edge4" class="edge"><title>Node2&#45;&gt;Node4</title>
<path fill="none" stroke="black" d="M400.594,-863.697C400.594,-855.983 400.594,-846.712 400.594,-838.112"/>
<polygon fill="black" stroke="black" points="404.094,-838.104 400.594,-828.104 397.094,-838.104 404.094,-838.104"/>
</g>
<!-- Node3&#45;&gt;Node1 -->
<g id="edge5" class="edge"><title>Node3&#45;&gt;Node1</title>
<path fill="none" stroke="black" d="M71.5319,-218.196C38.6699,-187.942 -26.8171,-118.01 12.5942,-72 50.2515,-28.0377 225.348,-20.2457 308.943,-19.0676"/>
<polygon fill="black" stroke="black" points="309.19,-22.5651 319.149,-18.9504 309.109,-15.5655 309.19,-22.5651"/>
</g>
<!-- Node5 -->
<g id="node6" class="node"><title>Node5</title>
<g id="a_node6"><a xlink:title="0x44c312 to 0x44c332">
<ellipse fill="none" stroke="black" cx="443.594" cy="-738" rx="34.394" ry="18"/>
<text text-anchor="middle" x="443.594" y="-734.3" font-family="Times,serif" font-size="14.00">Node5</text>
</a>
</g>
</g>
<!-- Node4&#45;&gt;Node5 -->
<g id="edge6" class="edge"><title>Node4&#45;&gt;Node5</title>
<path fill="none" stroke="black" d="M410.567,-792.765C415.756,-784.317 422.217,-773.799 428.045,-764.312"/>
<polygon fill="black" stroke="black" points="431.125,-765.986 433.376,-755.633 425.16,-762.322 431.125,-765.986"/>
</g>
<!-- Node6 -->
<g id="node7" class="node"><title>Node6</title>
<g id="a_node7"><a xlink:title="0x44c0ea to 0x44c102">
<ellipse fill="none" stroke="black" cx="356.594" cy="-738" rx="34.394" ry="18"/>
<text text-anchor="middle" x="356.594" y="-734.3" font-family="Times,serif" font-size="14.00">Node6</text>
</a>
</g>
</g>
<!-- Node4&#45;&gt;Node6 -->
<g id="edge7" class="edge"><title>Node4&#45;&gt;Node6</title>
<path fill="none" stroke="black" d="M390.389,-792.765C385.079,-784.317 378.468,-773.799 372.505,-764.312"/>
<polygon fill="black" stroke="black" points="375.334,-762.237 367.049,-755.633 369.408,-765.962 375.334,-762.237"/>
</g>
<!-- Node5&#45;&gt;Node1 -->
<g id="edge8" class="edge"><title>Node5&#45;&gt;Node1</title>
<path fill="none" stroke="black" d="M448.336,-720.107C455.33,-693.657 467.594,-640.754 467.594,-595 467.594,-595 467.594,-595 467.594,-161 467.594,-107.311 417.426,-62.3645 383.651,-38.188"/>
<polygon fill="black" stroke="black" points="385.248,-35.0364 375.037,-32.2128 381.259,-40.7882 385.248,-35.0364"/>
</g>
<!-- Node7 -->
<g id="node8" class="node"><title>Node7</title>
<g id="a_node8"><a xlink:title="0x44c30a to 0x44c332">
<ellipse fill="none" stroke="black" cx="405.594" cy="-666" rx="34.394" ry="18"/>
<text text-anchor="middle" x="405.594" y="-662.3" font-family="Times,serif" font-size="14.00">Node7</text>
</a>
</g>
</g>
<!-- Node6&#45;&gt;Node7 -->
<g id="edge9" class="edge"><title>Node6&#45;&gt;Node7</title>
<path fill="none" stroke="black" d="M367.959,-720.765C374.02,-712.106 381.603,-701.273 388.371,-691.604"/>
<polygon fill="black" stroke="black" points="391.424,-693.347 394.291,-683.147 385.689,-689.333 391.424,-693.347"/>
</g>
<!-- Node8 -->
<g id="node9" class="node"><title>Node8</title>
<g id="a_node9"><a xlink:title="0x44c108 to 0x44c121">
<ellipse fill="none" stroke="black" cx="318.594" cy="-666" rx="34.394" ry="18"/>
<text text-anchor="middle" x="318.594" y="-662.3" font-family="Times,serif" font-size="14.00">Node8</text>
</a>
</g>
</g>
<!-- Node6&#45;&gt;Node8 -->
<g id="edge10" class="edge"><title>Node6&#45;&gt;Node8</title>
<path fill="none" stroke="black" d="M347.589,-720.411C343.046,-712.042 337.437,-701.71 332.366,-692.37"/>
<polygon fill="black" stroke="black" points="335.382,-690.589 327.535,-683.47 329.23,-693.928 335.382,-690.589"/>
</g>
<!-- Node7&#45;&gt;Node1 -->
<g id="edge11" class="edge"><title>Node7&#45;&gt;Node1</title>
<path fill="none" stroke="black" d="M410.336,-648.107C417.33,-621.657 429.594,-568.754 429.594,-523 429.594,-523 429.594,-523 429.594,-161 429.594,-114.627 397.698,-68.7431 375.233,-42.1761"/>
<polygon fill="black" stroke="black" points="377.817,-39.8137 368.609,-34.5722 372.538,-44.4115 377.817,-39.8137"/>
</g>
<!-- Node9 -->
<g id="node10" class="node"><title>Node9</title>
<g id="a_node10"><a xlink:title="0x44c300 to 0x44c332">
<ellipse fill="none" stroke="black" cx="349.594" cy="-594" rx="34.394" ry="18"/>
<text text-anchor="middle" x="349.594" y="-590.3" font-family="Times,serif" font-size="14.00">Node9</text>
</a>
</g>
</g>
<!-- Node8&#45;&gt;Node9 -->
<g id="edge12" class="edge"><title>Node8&#45;&gt;Node9</title>
<path fill="none" stroke="black" d="M325.941,-648.411C329.517,-640.335 333.903,-630.431 337.923,-621.355"/>
<polygon fill="black" stroke="black" points="341.236,-622.517 342.085,-611.956 334.835,-619.682 341.236,-622.517"/>
</g>
<!-- Node10 -->
<g id="node11" class="node"><title>Node10</title>
<g id="a_node11"><a xlink:title="0x44c127 to 0x44c140">
<ellipse fill="none" stroke="black" cx="239.594" cy="-594" rx="38.1938" ry="18"/>
<text text-anchor="middle" x="239.594" y="-590.3" font-family="Times,serif" font-size="14.00">Node10</text>
</a>
</g>
</g>
<!-- Node8&#45;&gt;Node10 -->
<g id="edge13" class="edge"><title>Node8&#45;&gt;Node10</title>
<path fill="none" stroke="black" d="M301.84,-650.155C290.991,-640.542 276.67,-627.852 264.499,-617.068"/>
<polygon fill="black" stroke="black" points="266.676,-614.32 256.87,-610.308 262.033,-619.559 266.676,-614.32"/>
</g>
<!-- Node9&#45;&gt;Node1 -->
<g id="edge14" class="edge"><title>Node9&#45;&gt;Node1</title>
<path fill="none" stroke="black" d="M357.892,-576.422C370.132,-550.393 391.594,-498.047 391.594,-451 391.594,-451 391.594,-451 391.594,-161 391.594,-119.406 376.191,-73.217 364.999,-45.1433"/>
<polygon fill="black" stroke="black" points="368.141,-43.5807 361.102,-35.662 361.666,-46.2418 368.141,-43.5807"/>
</g>
<!-- Node11 -->
<g id="node12" class="node"><title>Node11</title>
<g id="a_node12"><a xlink:title="0x44c356 to 0x44c37a">
<ellipse fill="none" stroke="black" cx="125.594" cy="-522" rx="38.1938" ry="18"/>
<text text-anchor="middle" x="125.594" y="-518.3" font-family="Times,serif" font-size="14.00">Node11</text>
</a>
</g>
</g>
<!-- Node10&#45;&gt;Node11 -->
<g id="edge15" class="edge"><title>Node10&#45;&gt;Node11</title>
<path fill="none" stroke="black" d="M217.343,-579.337C200.114,-568.758 176.036,-553.973 156.869,-542.204"/>
<polygon fill="black" stroke="black" points="158.532,-539.118 148.179,-536.868 154.869,-545.083 158.532,-539.118"/>
</g>
<!-- Node12 -->
<g id="node13" class="node"><title>Node12</title>
<g id="a_node13"><a xlink:title="0x44c146 to 0x44c15f">
<ellipse fill="none" stroke="black" cx="239.594" cy="-522" rx="38.1938" ry="18"/>
<text text-anchor="middle" x="239.594" y="-518.3" font-family="Times,serif" font-size="14.00">Node12</text>
</a>
</g>
</g>
<!-- Node10&#45;&gt;Node12 -->
<g id="edge16" class="edge"><title>Node10&#45;&gt;Node12</title>
<path fill="none" stroke="black" d="M239.594,-575.697C239.594,-567.983 239.594,-558.712 239.594,-550.112"/>
<polygon fill="black" stroke="black" points="243.094,-550.104 239.594,-540.104 236.094,-550.104 243.094,-550.104"/>
</g>
<!-- Node11&#45;&gt;Node3 -->
<g id="edge17" class="edge"><title>Node11&#45;&gt;Node3</title>
<path fill="none" stroke="black" d="M118.668,-504.111C114.76,-493.844 110.158,-480.37 107.594,-468 92.4065,-394.728 89.2401,-306.14 88.6572,-262.304"/>
<polygon fill="black" stroke="black" points="92.1557,-262.126 88.5589,-252.16 85.156,-262.194 92.1557,-262.126"/>
</g>
<!-- Node13 -->
<g id="node14" class="node"><title>Node13</title>
<g id="a_node14"><a xlink:title="0x44c34c to 0x44c37a">
<ellipse fill="none" stroke="black" cx="154.594" cy="-450" rx="38.1938" ry="18"/>
<text text-anchor="middle" x="154.594" y="-446.3" font-family="Times,serif" font-size="14.00">Node13</text>
</a>
</g>
</g>
<!-- Node12&#45;&gt;Node13 -->
<g id="edge18" class="edge"><title>Node12&#45;&gt;Node13</title>
<path fill="none" stroke="black" d="M221.15,-505.811C209.263,-496.021 193.631,-483.148 180.504,-472.337"/>
<polygon fill="black" stroke="black" points="182.654,-469.574 172.71,-465.919 178.204,-474.978 182.654,-469.574"/>
</g>
<!-- Node14 -->
<g id="node15" class="node"><title>Node14</title>
<g id="a_node15"><a xlink:title="0x44c165 to 0x44c17e">
<ellipse fill="none" stroke="black" cx="249.594" cy="-450" rx="38.1938" ry="18"/>
<text text-anchor="middle" x="249.594" y="-446.3" font-family="Times,serif" font-size="14.00">Node14</text>
</a>
</g>
</g>
<!-- Node12&#45;&gt;Node14 -->
<g id="edge19" class="edge"><title>Node12&#45;&gt;Node14</title>
<path fill="none" stroke="black" d="M242.066,-503.697C243.168,-495.983 244.492,-486.712 245.721,-478.112"/>
<polygon fill="black" stroke="black" points="249.201,-478.499 247.151,-468.104 242.272,-477.509 249.201,-478.499"/>
</g>
<!-- Node13&#45;&gt;Node3 -->
<g id="edge20" class="edge"><title>Node13&#45;&gt;Node3</title>
<path fill="none" stroke="black" d="M149.305,-431.849C137.836,-394.662 110.607,-306.374 96.8508,-261.772"/>
<polygon fill="black" stroke="black" points="100.109,-260.46 93.8172,-251.935 93.4199,-262.523 100.109,-260.46"/>
</g>
<!-- Node15 -->
<g id="node16" class="node"><title>Node15</title>
<g id="a_node16"><a xlink:title="0x44c392 to 0x44c3e2">
<ellipse fill="none" stroke="black" cx="325.594" cy="-378" rx="38.1938" ry="18"/>
<text text-anchor="middle" x="325.594" y="-374.3" font-family="Times,serif" font-size="14.00">Node15</text>
</a>
</g>
</g>
<!-- Node14&#45;&gt;Node15 -->
<g id="edge21" class="edge"><title>Node14&#45;&gt;Node15</title>
<path fill="none" stroke="black" d="M266.461,-433.465C276.765,-423.974 290.109,-411.684 301.512,-401.181"/>
<polygon fill="black" stroke="black" points="304.052,-403.6 309.036,-394.251 299.309,-398.451 304.052,-403.6"/>
</g>
<!-- Node16 -->
<g id="node17" class="node"><title>Node16</title>
<g id="a_node17"><a xlink:title="0x44c184 to 0x44c19b">
<ellipse fill="none" stroke="black" cx="230.594" cy="-378" rx="38.1938" ry="18"/>
<text text-anchor="middle" x="230.594" y="-374.3" font-family="Times,serif" font-size="14.00">Node16</text>
</a>
</g>
</g>
<!-- Node14&#45;&gt;Node16 -->
<g id="edge22" class="edge"><title>Node14&#45;&gt;Node16</title>
<path fill="none" stroke="black" d="M244.995,-432.055C242.879,-424.261 240.317,-414.822 237.944,-406.079"/>
<polygon fill="black" stroke="black" points="241.281,-405.009 235.283,-396.275 234.525,-406.843 241.281,-405.009"/>
</g>
<!-- Node15&#45;&gt;Node1 -->
<g id="edge23" class="edge"><title>Node15&#45;&gt;Node1</title>
<path fill="none" stroke="black" d="M331.126,-360.163C339.286,-333.787 353.594,-280.983 353.594,-235 353.594,-235 353.594,-235 353.594,-161 353.594,-120.996 353.594,-74.6528 353.594,-46.0798"/>
<polygon fill="black" stroke="black" points="357.094,-46.0492 353.594,-36.0493 350.094,-46.0493 357.094,-46.0492"/>
</g>
<!-- Node17 -->
<g id="node18" class="node"><title>Node17</title>
<g id="a_node18"><a xlink:title="0x44c338 to 0x44c37a">
<ellipse fill="none" stroke="black" cx="192.594" cy="-306" rx="38.1938" ry="18"/>
<text text-anchor="middle" x="192.594" y="-302.3" font-family="Times,serif" font-size="14.00">Node17</text>
</a>
</g>
</g>
<!-- Node16&#45;&gt;Node17 -->
<g id="edge24" class="edge"><title>Node16&#45;&gt;Node17</title>
<path fill="none" stroke="black" d="M221.589,-360.411C217.111,-352.163 211.599,-342.009 206.587,-332.777"/>
<polygon fill="black" stroke="black" points="209.646,-331.075 201.799,-323.956 203.494,-334.415 209.646,-331.075"/>
</g>
<!-- Node18 -->
<g id="node19" class="node"><title>Node18</title>
<g id="a_node19"><a xlink:title="0x44c1a1 to 0x44c1b3">
<ellipse fill="none" stroke="black" cx="287.594" cy="-306" rx="38.1938" ry="18"/>
<text text-anchor="middle" x="287.594" y="-302.3" font-family="Times,serif" font-size="14.00">Node18</text>
</a>
</g>
</g>
<!-- Node16&#45;&gt;Node18 -->
<g id="edge25" class="edge"><title>Node16&#45;&gt;Node18</title>
<path fill="none" stroke="black" d="M243.814,-360.765C251.008,-351.93 260.047,-340.83 268.04,-331.014"/>
<polygon fill="black" stroke="black" points="270.845,-333.112 274.446,-323.147 265.417,-328.692 270.845,-333.112"/>
</g>
<!-- Node17&#45;&gt;Node3 -->
<g id="edge26" class="edge"><title>Node17&#45;&gt;Node3</title>
<path fill="none" stroke="black" d="M171.548,-290.834C155.981,-280.356 134.594,-265.962 117.435,-254.412"/>
<polygon fill="black" stroke="black" points="119.151,-251.348 108.901,-248.668 115.243,-257.155 119.151,-251.348"/>
</g>
<!-- Node19 -->
<g id="node20" class="node"><title>Node19</title>
<g id="a_node20"><a xlink:title="0x44c380 to 0x44c3e2">
<ellipse fill="none" stroke="black" cx="287.594" cy="-162" rx="38.1938" ry="18"/>
<text text-anchor="middle" x="287.594" y="-158.3" font-family="Times,serif" font-size="14.00">Node19</text>
</a>
</g>
</g>
<!-- Node18&#45;&gt;Node19 -->
<g id="edge27" class="edge"><title>Node18&#45;&gt;Node19</title>
<path fill="none" stroke="black" d="M287.594,-287.871C287.594,-263.67 287.594,-219.211 287.594,-190.393"/>
<polygon fill="black" stroke="black" points="291.094,-190.189 287.594,-180.189 284.094,-190.189 291.094,-190.189"/>
</g>
<!-- Node20 -->
<g id="node21" class="node"><title>Node20</title>
<g id="a_node21"><a xlink:title="0x44c1b9 to 0x44c1c8">
<ellipse fill="none" stroke="black" cx="221.594" cy="-234" rx="38.1938" ry="18"/>
<text text-anchor="middle" x="221.594" y="-230.3" font-family="Times,serif" font-size="14.00">Node20</text>
</a>
</g>
</g>
<!-- Node18&#45;&gt;Node20 -->
<g id="edge28" class="edge"><title>Node18&#45;&gt;Node20</title>
<path fill="none" stroke="black" d="M272.618,-289.116C264.01,-279.987 253.043,-268.355 243.484,-258.217"/>
<polygon fill="black" stroke="black" points="245.918,-255.696 236.511,-250.821 240.825,-260.498 245.918,-255.696"/>
</g>
<!-- Node19&#45;&gt;Node1 -->
<g id="edge29" class="edge"><title>Node19&#45;&gt;Node1</title>
<path fill="none" stroke="black" d="M295.424,-144.153C306.837,-119.6 328.136,-73.7727 341.552,-44.9083"/>
<polygon fill="black" stroke="black" points="344.733,-46.3685 345.774,-35.825 338.385,-43.4181 344.733,-46.3685"/>
</g>
<!-- Node21 -->
<g id="node22" class="node"><title>Node21</title>
<g id="a_node22"><a xlink:title="0x44c3f8 to 0x44c465">
<ellipse fill="none" stroke="black" cx="249.594" cy="-90" rx="38.1938" ry="18"/>
<text text-anchor="middle" x="249.594" y="-86.3" font-family="Times,serif" font-size="14.00">Node21</text>
</a>
</g>
</g>
<!-- Node20&#45;&gt;Node21 -->
<g id="edge30" class="edge"><title>Node20&#45;&gt;Node21</title>
<path fill="none" stroke="black" d="M224.972,-215.871C229.765,-191.564 238.588,-146.819 244.268,-118.013"/>
<polygon fill="black" stroke="black" points="247.704,-118.677 246.205,-108.189 240.836,-117.323 247.704,-118.677"/>
</g>
<!-- Node22 -->
<g id="node23" class="node"><title>Node22</title>
<g id="a_node23"><a xlink:title="0x44c1ce to 0x44c1e7">
<ellipse fill="none" stroke="black" cx="154.594" cy="-162" rx="38.1938" ry="18"/>
<text text-anchor="middle" x="154.594" y="-158.3" font-family="Times,serif" font-size="14.00">Node22</text>
</a>
</g>
</g>
<!-- Node20&#45;&gt;Node22 -->
<g id="edge31" class="edge"><title>Node20&#45;&gt;Node22</title>
<path fill="none" stroke="black" d="M206.391,-217.116C197.653,-207.987 186.52,-196.355 176.816,-186.217"/>
<polygon fill="black" stroke="black" points="179.18,-183.625 169.737,-178.821 174.123,-188.466 179.18,-183.625"/>
</g>
<!-- Node21&#45;&gt;Node1 -->
<g id="edge32" class="edge"><title>Node21&#45;&gt;Node1</title>
<path fill="none" stroke="black" d="M270.64,-74.8345C286.207,-64.3564 307.594,-49.9615 324.753,-38.4123"/>
<polygon fill="black" stroke="black" points="326.946,-41.1555 333.287,-32.6681 323.037,-35.3483 326.946,-41.1555"/>
</g>
<!-- Node23 -->
<g id="node24" class="node"><title>Node23</title>
<g id="a_node24"><a xlink:title="0x44c3f0 to 0x44c465">
<ellipse fill="none" stroke="black" cx="59.5942" cy="-90" rx="38.1938" ry="18"/>
<text text-anchor="middle" x="59.5942" y="-86.3" font-family="Times,serif" font-size="14.00">Node23</text>
</a>
</g>
</g>
<!-- Node22&#45;&gt;Node23 -->
<g id="edge33" class="edge"><title>Node22&#45;&gt;Node23</title>
<path fill="none" stroke="black" d="M134.91,-146.496C121.153,-136.359 102.59,-122.681 87.3358,-111.441"/>
<polygon fill="black" stroke="black" points="89.3798,-108.6 79.253,-105.485 85.2274,-114.235 89.3798,-108.6"/>
</g>
<!-- Node24 -->
<g id="node25" class="node"><title>Node24</title>
<g id="a_node25"><a xlink:title="0x44c1ed to 0x44c2fa">
<ellipse fill="none" stroke="black" cx="154.594" cy="-90" rx="38.1938" ry="18"/>
<text text-anchor="middle" x="154.594" y="-86.3" font-family="Times,serif" font-size="14.00">Node24</text>
</a>
</g>
</g>
<!-- Node22&#45;&gt;Node24 -->
<g id="edge34" class="edge"><title>Node22&#45;&gt;Node24</title>
<path fill="none" stroke="black" d="M154.594,-143.697C154.594,-135.983 154.594,-126.712 154.594,-118.112"/>
<polygon fill="black" stroke="black" points="158.094,-118.104 154.594,-108.104 151.094,-118.104 158.094,-118.104"/>
</g>
<!-- Node23&#45;&gt;Node1 -->
<g id="edge35" class="edge"><title>Node23&#45;&gt;Node1</title>
<path fill="none" stroke="black" d="M88.5927,-78.0575C94.8144,-75.8993 101.385,-73.7605 107.594,-72 178.227,-51.9726 262.131,-35.4005 311.446,-26.3773"/>
<polygon fill="black" stroke="black" points="312.212,-29.7956 321.428,-24.5679 310.964,-22.9079 312.212,-29.7956"/>
</g>
</g>
</svg>
