<?xml version="1.0" encoding="UTF-8" standalone="no"?>
<!DOCTYPE svg PUBLIC "-//W3C//DTD SVG 1.1//EN"
 "http://www.w3.org/Graphics/SVG/1.1/DTD/svg11.dtd">
<!-- Generated by graphviz version 2.38.0 (20140413.2041)
 -->
<!-- Title: G Pages: 1 -->
<svg width="251pt" height="332pt"
 viewBox="0.00 0.00 250.89 332.00" xmlns="http://www.w3.org/2000/svg" xmlns:xlink="http://www.w3.org/1999/xlink">
<g id="graph0" class="graph" transform="scale(1 1) rotate(0) translate(4 328)">
<title>G</title>
<polygon fill="white" stroke="none" points="-4,4 -4,-328 246.894,-328 246.894,4 -4,4"/>
<!-- Node0 -->
<g id="node1" class="node"><title>Node0</title>
<g id="a_node1"><a xlink:title="0x44b100 to 0x44b126">
<ellipse fill="none" stroke="black" cx="89.4469" cy="-306" rx="34.394" ry="18"/>
<text text-anchor="middle" x="89.4469" y="-302.3" font-family="Times,serif" font-size="14.00">Node0</text>
</a>
</g>
</g>
<!-- Node1 -->
<g id="node2" class="node"><title>Node1</title>
<g id="a_node2"><a xlink:title="0x44b1b0 to 0x44b1c0">
<ellipse fill="none" stroke="black" cx="34.4469" cy="-162" rx="34.394" ry="18"/>
<text text-anchor="middle" x="34.4469" y="-158.3" font-family="Times,serif" font-size="14.00">Node1</text>
</a>
</g>
</g>
<!-- Node0&#45;&gt;Node1 -->
<g id="edge1" class="edge"><title>Node0&#45;&gt;Node1</title>
<path fill="none" stroke="black" d="M82.9217,-288.153C73.4529,-263.706 55.8159,-218.171 44.628,-189.286"/>
<polygon fill="black" stroke="black" points="47.8392,-187.886 40.9637,-179.825 41.3118,-190.414 47.8392,-187.886"/>
</g>
<!-- Node4 -->
<g id="node3" class="node"><title>Node4</title>
<g id="a_node3"><a xlink:title="0x44b15c to 0x44b18f">
<ellipse fill="none" stroke="black" cx="121.447" cy="-234" rx="34.394" ry="18"/>
<text text-anchor="middle" x="121.447" y="-230.3" font-family="Times,serif" font-size="14.00">Node4</text>
</a>
</g>
</g>
<!-- Node0&#45;&gt;Node4 -->
<g id="edge2" class="edge"><title>Node0&#45;&gt;Node4</title>
<path fill="none" stroke="black" d="M97.0305,-288.411C100.762,-280.249 105.346,-270.22 109.531,-261.065"/>
<polygon fill="black" stroke="black" points="112.721,-262.506 113.696,-251.956 106.355,-259.596 112.721,-262.506"/>
</g>
<!-- Node2 -->
<g id="node4" class="node"><title>Node2</title>
<g id="a_node4"><a xlink:title="0x44b1c2 to 0x44b1d0">
<ellipse fill="none" stroke="black" cx="96.4469" cy="-90" rx="34.394" ry="18"/>
<text text-anchor="middle" x="96.4469" y="-86.3" font-family="Times,serif" font-size="14.00">Node2</text>
</a>
</g>
</g>
<!-- Node1&#45;&gt;Node2 -->
<g id="edge3" class="edge"><title>Node1&#45;&gt;Node2</title>
<path fill="none" stroke="black" d="M48.2068,-145.465C56.2013,-136.439 66.4389,-124.88 75.4246,-114.735"/>
<polygon fill="black" stroke="black" points="78.2854,-116.784 82.2958,-106.977 73.0453,-112.142 78.2854,-116.784"/>
</g>
<!-- Node3 -->
<g id="node5" class="node"><title>Node3</title>
<g id="a_node5"><a xlink:title="0x44b12c to 0x44b140">
<ellipse fill="none" stroke="black" cx="183.447" cy="-90" rx="34.394" ry="18"/>
<text text-anchor="middle" x="183.447" y="-86.3" font-family="Times,serif" font-size="14.00">Node3</text>
</a>
</g>
</g>
<!-- Node1&#45;&gt;Node3 -->
<g id="edge4" class="edge"><title>Node1&#45;&gt;Node3</title>
<path fill="none" stroke="black" d="M59.3862,-149.284C83.9899,-137.725 121.792,-119.965 149.203,-107.088"/>
<polygon fill="black" stroke="black" points="150.864,-110.175 158.426,-102.755 147.887,-103.839 150.864,-110.175"/>
</g>
<!-- Node6 -->
<g id="node7" class="node"><title>Node6</title>
<g id="a_node7"><a xlink:title="0x44b191 to 0x44b1aa">
<ellipse fill="none" stroke="black" cx="121.447" cy="-162" rx="34.394" ry="18"/>
<text text-anchor="middle" x="121.447" y="-158.3" font-family="Times,serif" font-size="14.00">Node6</text>
</a>
</g>
</g>
<!-- Node4&#45;&gt;Node6 -->
<g id="edge6" class="edge"><title>Node4&#45;&gt;Node6</title>
<path fill="none" stroke="black" d="M121.447,-215.697C121.447,-207.983 121.447,-198.712 121.447,-190.112"/>
<polygon fill="black" stroke="black" points="124.947,-190.104 121.447,-180.104 117.947,-190.104 124.947,-190.104"/>
</g>
<!-- Node7 -->
<g id="node8" class="node"><title>Node7</title>
<g id="a_node8"><a xlink:title="0x44b1b2 to 0x44b1c0">
<ellipse fill="none" stroke="black" cx="208.447" cy="-162" rx="34.394" ry="18"/>
<text text-anchor="middle" x="208.447" y="-158.3" font-family="Times,serif" font-size="14.00">Node7</text>
</a>
</g>
</g>
<!-- Node4&#45;&gt;Node7 -->
<g id="edge7" class="edge"><title>Node4&#45;&gt;Node7</title>
<path fill="none" stroke="black" d="M139.473,-218.496C151.838,-208.547 168.443,-195.187 182.262,-184.068"/>
<polygon fill="black" stroke="black" points="184.846,-186.481 190.444,-177.485 180.458,-181.027 184.846,-186.481"/>
</g>
<!-- Node5 -->
<g id="node6" class="node"><title>Node5</title>
<g id="a_node6"><a xlink:title="0x44b148 to 0x44b15a">
<ellipse fill="none" stroke="black" cx="108.447" cy="-18" rx="34.394" ry="18"/>
<text text-anchor="middle" x="108.447" y="-14.3" font-family="Times,serif" font-size="14.00">Node5</text>
</a>
</g>
</g>
<!-- Node3&#45;&gt;Node5 -->
<g id="edge5" class="edge"><title>Node3&#45;&gt;Node5</title>
<path fill="none" stroke="black" d="M167.173,-73.811C156.952,-64.2712 143.594,-51.8035 132.2,-41.1697"/>
<polygon fill="black" stroke="black" points="134.388,-38.4238 124.689,-34.1593 129.612,-43.5412 134.388,-38.4238"/>
</g>
<!-- Node5&#45;&gt;Node1 -->
<g id="edge8" class="edge"><title>Node5&#45;&gt;Node1</title>
<path fill="none" stroke="black" d="M88.7589,-33.055C76.7415,-42.674 62.0767,-56.4672 53.4469,-72 42.8633,-91.0497 38.1687,-115.408 36.0897,-133.824"/>
<polygon fill="black" stroke="black" points="32.5943,-133.612 35.1431,-143.896 39.5636,-134.267 32.5943,-133.612"/>
</g>
<!-- Node5&#45;&gt;Node5 -->
<g id="edge9" class="edge"><title>Node5&#45;&gt;Node5</title>
<path fill="none" stroke="black" d="M132.996,-30.7082C147.406,-33.4157 160.894,-29.1797 160.894,-18 160.894,-9.52789 153.148,-5.04337 143.125,-4.54645"/>
<polygon fill="black" stroke="black" points="142.712,-1.06727 132.996,-5.29184 143.226,-8.04839 142.712,-1.06727"/>
</g>
<!-- Node7&#45;&gt;Node2 -->
<g id="edge10" class="edge"><title>Node7&#45;&gt;Node2</title>
<path fill="none" stroke="black" d="M187.117,-147.669C169.913,-136.916 145.511,-121.665 126.355,-109.692"/>
<polygon fill="black" stroke="black" points="128.033,-106.614 117.697,-104.282 124.322,-112.55 128.033,-106.614"/>
</g>
<!-- Node7&#45;&gt;Node3 -->
<g id="edge11" class="edge"><title>Node7&#45;&gt;Node3</title>
<path fill="none" stroke="black" d="M202.395,-144.055C199.539,-136.059 196.065,-126.331 192.875,-117.4"/>
<polygon fill="black" stroke="black" points="196.103,-116.029 189.443,-107.789 189.51,-118.384 196.103,-116.029"/>
</g>
</g>
</svg>
