<?xml version="1.0" encoding="UTF-8" standalone="no"?>
<!DOCTYPE svg PUBLIC "-//W3C//DTD SVG 1.1//EN"
 "http://www.w3.org/Graphics/SVG/1.1/DTD/svg11.dtd">
<!-- Generated by graphviz version 2.38.0 (20140413.2041)
 -->
<!-- Title: G Pages: 1 -->
<svg width="375pt" height="548pt"
 viewBox="0.00 0.00 374.79 548.00" xmlns="http://www.w3.org/2000/svg" xmlns:xlink="http://www.w3.org/1999/xlink">
<g id="graph0" class="graph" transform="scale(1 1) rotate(0) translate(4 544)">
<title>G</title>
<polygon fill="white" stroke="none" points="-4,4 -4,-544 370.794,-544 370.794,4 -4,4"/>
<!-- Node0 -->
<g id="node1" class="node"><title>Node0</title>
<g id="a_node1"><a xlink:title="0x44ba50 to 0x44ba8b">
<ellipse fill="none" stroke="black" cx="34.4469" cy="-522" rx="34.394" ry="18"/>
<text text-anchor="middle" x="34.4469" y="-518.3" font-family="Times,serif" font-size="14.00">Node0</text>
</a>
</g>
</g>
<!-- Node1 -->
<g id="node2" class="node"><title>Node1</title>
<g id="a_node2"><a xlink:title="0x44bb6f to 0x44bb81">
<ellipse fill="none" stroke="black" cx="110.447" cy="-18" rx="34.394" ry="18"/>
<text text-anchor="middle" x="110.447" y="-14.3" font-family="Times,serif" font-size="14.00">Node1</text>
</a>
</g>
</g>
<!-- Node0&#45;&gt;Node1 -->
<g id="edge1" class="edge"><title>Node0&#45;&gt;Node1</title>
<path fill="none" stroke="black" d="M28.3223,-504.21C19.288,-477.898 3.44694,-425.177 3.44694,-379 3.44694,-379 3.44694,-379 3.44694,-161 3.44694,-108.72 50.28,-63.4629 81.9782,-38.8187"/>
<polygon fill="black" stroke="black" points="84.1935,-41.5318 90.0692,-32.7155 79.978,-35.9434 84.1935,-41.5318"/>
</g>
<!-- Node2 -->
<g id="node3" class="node"><title>Node2</title>
<g id="a_node3"><a xlink:title="0x44ba91 to 0x44bab1">
<ellipse fill="none" stroke="black" cx="65.4469" cy="-450" rx="34.394" ry="18"/>
<text text-anchor="middle" x="65.4469" y="-446.3" font-family="Times,serif" font-size="14.00">Node2</text>
</a>
</g>
</g>
<!-- Node0&#45;&gt;Node2 -->
<g id="edge2" class="edge"><title>Node0&#45;&gt;Node2</title>
<path fill="none" stroke="black" d="M41.7935,-504.411C45.3699,-496.335 49.756,-486.431 53.7756,-477.355"/>
<polygon fill="black" stroke="black" points="57.0887,-478.517 57.9378,-467.956 50.6882,-475.682 57.0887,-478.517"/>
</g>
<!-- Node3 -->
<g id="node4" class="node"><title>Node3</title>
<g id="a_node4"><a xlink:title="0x44bbb2 to 0x44bbc3">
<ellipse fill="none" stroke="black" cx="65.4469" cy="-378" rx="34.394" ry="18"/>
<text text-anchor="middle" x="65.4469" y="-374.3" font-family="Times,serif" font-size="14.00">Node3</text>
</a>
</g>
</g>
<!-- Node2&#45;&gt;Node3 -->
<g id="edge3" class="edge"><title>Node2&#45;&gt;Node3</title>
<path fill="none" stroke="black" d="M65.4469,-431.697C65.4469,-423.983 65.4469,-414.712 65.4469,-406.112"/>
<polygon fill="black" stroke="black" points="68.947,-406.104 65.4469,-396.104 61.947,-406.104 68.947,-406.104"/>
</g>
<!-- Node4 -->
<g id="node5" class="node"><title>Node4</title>
<g id="a_node5"><a xlink:title="0x44bab7 to 0x44bacd">
<ellipse fill="none" stroke="black" cx="152.447" cy="-378" rx="34.394" ry="18"/>
<text text-anchor="middle" x="152.447" y="-374.3" font-family="Times,serif" font-size="14.00">Node4</text>
</a>
</g>
</g>
<!-- Node2&#45;&gt;Node4 -->
<g id="edge4" class="edge"><title>Node2&#45;&gt;Node4</title>
<path fill="none" stroke="black" d="M83.4734,-434.496C95.8384,-424.547 112.443,-411.187 126.262,-400.068"/>
<polygon fill="black" stroke="black" points="128.846,-402.481 134.444,-393.485 124.458,-397.027 128.846,-402.481"/>
</g>
<!-- Node3&#45;&gt;Node1 -->
<g id="edge5" class="edge"><title>Node3&#45;&gt;Node1</title>
<path fill="none" stroke="black" d="M63.0761,-359.99C59.579,-333.383 53.4469,-280.275 53.4469,-235 53.4469,-235 53.4469,-235 53.4469,-161 53.4469,-117.324 76.958,-71.1775 93.7806,-43.7493"/>
<polygon fill="black" stroke="black" points="96.8024,-45.5191 99.1856,-35.1957 90.8849,-41.7797 96.8024,-45.5191"/>
</g>
<!-- Node5 -->
<g id="node6" class="node"><title>Node5</title>
<g id="a_node6"><a xlink:title="0x44bbaa to 0x44bbc3">
<ellipse fill="none" stroke="black" cx="115.447" cy="-306" rx="34.394" ry="18"/>
<text text-anchor="middle" x="115.447" y="-302.3" font-family="Times,serif" font-size="14.00">Node5</text>
</a>
</g>
</g>
<!-- Node4&#45;&gt;Node5 -->
<g id="edge6" class="edge"><title>Node4&#45;&gt;Node5</title>
<path fill="none" stroke="black" d="M143.678,-360.411C139.255,-352.042 133.794,-341.71 128.857,-332.37"/>
<polygon fill="black" stroke="black" points="131.92,-330.675 124.152,-323.47 125.731,-333.947 131.92,-330.675"/>
</g>
<!-- Node6 -->
<g id="node7" class="node"><title>Node6</title>
<g id="a_node7"><a xlink:title="0x44bad3 to 0x44bae2">
<ellipse fill="none" stroke="black" cx="202.447" cy="-306" rx="34.394" ry="18"/>
<text text-anchor="middle" x="202.447" y="-302.3" font-family="Times,serif" font-size="14.00">Node6</text>
</a>
</g>
</g>
<!-- Node4&#45;&gt;Node6 -->
<g id="edge7" class="edge"><title>Node4&#45;&gt;Node6</title>
<path fill="none" stroke="black" d="M164.044,-360.765C170.291,-352.018 178.124,-341.052 185.084,-331.308"/>
<polygon fill="black" stroke="black" points="187.949,-333.319 190.913,-323.147 182.253,-329.25 187.949,-333.319"/>
</g>
<!-- Node5&#45;&gt;Node1 -->
<g id="edge8" class="edge"><title>Node5&#45;&gt;Node1</title>
<path fill="none" stroke="black" d="M113.416,-287.843C112.292,-277.481 111.012,-264.002 110.447,-252 106.949,-177.686 108.477,-89.893 109.615,-46.3426"/>
<polygon fill="black" stroke="black" points="113.116,-46.3514 109.893,-36.2588 106.119,-46.1587 113.116,-46.3514"/>
</g>
<!-- Node7 -->
<g id="node8" class="node"><title>Node7</title>
<g id="a_node8"><a xlink:title="0x44bba2 to 0x44bbc3">
<ellipse fill="none" stroke="black" cx="153.447" cy="-234" rx="34.394" ry="18"/>
<text text-anchor="middle" x="153.447" y="-230.3" font-family="Times,serif" font-size="14.00">Node7</text>
</a>
</g>
</g>
<!-- Node6&#45;&gt;Node7 -->
<g id="edge9" class="edge"><title>Node6&#45;&gt;Node7</title>
<path fill="none" stroke="black" d="M191.082,-288.765C185.021,-280.106 177.438,-269.273 170.67,-259.604"/>
<polygon fill="black" stroke="black" points="173.352,-257.333 164.75,-251.147 167.617,-261.347 173.352,-257.333"/>
</g>
<!-- Node8 -->
<g id="node9" class="node"><title>Node8</title>
<g id="a_node9"><a xlink:title="0x44bae8 to 0x44bb01">
<ellipse fill="none" stroke="black" cx="240.447" cy="-234" rx="34.394" ry="18"/>
<text text-anchor="middle" x="240.447" y="-230.3" font-family="Times,serif" font-size="14.00">Node8</text>
</a>
</g>
</g>
<!-- Node6&#45;&gt;Node8 -->
<g id="edge10" class="edge"><title>Node6&#45;&gt;Node8</title>
<path fill="none" stroke="black" d="M211.452,-288.411C215.996,-280.042 221.604,-269.71 226.675,-260.37"/>
<polygon fill="black" stroke="black" points="229.811,-261.928 231.506,-251.47 223.659,-258.589 229.811,-261.928"/>
</g>
<!-- Node7&#45;&gt;Node1 -->
<g id="edge11" class="edge"><title>Node7&#45;&gt;Node1</title>
<path fill="none" stroke="black" d="M150.001,-215.849C142.528,-178.662 124.789,-90.3744 115.826,-45.7715"/>
<polygon fill="black" stroke="black" points="119.251,-45.0499 113.85,-35.9354 112.388,-46.429 119.251,-45.0499"/>
</g>
<!-- Node9 -->
<g id="node10" class="node"><title>Node9</title>
<g id="a_node10"><a xlink:title="0x44bb9a to 0x44bbc3">
<ellipse fill="none" stroke="black" cx="191.447" cy="-162" rx="34.394" ry="18"/>
<text text-anchor="middle" x="191.447" y="-158.3" font-family="Times,serif" font-size="14.00">Node9</text>
</a>
</g>
</g>
<!-- Node8&#45;&gt;Node9 -->
<g id="edge12" class="edge"><title>Node8&#45;&gt;Node9</title>
<path fill="none" stroke="black" d="M229.082,-216.765C223.021,-208.106 215.438,-197.273 208.67,-187.604"/>
<polygon fill="black" stroke="black" points="211.352,-185.333 202.75,-179.147 205.617,-189.347 211.352,-185.333"/>
</g>
<!-- Node10 -->
<g id="node11" class="node"><title>Node10</title>
<g id="a_node11"><a xlink:title="0x44bb07 to 0x44bb2d">
<ellipse fill="none" stroke="black" cx="282.447" cy="-162" rx="38.1938" ry="18"/>
<text text-anchor="middle" x="282.447" y="-158.3" font-family="Times,serif" font-size="14.00">Node10</text>
</a>
</g>
</g>
<!-- Node8&#45;&gt;Node10 -->
<g id="edge13" class="edge"><title>Node8&#45;&gt;Node10</title>
<path fill="none" stroke="black" d="M250.4,-216.411C255.474,-207.955 261.75,-197.494 267.4,-188.078"/>
<polygon fill="black" stroke="black" points="270.421,-189.846 272.565,-179.47 264.419,-186.244 270.421,-189.846"/>
</g>
<!-- Node9&#45;&gt;Node1 -->
<g id="edge14" class="edge"><title>Node9&#45;&gt;Node1</title>
<path fill="none" stroke="black" d="M182.903,-144.427C173.531,-126.424 157.896,-96.9024 143.447,-72 138.118,-62.8151 132.034,-52.8982 126.555,-44.1547"/>
<polygon fill="black" stroke="black" points="129.418,-42.1343 121.12,-35.5477 123.5,-45.8718 129.418,-42.1343"/>
</g>
<!-- Node11 -->
<g id="node12" class="node"><title>Node11</title>
<g id="a_node12"><a xlink:title="0x44bb88 to 0x44bbc3">
<ellipse fill="none" stroke="black" cx="233.447" cy="-90" rx="38.1938" ry="18"/>
<text text-anchor="middle" x="233.447" y="-86.3" font-family="Times,serif" font-size="14.00">Node11</text>
</a>
</g>
</g>
<!-- Node10&#45;&gt;Node11 -->
<g id="edge15" class="edge"><title>Node10&#45;&gt;Node11</title>
<path fill="none" stroke="black" d="M271.082,-144.765C265.108,-136.23 257.654,-125.582 250.96,-116.019"/>
<polygon fill="black" stroke="black" points="253.692,-113.819 245.09,-107.633 247.958,-117.833 253.692,-113.819"/>
</g>
<!-- Node12 -->
<g id="node13" class="node"><title>Node12</title>
<g id="a_node13"><a xlink:title="0x44bb2f to 0x44bb81">
<ellipse fill="none" stroke="black" cx="328.447" cy="-90" rx="38.1938" ry="18"/>
<text text-anchor="middle" x="328.447" y="-86.3" font-family="Times,serif" font-size="14.00">Node12</text>
</a>
</g>
</g>
<!-- Node10&#45;&gt;Node12 -->
<g id="edge16" class="edge"><title>Node10&#45;&gt;Node12</title>
<path fill="none" stroke="black" d="M293.348,-144.411C298.905,-135.955 305.779,-125.494 311.967,-116.078"/>
<polygon fill="black" stroke="black" points="315.057,-117.749 317.624,-107.47 309.207,-113.905 315.057,-117.749"/>
</g>
<!-- Node11&#45;&gt;Node1 -->
<g id="edge17" class="edge"><title>Node11&#45;&gt;Node1</title>
<path fill="none" stroke="black" d="M210.022,-75.6688C190.714,-64.6805 163.151,-48.9945 141.918,-36.9103"/>
<polygon fill="black" stroke="black" points="143.377,-33.7135 132.954,-31.8092 139.914,-39.7973 143.377,-33.7135"/>
</g>
</g>
</svg>
