<?xml version="1.0" encoding="UTF-8" standalone="no"?>
<!DOCTYPE svg PUBLIC "-//W3C//DTD SVG 1.1//EN"
 "http://www.w3.org/Graphics/SVG/1.1/DTD/svg11.dtd">
<!-- Generated by graphviz version 2.38.0 (20140413.2041)
 -->
<!-- Title: G Pages: 1 -->
<svg width="217pt" height="476pt"
 viewBox="0.00 0.00 216.89 476.00" xmlns="http://www.w3.org/2000/svg" xmlns:xlink="http://www.w3.org/1999/xlink">
<g id="graph0" class="graph" transform="scale(1 1) rotate(0) translate(4 472)">
<title>G</title>
<polygon fill="white" stroke="none" points="-4,4 -4,-472 212.894,-472 212.894,4 -4,4"/>
<!-- Node0 -->
<g id="node1" class="node"><title>Node0</title>
<g id="a_node1"><a xlink:title="0x44bef0 to 0x44bf34">
<ellipse fill="none" stroke="black" cx="34.4469" cy="-450" rx="34.394" ry="18"/>
<text text-anchor="middle" x="34.4469" y="-446.3" font-family="Times,serif" font-size="14.00">Node0</text>
</a>
</g>
</g>
<!-- Node1 -->
<g id="node2" class="node"><title>Node1</title>
<g id="a_node2"><a xlink:title="0x44bffe to 0x44c00c">
<ellipse fill="none" stroke="black" cx="34.4469" cy="-18" rx="34.394" ry="18"/>
<text text-anchor="middle" x="34.4469" y="-14.3" font-family="Times,serif" font-size="14.00">Node1</text>
</a>
</g>
</g>
<!-- Node0&#45;&gt;Node1 -->
<g id="edge1" class="edge"><title>Node0&#45;&gt;Node1</title>
<path fill="none" stroke="black" d="M28.3223,-432.21C19.288,-405.898 3.44694,-353.177 3.44694,-307 3.44694,-307 3.44694,-307 3.44694,-161 3.44694,-119.873 16.0123,-73.5567 25.1433,-45.3284"/>
<polygon fill="black" stroke="black" points="28.4808,-46.3837 28.3223,-35.7901 21.8399,-44.1703 28.4808,-46.3837"/>
</g>
<!-- Node2 -->
<g id="node3" class="node"><title>Node2</title>
<g id="a_node3"><a xlink:title="0x44bf3a to 0x44bf45">
<ellipse fill="none" stroke="black" cx="65.4469" cy="-378" rx="34.394" ry="18"/>
<text text-anchor="middle" x="65.4469" y="-374.3" font-family="Times,serif" font-size="14.00">Node2</text>
</a>
</g>
</g>
<!-- Node0&#45;&gt;Node2 -->
<g id="edge2" class="edge"><title>Node0&#45;&gt;Node2</title>
<path fill="none" stroke="black" d="M41.7935,-432.411C45.3699,-424.335 49.756,-414.431 53.7756,-405.355"/>
<polygon fill="black" stroke="black" points="57.0887,-406.517 57.9378,-395.956 50.6882,-403.682 57.0887,-406.517"/>
</g>
<!-- Node3 -->
<g id="node4" class="node"><title>Node3</title>
<g id="a_node4"><a xlink:title="0x44bf63 to 0x44bf86">
<ellipse fill="none" stroke="black" cx="65.4469" cy="-306" rx="34.394" ry="18"/>
<text text-anchor="middle" x="65.4469" y="-302.3" font-family="Times,serif" font-size="14.00">Node3</text>
</a>
</g>
</g>
<!-- Node2&#45;&gt;Node3 -->
<g id="edge3" class="edge"><title>Node2&#45;&gt;Node3</title>
<path fill="none" stroke="black" d="M65.4469,-359.697C65.4469,-351.983 65.4469,-342.712 65.4469,-334.112"/>
<polygon fill="black" stroke="black" points="68.947,-334.104 65.4469,-324.104 61.947,-334.104 68.947,-334.104"/>
</g>
<!-- Node4 -->
<g id="node5" class="node"><title>Node4</title>
<g id="a_node5"><a xlink:title="0x44bf50 to 0x44bf5d">
<ellipse fill="none" stroke="black" cx="65.4469" cy="-90" rx="34.394" ry="18"/>
<text text-anchor="middle" x="65.4469" y="-86.3" font-family="Times,serif" font-size="14.00">Node4</text>
</a>
</g>
</g>
<!-- Node3&#45;&gt;Node4 -->
<g id="edge4" class="edge"><title>Node3&#45;&gt;Node4</title>
<path fill="none" stroke="black" d="M61.5694,-287.849C58.0248,-250.74 57.7607,-162.747 60.7771,-118.054"/>
<polygon fill="black" stroke="black" points="64.2779,-118.184 61.5901,-107.935 57.3004,-117.623 64.2779,-118.184"/>
</g>
<!-- Node5 -->
<g id="node6" class="node"><title>Node5</title>
<g id="a_node6"><a xlink:title="0x44bf88 to 0x44bf8d">
<ellipse fill="none" stroke="black" cx="136.447" cy="-234" rx="34.394" ry="18"/>
<text text-anchor="middle" x="136.447" y="-230.3" font-family="Times,serif" font-size="14.00">Node5</text>
</a>
</g>
</g>
<!-- Node3&#45;&gt;Node5 -->
<g id="edge5" class="edge"><title>Node3&#45;&gt;Node5</title>
<path fill="none" stroke="black" d="M80.8529,-289.811C90.436,-280.363 102.932,-268.043 113.649,-257.477"/>
<polygon fill="black" stroke="black" points="116.407,-259.672 121.071,-250.159 111.493,-254.688 116.407,-259.672"/>
</g>
<!-- Node4&#45;&gt;Node1 -->
<g id="edge6" class="edge"><title>Node4&#45;&gt;Node1</title>
<path fill="none" stroke="black" d="M58.1004,-72.411C54.5239,-64.3352 50.1379,-54.4312 46.1183,-45.3547"/>
<polygon fill="black" stroke="black" points="49.2057,-43.6825 41.9561,-35.9562 42.8052,-46.517 49.2057,-43.6825"/>
</g>
<!-- Node4&#45;&gt;Node3 -->
<g id="edge7" class="edge"><title>Node4&#45;&gt;Node3</title>
<path fill="none" stroke="black" d="M69.3038,-107.935C72.8611,-144.847 73.138,-232.825 70.1343,-277.685"/>
<polygon fill="black" stroke="black" points="66.6299,-277.603 69.3245,-287.849 73.6078,-278.159 66.6299,-277.603"/>
</g>
<!-- Node5&#45;&gt;Node4 -->
<g id="edge8" class="edge"><title>Node5&#45;&gt;Node4</title>
<path fill="none" stroke="black" d="M128.163,-216.433C115.938,-191.981 92.949,-146.004 78.4584,-117.023"/>
<polygon fill="black" stroke="black" points="81.5005,-115.281 73.8978,-107.902 75.2395,-118.411 81.5005,-115.281"/>
</g>
<!-- Node6 -->
<g id="node7" class="node"><title>Node6</title>
<g id="a_node7"><a xlink:title="0x44bf8f to 0x44bfe3">
<ellipse fill="none" stroke="black" cx="174.447" cy="-162" rx="34.394" ry="18"/>
<text text-anchor="middle" x="174.447" y="-158.3" font-family="Times,serif" font-size="14.00">Node6</text>
</a>
</g>
</g>
<!-- Node5&#45;&gt;Node6 -->
<g id="edge9" class="edge"><title>Node5&#45;&gt;Node6</title>
<path fill="none" stroke="black" d="M145.452,-216.411C149.996,-208.042 155.604,-197.71 160.675,-188.37"/>
<polygon fill="black" stroke="black" points="163.811,-189.928 165.506,-179.47 157.659,-186.589 163.811,-189.928"/>
</g>
<!-- Node6&#45;&gt;Node4 -->
<g id="edge10" class="edge"><title>Node6&#45;&gt;Node4</title>
<path fill="none" stroke="black" d="M153.431,-147.503C136.843,-136.851 113.5,-121.86 95.0259,-109.996"/>
<polygon fill="black" stroke="black" points="96.7043,-106.914 86.3987,-104.455 92.9217,-112.804 96.7043,-106.914"/>
</g>
<!-- Node7 -->
<g id="node8" class="node"><title>Node7</title>
<g id="a_node8"><a xlink:title="0x44bfe9 to 0x44c00c">
<ellipse fill="none" stroke="black" cx="174.447" cy="-90" rx="34.394" ry="18"/>
<text text-anchor="middle" x="174.447" y="-86.3" font-family="Times,serif" font-size="14.00">Node7</text>
</a>
</g>
</g>
<!-- Node6&#45;&gt;Node7 -->
<g id="edge11" class="edge"><title>Node6&#45;&gt;Node7</title>
<path fill="none" stroke="black" d="M174.447,-143.697C174.447,-135.983 174.447,-126.712 174.447,-118.112"/>
<polygon fill="black" stroke="black" points="177.947,-118.104 174.447,-108.104 170.947,-118.104 177.947,-118.104"/>
</g>
</g>
</svg>
