<?xml version="1.0" encoding="UTF-8" standalone="no"?>
<!DOCTYPE svg PUBLIC "-//W3C//DTD SVG 1.1//EN"
 "http://www.w3.org/Graphics/SVG/1.1/DTD/svg11.dtd">
<!-- Generated by graphviz version 2.38.0 (20140413.2041)
 -->
<!-- Title: G Pages: 1 -->
<svg width="164pt" height="116pt"
 viewBox="0.00 0.00 163.89 116.00" xmlns="http://www.w3.org/2000/svg" xmlns:xlink="http://www.w3.org/1999/xlink">
<g id="graph0" class="graph" transform="scale(1 1) rotate(0) translate(4 112)">
<title>G</title>
<polygon fill="white" stroke="none" points="-4,4 -4,-112 159.894,-112 159.894,4 -4,4"/>
<!-- Node0 -->
<g id="node1" class="node"><title>Node0</title>
<g id="a_node1"><a xlink:title="0x400890 to 0x4008a9">
<ellipse fill="none" stroke="black" cx="77.4469" cy="-90" rx="34.394" ry="18"/>
<text text-anchor="middle" x="77.4469" y="-86.3" font-family="Times,serif" font-size="14.00">Node0</text>
</a>
</g>
</g>
<!-- Node1 -->
<g id="node2" class="node"><title>Node1</title>
<g id="a_node2"><a xlink:title="0x4008b3 to 0x4008b7">
<ellipse fill="none" stroke="black" cx="34.4469" cy="-18" rx="34.394" ry="18"/>
<text text-anchor="middle" x="34.4469" y="-14.3" font-family="Times,serif" font-size="14.00">Node1</text>
</a>
</g>
</g>
<!-- Node0&#45;&gt;Node1 -->
<g id="edge1" class="edge"><title>Node0&#45;&gt;Node1</title>
<path fill="none" stroke="black" d="M67.4738,-72.7646C62.2847,-64.3172 55.8237,-53.7993 49.9959,-44.3122"/>
<polygon fill="black" stroke="black" points="52.8811,-42.3222 44.6646,-35.6334 46.9166,-45.9862 52.8811,-42.3222"/>
</g>
<!-- Node2 -->
<g id="node3" class="node"><title>Node2</title>
<g id="a_node3"><a xlink:title="0x4008ab to 0x4008b7">
<ellipse fill="none" stroke="black" cx="121.447" cy="-18" rx="34.394" ry="18"/>
<text text-anchor="middle" x="121.447" y="-14.3" font-family="Times,serif" font-size="14.00">Node2</text>
</a>
</g>
</g>
<!-- Node0&#45;&gt;Node2 -->
<g id="edge2" class="edge"><title>Node0&#45;&gt;Node2</title>
<path fill="none" stroke="black" d="M87.652,-72.7646C92.9618,-64.3172 99.5731,-53.7993 105.536,-44.3122"/>
<polygon fill="black" stroke="black" points="108.633,-45.9624 110.992,-35.6334 102.707,-42.2372 108.633,-45.9624"/>
</g>
</g>
</svg>
