<?xml version="1.0" encoding="UTF-8" standalone="no"?>
<!DOCTYPE svg PUBLIC "-//W3C//DTD SVG 1.1//EN"
 "http://www.w3.org/Graphics/SVG/1.1/DTD/svg11.dtd">
<!-- Generated by graphviz version 2.38.0 (20140413.2041)
 -->
<!-- Title: G Pages: 1 -->
<svg width="204pt" height="260pt"
 viewBox="0.00 0.00 203.89 260.00" xmlns="http://www.w3.org/2000/svg" xmlns:xlink="http://www.w3.org/1999/xlink">
<g id="graph0" class="graph" transform="scale(1 1) rotate(0) translate(4 256)">
<title>G</title>
<polygon fill="white" stroke="none" points="-4,4 -4,-256 199.894,-256 199.894,4 -4,4"/>
<!-- Node0 -->
<g id="node1" class="node"><title>Node0</title>
<g id="a_node1"><a xlink:title="0x400910 to 0x40092e">
<ellipse fill="none" stroke="black" cx="77.4469" cy="-234" rx="34.394" ry="18"/>
<text text-anchor="middle" x="77.4469" y="-230.3" font-family="Times,serif" font-size="14.00">Node0</text>
</a>
</g>
</g>
<!-- Node1 -->
<g id="node2" class="node"><title>Node1</title>
<g id="a_node2"><a xlink:title="0x400968 to 0x40096d">
<ellipse fill="none" stroke="black" cx="34.4469" cy="-162" rx="34.394" ry="18"/>
<text text-anchor="middle" x="34.4469" y="-158.3" font-family="Times,serif" font-size="14.00">Node1</text>
</a>
</g>
</g>
<!-- Node0&#45;&gt;Node1 -->
<g id="edge1" class="edge"><title>Node0&#45;&gt;Node1</title>
<path fill="none" stroke="black" d="M67.4738,-216.765C62.2847,-208.317 55.8237,-197.799 49.9959,-188.312"/>
<polygon fill="black" stroke="black" points="52.8811,-186.322 44.6646,-179.633 46.9166,-189.986 52.8811,-186.322"/>
</g>
<!-- Node3 -->
<g id="node3" class="node"><title>Node3</title>
<g id="a_node3"><a xlink:title="0x400930 to 0x40094f">
<ellipse fill="none" stroke="black" cx="121.447" cy="-162" rx="34.394" ry="18"/>
<text text-anchor="middle" x="121.447" y="-158.3" font-family="Times,serif" font-size="14.00">Node3</text>
</a>
</g>
</g>
<!-- Node0&#45;&gt;Node3 -->
<g id="edge2" class="edge"><title>Node0&#45;&gt;Node3</title>
<path fill="none" stroke="black" d="M87.652,-216.765C92.9618,-208.317 99.5731,-197.799 105.536,-188.312"/>
<polygon fill="black" stroke="black" points="108.633,-189.962 110.992,-179.633 102.707,-186.237 108.633,-189.962"/>
</g>
<!-- Node2 -->
<g id="node4" class="node"><title>Node2</title>
<g id="a_node4"><a xlink:title="0x400957 to 0x400967">
<ellipse fill="none" stroke="black" cx="34.4469" cy="-90" rx="34.394" ry="18"/>
<text text-anchor="middle" x="34.4469" y="-86.3" font-family="Times,serif" font-size="14.00">Node2</text>
</a>
</g>
</g>
<!-- Node1&#45;&gt;Node2 -->
<g id="edge3" class="edge"><title>Node1&#45;&gt;Node2</title>
<path fill="none" stroke="black" d="M34.4469,-143.697C34.4469,-135.983 34.4469,-126.712 34.4469,-118.112"/>
<polygon fill="black" stroke="black" points="37.947,-118.104 34.4469,-108.104 30.947,-118.104 37.947,-118.104"/>
</g>
<!-- Node4 -->
<g id="node5" class="node"><title>Node4</title>
<g id="a_node5"><a xlink:title="0x400940 to 0x40094f">
<ellipse fill="none" stroke="black" cx="121.447" cy="-90" rx="34.394" ry="18"/>
<text text-anchor="middle" x="121.447" y="-86.3" font-family="Times,serif" font-size="14.00">Node4</text>
</a>
</g>
</g>
<!-- Node3&#45;&gt;Node4 -->
<g id="edge4" class="edge"><title>Node3&#45;&gt;Node4</title>
<path fill="none" stroke="black" d="M121.447,-143.697C121.447,-135.983 121.447,-126.712 121.447,-118.112"/>
<polygon fill="black" stroke="black" points="124.947,-118.104 121.447,-108.104 117.947,-118.104 124.947,-118.104"/>
</g>
<!-- Node5 -->
<g id="node6" class="node"><title>Node5</title>
<g id="a_node6"><a xlink:title="0x400951 to 0x400967">
<ellipse fill="none" stroke="black" cx="161.447" cy="-18" rx="34.394" ry="18"/>
<text text-anchor="middle" x="161.447" y="-14.3" font-family="Times,serif" font-size="14.00">Node5</text>
</a>
</g>
</g>
<!-- Node3&#45;&gt;Node5 -->
<g id="edge5" class="edge"><title>Node3&#45;&gt;Node5</title>
<path fill="none" stroke="black" d="M144.182,-148.222C158.057,-139.03 174.591,-125.233 182.447,-108 191.713,-87.6737 184.449,-62.8037 176.026,-44.5259"/>
<polygon fill="black" stroke="black" points="179.057,-42.7612 171.462,-35.3745 172.793,-45.8854 179.057,-42.7612"/>
</g>
<!-- Node4&#45;&gt;Node4 -->
<g id="edge6" class="edge"><title>Node4&#45;&gt;Node4</title>
<path fill="none" stroke="black" d="M145.996,-102.708C160.406,-105.416 173.894,-101.18 173.894,-90 173.894,-81.5279 166.148,-77.0434 156.125,-76.5464"/>
<polygon fill="black" stroke="black" points="155.712,-73.0673 145.996,-77.2918 156.226,-80.0484 155.712,-73.0673"/>
</g>
<!-- Node4&#45;&gt;Node5 -->
<g id="edge7" class="edge"><title>Node4&#45;&gt;Node5</title>
<path fill="none" stroke="black" d="M130.926,-72.411C135.709,-64.0421 141.613,-53.7098 146.95,-44.3698"/>
<polygon fill="black" stroke="black" points="150.113,-45.8889 152.036,-35.4699 144.035,-42.4159 150.113,-45.8889"/>
</g>
</g>
</svg>
