<?xml version="1.0" encoding="UTF-8" standalone="no"?>
<!DOCTYPE svg PUBLIC "-//W3C//DTD SVG 1.1//EN"
 "http://www.w3.org/Graphics/SVG/1.1/DTD/svg11.dtd">
<!-- Generated by graphviz version 2.38.0 (20140413.2041)
 -->
<!-- Title: G Pages: 1 -->
<svg width="126pt" height="260pt"
 viewBox="0.00 0.00 125.89 260.00" xmlns="http://www.w3.org/2000/svg" xmlns:xlink="http://www.w3.org/1999/xlink">
<g id="graph0" class="graph" transform="scale(1 1) rotate(0) translate(4 256)">
<title>G</title>
<polygon fill="white" stroke="none" points="-4,4 -4,-256 121.894,-256 121.894,4 -4,4"/>
<!-- Node0 -->
<g id="node1" class="node"><title>Node0</title>
<g id="a_node1"><a xlink:title="0x400ff0 to 0x401024">
<ellipse fill="none" stroke="black" cx="34.4469" cy="-234" rx="34.394" ry="18"/>
<text text-anchor="middle" x="34.4469" y="-230.3" font-family="Times,serif" font-size="14.00">Node0</text>
</a>
</g>
</g>
<!-- Node1 -->
<g id="node2" class="node"><title>Node1</title>
<g id="a_node2"><a xlink:title="0x401074 to 0x401082">
<ellipse fill="none" stroke="black" cx="34.4469" cy="-162" rx="34.394" ry="18"/>
<text text-anchor="middle" x="34.4469" y="-158.3" font-family="Times,serif" font-size="14.00">Node1</text>
</a>
</g>
</g>
<!-- Node0&#45;&gt;Node1 -->
<g id="edge1" class="edge"><title>Node0&#45;&gt;Node1</title>
<path fill="none" stroke="black" d="M34.4469,-215.697C34.4469,-207.983 34.4469,-198.712 34.4469,-190.112"/>
<polygon fill="black" stroke="black" points="37.947,-190.104 34.4469,-180.104 30.947,-190.104 37.947,-190.104"/>
</g>
<!-- Node2 -->
<g id="node3" class="node"><title>Node2</title>
<g id="a_node3"><a xlink:title="0x401084 to 0x40108e">
<ellipse fill="none" stroke="black" cx="34.4469" cy="-18" rx="34.394" ry="18"/>
<text text-anchor="middle" x="34.4469" y="-14.3" font-family="Times,serif" font-size="14.00">Node2</text>
</a>
</g>
</g>
<!-- Node1&#45;&gt;Node2 -->
<g id="edge2" class="edge"><title>Node1&#45;&gt;Node2</title>
<path fill="none" stroke="black" d="M29.5778,-143.979C26.8827,-133.665 23.8095,-120.189 22.4469,-108 20.6693,-92.0991 20.6693,-87.9009 22.4469,-72 23.405,-63.4299 25.2088,-54.2228 27.1322,-45.9264"/>
<polygon fill="black" stroke="black" points="30.5787,-46.5684 29.5778,-36.0209 23.7828,-44.8904 30.5787,-46.5684"/>
</g>
<!-- Node3 -->
<g id="node4" class="node"><title>Node3</title>
<g id="a_node4"><a xlink:title="0x401026 to 0x401082">
<ellipse fill="none" stroke="black" cx="65.4469" cy="-90" rx="34.394" ry="18"/>
<text text-anchor="middle" x="65.4469" y="-86.3" font-family="Times,serif" font-size="14.00">Node3</text>
</a>
</g>
</g>
<!-- Node1&#45;&gt;Node3 -->
<g id="edge3" class="edge"><title>Node1&#45;&gt;Node3</title>
<path fill="none" stroke="black" d="M41.7935,-144.411C45.3699,-136.335 49.756,-126.431 53.7756,-117.355"/>
<polygon fill="black" stroke="black" points="57.0887,-118.517 57.9378,-107.956 50.6882,-115.682 57.0887,-118.517"/>
</g>
<!-- Node3&#45;&gt;Node2 -->
<g id="edge4" class="edge"><title>Node3&#45;&gt;Node2</title>
<path fill="none" stroke="black" d="M58.1004,-72.411C54.5239,-64.3352 50.1379,-54.4312 46.1183,-45.3547"/>
<polygon fill="black" stroke="black" points="49.2057,-43.6825 41.9561,-35.9562 42.8052,-46.517 49.2057,-43.6825"/>
</g>
<!-- Node3&#45;&gt;Node3 -->
<g id="edge5" class="edge"><title>Node3&#45;&gt;Node3</title>
<path fill="none" stroke="black" d="M89.9961,-102.708C104.406,-105.416 117.894,-101.18 117.894,-90 117.894,-81.5279 110.148,-77.0434 100.125,-76.5464"/>
<polygon fill="black" stroke="black" points="99.7123,-73.0673 89.9961,-77.2918 100.226,-80.0484 99.7123,-73.0673"/>
</g>
</g>
</svg>
