<?xml version="1.0" encoding="UTF-8" standalone="no"?>
<!DOCTYPE svg PUBLIC "-//W3C//DTD SVG 1.1//EN"
 "http://www.w3.org/Graphics/SVG/1.1/DTD/svg11.dtd">
<!-- Generated by graphviz version 2.38.0 (20140413.2041)
 -->
<!-- Title: G Pages: 1 -->
<svg width="214pt" height="476pt"
 viewBox="0.00 0.00 213.89 476.00" xmlns="http://www.w3.org/2000/svg" xmlns:xlink="http://www.w3.org/1999/xlink">
<g id="graph0" class="graph" transform="scale(1 1) rotate(0) translate(4 472)">
<title>G</title>
<polygon fill="white" stroke="none" points="-4,4 -4,-472 209.894,-472 209.894,4 -4,4"/>
<!-- Node0 -->
<g id="node1" class="node"><title>Node0</title>
<g id="a_node1"><a xlink:title="0x400e40 to 0x400eb0">
<ellipse fill="none" stroke="black" cx="115.447" cy="-450" rx="34.394" ry="18"/>
<text text-anchor="middle" x="115.447" y="-446.3" font-family="Times,serif" font-size="14.00">Node0</text>
</a>
</g>
</g>
<!-- Node1 -->
<g id="node2" class="node"><title>Node1</title>
<g id="a_node2"><a xlink:title="0x400ed6 to 0x400f04">
<ellipse fill="none" stroke="black" cx="84.4469" cy="-306" rx="34.394" ry="18"/>
<text text-anchor="middle" x="84.4469" y="-302.3" font-family="Times,serif" font-size="14.00">Node1</text>
</a>
</g>
</g>
<!-- Node0&#45;&gt;Node1 -->
<g id="edge1" class="edge"><title>Node0&#45;&gt;Node1</title>
<path fill="none" stroke="black" d="M111.502,-431.826C109.135,-421.458 106.081,-407.978 103.447,-396 98.8939,-375.299 93.895,-351.853 90.1679,-334.224"/>
<polygon fill="black" stroke="black" points="93.5159,-333.138 88.027,-324.075 86.6666,-334.583 93.5159,-333.138"/>
</g>
<!-- Node4 -->
<g id="node3" class="node"><title>Node4</title>
<g id="a_node3"><a xlink:title="0x400f20 to 0x400f3b">
<ellipse fill="none" stroke="black" cx="146.447" cy="-378" rx="34.394" ry="18"/>
<text text-anchor="middle" x="146.447" y="-374.3" font-family="Times,serif" font-size="14.00">Node4</text>
</a>
</g>
</g>
<!-- Node0&#45;&gt;Node4 -->
<g id="edge2" class="edge"><title>Node0&#45;&gt;Node4</title>
<path fill="none" stroke="black" d="M122.794,-432.411C126.37,-424.335 130.756,-414.431 134.776,-405.355"/>
<polygon fill="black" stroke="black" points="138.089,-406.517 138.938,-395.956 131.688,-403.682 138.089,-406.517"/>
</g>
<!-- Node2 -->
<g id="node4" class="node"><title>Node2</title>
<g id="a_node4"><a xlink:title="0x400f0a to 0x400f18">
<ellipse fill="none" stroke="black" cx="34.4469" cy="-18" rx="34.394" ry="18"/>
<text text-anchor="middle" x="34.4469" y="-14.3" font-family="Times,serif" font-size="14.00">Node2</text>
</a>
</g>
</g>
<!-- Node1&#45;&gt;Node2 -->
<g id="edge3" class="edge"><title>Node1&#45;&gt;Node2</title>
<path fill="none" stroke="black" d="M73.1734,-288.562C58.1243,-265.52 32.2311,-221.746 22.4469,-180 11.4937,-133.266 17.1141,-119.703 22.4469,-72 23.405,-63.4299 25.2088,-54.2228 27.1322,-45.9264"/>
<polygon fill="black" stroke="black" points="30.5787,-46.5684 29.5778,-36.0209 23.7828,-44.8904 30.5787,-46.5684"/>
</g>
<!-- Node3 -->
<g id="node5" class="node"><title>Node3</title>
<g id="a_node5"><a xlink:title="0x400eb2 to 0x400ed4">
<ellipse fill="none" stroke="black" cx="115.447" cy="-234" rx="34.394" ry="18"/>
<text text-anchor="middle" x="115.447" y="-230.3" font-family="Times,serif" font-size="14.00">Node3</text>
</a>
</g>
</g>
<!-- Node1&#45;&gt;Node3 -->
<g id="edge4" class="edge"><title>Node1&#45;&gt;Node3</title>
<path fill="none" stroke="black" d="M86.1941,-287.697C89.0115,-279.403 93.2833,-269.311 97.7844,-260.187"/>
<polygon fill="black" stroke="black" points="100.98,-261.629 102.507,-251.145 94.775,-258.388 100.98,-261.629"/>
</g>
<!-- Node4&#45;&gt;Node1 -->
<g id="edge7" class="edge"><title>Node4&#45;&gt;Node1</title>
<path fill="none" stroke="black" d="M132.687,-361.465C124.693,-352.439 114.455,-340.88 105.469,-330.735"/>
<polygon fill="black" stroke="black" points="107.849,-328.142 98.5981,-322.977 102.608,-332.784 107.849,-328.142"/>
</g>
<!-- Node6 -->
<g id="node7" class="node"><title>Node6</title>
<g id="a_node7"><a xlink:title="0x400f4c to 0x400f98">
<ellipse fill="none" stroke="black" cx="171.447" cy="-306" rx="34.394" ry="18"/>
<text text-anchor="middle" x="171.447" y="-302.3" font-family="Times,serif" font-size="14.00">Node6</text>
</a>
</g>
</g>
<!-- Node4&#45;&gt;Node6 -->
<g id="edge8" class="edge"><title>Node4&#45;&gt;Node6</title>
<path fill="none" stroke="black" d="M152.499,-360.055C155.355,-352.059 158.829,-342.331 162.019,-333.4"/>
<polygon fill="black" stroke="black" points="165.384,-334.384 165.451,-323.789 158.791,-332.029 165.384,-334.384"/>
</g>
<!-- Node3&#45;&gt;Node1 -->
<g id="edge5" class="edge"><title>Node3&#45;&gt;Node1</title>
<path fill="none" stroke="black" d="M113.704,-252.292C110.864,-260.653 106.545,-270.843 102.004,-280.028"/>
<polygon fill="black" stroke="black" points="98.7827,-278.634 97.2421,-289.116 104.983,-281.882 98.7827,-278.634"/>
</g>
<!-- Node5 -->
<g id="node6" class="node"><title>Node5</title>
<g id="a_node6"><a xlink:title="0x400f3d to 0x400f4a">
<ellipse fill="none" stroke="black" cx="65.4469" cy="-162" rx="34.394" ry="18"/>
<text text-anchor="middle" x="65.4469" y="-158.3" font-family="Times,serif" font-size="14.00">Node5</text>
</a>
</g>
</g>
<!-- Node3&#45;&gt;Node5 -->
<g id="edge6" class="edge"><title>Node3&#45;&gt;Node5</title>
<path fill="none" stroke="black" d="M103.85,-216.765C97.6027,-208.018 89.7697,-197.052 82.8101,-187.308"/>
<polygon fill="black" stroke="black" points="85.6412,-185.25 76.9807,-179.147 79.9451,-189.319 85.6412,-185.25"/>
</g>
<!-- Node5&#45;&gt;Node1 -->
<g id="edge9" class="edge"><title>Node5&#45;&gt;Node1</title>
<path fill="none" stroke="black" d="M66.0618,-180.146C66.8778,-198.129 68.6805,-227.176 72.4469,-252 73.7405,-260.526 75.6402,-269.72 77.5483,-278.019"/>
<polygon fill="black" stroke="black" points="74.1901,-279.025 79.9246,-287.933 80.9973,-277.393 74.1901,-279.025"/>
</g>
<!-- Node7 -->
<g id="node8" class="node"><title>Node7</title>
<g id="a_node8"><a xlink:title="0x400ef6 to 0x400f04">
<ellipse fill="none" stroke="black" cx="65.4469" cy="-90" rx="34.394" ry="18"/>
<text text-anchor="middle" x="65.4469" y="-86.3" font-family="Times,serif" font-size="14.00">Node7</text>
</a>
</g>
</g>
<!-- Node5&#45;&gt;Node7 -->
<g id="edge10" class="edge"><title>Node5&#45;&gt;Node7</title>
<path fill="none" stroke="black" d="M65.4469,-143.697C65.4469,-135.983 65.4469,-126.712 65.4469,-118.112"/>
<polygon fill="black" stroke="black" points="68.947,-118.104 65.4469,-108.104 61.947,-118.104 68.947,-118.104"/>
</g>
<!-- Node7&#45;&gt;Node2 -->
<g id="edge11" class="edge"><title>Node7&#45;&gt;Node2</title>
<path fill="none" stroke="black" d="M58.1004,-72.411C54.5239,-64.3352 50.1379,-54.4312 46.1183,-45.3547"/>
<polygon fill="black" stroke="black" points="49.2057,-43.6825 41.9561,-35.9562 42.8052,-46.517 49.2057,-43.6825"/>
</g>
<!-- Node7&#45;&gt;Node3 -->
<g id="edge12" class="edge"><title>Node7&#45;&gt;Node3</title>
<path fill="none" stroke="black" d="M81.8556,-106.035C91.3938,-115.838 102.645,-129.475 108.447,-144 116.292,-163.64 117.763,-187.629 117.426,-205.75"/>
<polygon fill="black" stroke="black" points="113.922,-205.798 117.038,-215.924 120.916,-206.065 113.922,-205.798"/>
</g>
</g>
</svg>
