<?xml version="1.0" encoding="UTF-8" standalone="no"?>
<!DOCTYPE svg PUBLIC "-//W3C//DTD SVG 1.1//EN"
 "http://www.w3.org/Graphics/SVG/1.1/DTD/svg11.dtd">
<!-- Generated by graphviz version 2.38.0 (20140413.2041)
 -->
<!-- Title: G Pages: 1 -->
<svg width="117pt" height="332pt"
 viewBox="0.00 0.00 116.89 332.00" xmlns="http://www.w3.org/2000/svg" xmlns:xlink="http://www.w3.org/1999/xlink">
<g id="graph0" class="graph" transform="scale(1 1) rotate(0) translate(4 328)">
<title>G</title>
<polygon fill="white" stroke="none" points="-4,4 -4,-328 112.894,-328 112.894,4 -4,4"/>
<!-- Node0 -->
<g id="node1" class="node"><title>Node0</title>
<g id="a_node1"><a xlink:title="0x400680 to 0x4006ad">
<ellipse fill="none" stroke="black" cx="74.4469" cy="-306" rx="34.394" ry="18"/>
<text text-anchor="middle" x="74.4469" y="-302.3" font-family="Times,serif" font-size="14.00">Node0</text>
</a>
</g>
</g>
<!-- Node1 -->
<g id="node2" class="node"><title>Node1</title>
<g id="a_node2"><a xlink:title="0x4006bf to 0x4006d1">
<ellipse fill="none" stroke="black" cx="74.4469" cy="-234" rx="34.394" ry="18"/>
<text text-anchor="middle" x="74.4469" y="-230.3" font-family="Times,serif" font-size="14.00">Node1</text>
</a>
</g>
</g>
<!-- Node0&#45;&gt;Node1 -->
<g id="edge1" class="edge"><title>Node0&#45;&gt;Node1</title>
<path fill="none" stroke="black" d="M74.4469,-287.697C74.4469,-279.983 74.4469,-270.712 74.4469,-262.112"/>
<polygon fill="black" stroke="black" points="77.947,-262.104 74.4469,-252.104 70.947,-262.104 77.947,-262.104"/>
</g>
<!-- Node2 -->
<g id="node3" class="node"><title>Node2</title>
<g id="a_node3"><a xlink:title="0x4006b0 to 0x4006d1">
<ellipse fill="none" stroke="black" cx="34.4469" cy="-162" rx="34.394" ry="18"/>
<text text-anchor="middle" x="34.4469" y="-158.3" font-family="Times,serif" font-size="14.00">Node2</text>
</a>
</g>
</g>
<!-- Node1&#45;&gt;Node2 -->
<g id="edge2" class="edge"><title>Node1&#45;&gt;Node2</title>
<path fill="none" stroke="black" d="M64.9675,-216.411C60.1853,-208.042 54.2811,-197.71 48.944,-188.37"/>
<polygon fill="black" stroke="black" points="51.8586,-186.416 43.8583,-179.47 45.7809,-189.889 51.8586,-186.416"/>
</g>
<!-- Node3 -->
<g id="node4" class="node"><title>Node3</title>
<g id="a_node4"><a xlink:title="0x4006d3 to 0x4006e3">
<ellipse fill="none" stroke="black" cx="74.4469" cy="-90" rx="34.394" ry="18"/>
<text text-anchor="middle" x="74.4469" y="-86.3" font-family="Times,serif" font-size="14.00">Node3</text>
</a>
</g>
</g>
<!-- Node1&#45;&gt;Node3 -->
<g id="edge3" class="edge"><title>Node1&#45;&gt;Node3</title>
<path fill="none" stroke="black" d="M82.9475,-216.306C87.6567,-206.108 93.0344,-192.638 95.4469,-180 98.4471,-164.284 98.4471,-159.716 95.4469,-144 93.7129,-134.916 90.4471,-125.403 86.9987,-116.984"/>
<polygon fill="black" stroke="black" points="90.1532,-115.461 82.9475,-107.694 83.7368,-118.259 90.1532,-115.461"/>
</g>
<!-- Node2&#45;&gt;Node2 -->
<g id="edge4" class="edge"><title>Node2&#45;&gt;Node2</title>
<path fill="none" stroke="black" d="M58.9961,-174.708C73.406,-177.416 86.8939,-173.18 86.8939,-162 86.8939,-153.528 79.1481,-149.043 69.1251,-148.546"/>
<polygon fill="black" stroke="black" points="68.7123,-145.067 58.9961,-149.292 69.2261,-152.048 68.7123,-145.067"/>
</g>
<!-- Node2&#45;&gt;Node3 -->
<g id="edge5" class="edge"><title>Node2&#45;&gt;Node3</title>
<path fill="none" stroke="black" d="M43.9264,-144.411C48.7086,-136.042 54.6127,-125.71 59.9499,-116.37"/>
<polygon fill="black" stroke="black" points="63.113,-117.889 65.0355,-107.47 57.0353,-114.416 63.113,-117.889"/>
</g>
<!-- Node4 -->
<g id="node5" class="node"><title>Node4</title>
<g id="a_node5"><a xlink:title="0x4006e5 to 0x4006ef">
<ellipse fill="none" stroke="black" cx="74.4469" cy="-18" rx="34.394" ry="18"/>
<text text-anchor="middle" x="74.4469" y="-14.3" font-family="Times,serif" font-size="14.00">Node4</text>
</a>
</g>
</g>
<!-- Node3&#45;&gt;Node4 -->
<g id="edge6" class="edge"><title>Node3&#45;&gt;Node4</title>
<path fill="none" stroke="black" d="M74.4469,-71.6966C74.4469,-63.9827 74.4469,-54.7125 74.4469,-46.1124"/>
<polygon fill="black" stroke="black" points="77.947,-46.1043 74.4469,-36.1043 70.947,-46.1044 77.947,-46.1043"/>
</g>
</g>
</svg>
