<?xml version="1.0" encoding="UTF-8" standalone="no"?>
<!DOCTYPE svg PUBLIC "-//W3C//DTD SVG 1.1//EN"
 "http://www.w3.org/Graphics/SVG/1.1/DTD/svg11.dtd">
<!-- Generated by graphviz version 2.38.0 (20140413.2041)
 -->
<!-- Title: G Pages: 1 -->
<svg width="164pt" height="260pt"
 viewBox="0.00 0.00 163.89 260.00" xmlns="http://www.w3.org/2000/svg" xmlns:xlink="http://www.w3.org/1999/xlink">
<g id="graph0" class="graph" transform="scale(1 1) rotate(0) translate(4 256)">
<title>G</title>
<polygon fill="white" stroke="none" points="-4,4 -4,-256 159.894,-256 159.894,4 -4,4"/>
<!-- Node0 -->
<g id="node1" class="node"><title>Node0</title>
<g id="a_node1"><a xlink:title="0x401290 to 0x401296">
<ellipse fill="none" stroke="black" cx="115.447" cy="-234" rx="34.394" ry="18"/>
<text text-anchor="middle" x="115.447" y="-230.3" font-family="Times,serif" font-size="14.00">Node0</text>
</a>
</g>
</g>
<!-- Node1 -->
<g id="node2" class="node"><title>Node1</title>
<g id="a_node2"><a xlink:title="0x4012a0 to 0x4012a6">
<ellipse fill="none" stroke="black" cx="84.4469" cy="-162" rx="34.394" ry="18"/>
<text text-anchor="middle" x="84.4469" y="-158.3" font-family="Times,serif" font-size="14.00">Node1</text>
</a>
</g>
</g>
<!-- Node0&#45;&gt;Node1 -->
<g id="edge1" class="edge"><title>Node0&#45;&gt;Node1</title>
<path fill="none" stroke="black" d="M108.1,-216.411C104.524,-208.335 100.138,-198.431 96.1183,-189.355"/>
<polygon fill="black" stroke="black" points="99.2057,-187.682 91.9561,-179.956 92.8052,-190.517 99.2057,-187.682"/>
</g>
<!-- Node2 -->
<g id="node3" class="node"><title>Node2</title>
<g id="a_node3"><a xlink:title="0x401298 to 0x401298">
<ellipse fill="none" stroke="black" cx="121.447" cy="-18" rx="34.394" ry="18"/>
<text text-anchor="middle" x="121.447" y="-14.3" font-family="Times,serif" font-size="14.00">Node2</text>
</a>
</g>
</g>
<!-- Node0&#45;&gt;Node2 -->
<g id="edge2" class="edge"><title>Node0&#45;&gt;Node2</title>
<path fill="none" stroke="black" d="M120.316,-215.979C123.011,-205.665 126.084,-192.189 127.447,-180 132.696,-133.048 128.406,-77.966 124.88,-45.9214"/>
<polygon fill="black" stroke="black" points="128.357,-45.5129 123.729,-35.9823 121.403,-46.3187 128.357,-45.5129"/>
</g>
<!-- Node1&#45;&gt;Node2 -->
<g id="edge3" class="edge"><title>Node1&#45;&gt;Node2</title>
<path fill="none" stroke="black" d="M88.91,-143.871C95.2437,-119.564 106.903,-74.8187 114.408,-46.0132"/>
<polygon fill="black" stroke="black" points="117.833,-46.7487 116.968,-36.1893 111.06,-44.9836 117.833,-46.7487"/>
</g>
<!-- Node3 -->
<g id="node4" class="node"><title>Node3</title>
<g id="a_node4"><a xlink:title="0x4012a8 to 0x4012ae">
<ellipse fill="none" stroke="black" cx="46.4469" cy="-90" rx="34.394" ry="18"/>
<text text-anchor="middle" x="46.4469" y="-86.3" font-family="Times,serif" font-size="14.00">Node3</text>
</a>
</g>
</g>
<!-- Node1&#45;&gt;Node3 -->
<g id="edge4" class="edge"><title>Node1&#45;&gt;Node3</title>
<path fill="none" stroke="black" d="M75.4415,-144.411C70.8983,-136.042 65.2894,-125.71 60.2191,-116.37"/>
<polygon fill="black" stroke="black" points="63.2347,-114.589 55.3878,-107.47 57.0828,-117.928 63.2347,-114.589"/>
</g>
<!-- Node3&#45;&gt;Node2 -->
<g id="edge5" class="edge"><title>Node3&#45;&gt;Node2</title>
<path fill="none" stroke="black" d="M62.7208,-73.811C72.9421,-64.2712 86.3004,-51.8035 97.6937,-41.1697"/>
<polygon fill="black" stroke="black" points="100.282,-43.5412 105.205,-34.1593 95.5061,-38.4238 100.282,-43.5412"/>
</g>
<!-- Node4 -->
<g id="node5" class="node"><title>Node4</title>
<g id="a_node5"><a xlink:title="0x4012b0 to 0x4012c6">
<ellipse fill="none" stroke="black" cx="34.4469" cy="-18" rx="34.394" ry="18"/>
<text text-anchor="middle" x="34.4469" y="-14.3" font-family="Times,serif" font-size="14.00">Node4</text>
</a>
</g>
</g>
<!-- Node3&#45;&gt;Node4 -->
<g id="edge6" class="edge"><title>Node3&#45;&gt;Node4</title>
<path fill="none" stroke="black" d="M43.5421,-72.055C42.2205,-64.3456 40.623,-55.0269 39.138,-46.3642"/>
<polygon fill="black" stroke="black" points="42.5478,-45.5401 37.4084,-36.2753 35.6485,-46.7229 42.5478,-45.5401"/>
</g>
</g>
</svg>
