<?xml version="1.0" encoding="UTF-8" standalone="no"?>
<!DOCTYPE svg PUBLIC "-//W3C//DTD SVG 1.1//EN"
 "http://www.w3.org/Graphics/SVG/1.1/DTD/svg11.dtd">
<!-- Generated by graphviz version 2.38.0 (20140413.2041)
 -->
<!-- Title: G Pages: 1 -->
<svg width="77pt" height="260pt"
 viewBox="0.00 0.00 76.89 260.00" xmlns="http://www.w3.org/2000/svg" xmlns:xlink="http://www.w3.org/1999/xlink">
<g id="graph0" class="graph" transform="scale(1 1) rotate(0) translate(4 256)">
<title>G</title>
<polygon fill="white" stroke="none" points="-4,4 -4,-256 72.8939,-256 72.8939,4 -4,4"/>
<!-- Node0 -->
<g id="node1" class="node"><title>Node0</title>
<g id="a_node1"><a xlink:title="0x400c70 to 0x400c91">
<ellipse fill="none" stroke="black" cx="34.4469" cy="-234" rx="34.394" ry="18"/>
<text text-anchor="middle" x="34.4469" y="-230.3" font-family="Times,serif" font-size="14.00">Node0</text>
</a>
</g>
</g>
<!-- Node1 -->
<g id="node2" class="node"><title>Node1</title>
<g id="a_node2"><a xlink:title="0x400ca0 to 0x400cb1">
<ellipse fill="none" stroke="black" cx="34.4469" cy="-162" rx="34.394" ry="18"/>
<text text-anchor="middle" x="34.4469" y="-158.3" font-family="Times,serif" font-size="14.00">Node1</text>
</a>
</g>
</g>
<!-- Node0&#45;&gt;Node1 -->
<g id="edge1" class="edge"><title>Node0&#45;&gt;Node1</title>
<path fill="none" stroke="black" d="M34.4469,-215.697C34.4469,-207.983 34.4469,-198.712 34.4469,-190.112"/>
<polygon fill="black" stroke="black" points="37.947,-190.104 34.4469,-180.104 30.947,-190.104 37.947,-190.104"/>
</g>
<!-- Node2 -->
<g id="node3" class="node"><title>Node2</title>
<g id="a_node3"><a xlink:title="0x400c98 to 0x400c9e">
<ellipse fill="none" stroke="black" cx="34.4469" cy="-90" rx="34.394" ry="18"/>
<text text-anchor="middle" x="34.4469" y="-86.3" font-family="Times,serif" font-size="14.00">Node2</text>
</a>
</g>
</g>
<!-- Node1&#45;&gt;Node2 -->
<g id="edge2" class="edge"><title>Node1&#45;&gt;Node2</title>
<path fill="none" stroke="black" d="M28.5687,-144.055C27.7384,-136.231 27.5012,-126.748 27.8571,-117.977"/>
<polygon fill="black" stroke="black" points="31.3634,-118.013 28.5854,-107.789 24.3812,-117.514 31.3634,-118.013"/>
</g>
<!-- Node2&#45;&gt;Node1 -->
<g id="edge3" class="edge"><title>Node2&#45;&gt;Node1</title>
<path fill="none" stroke="black" d="M40.3085,-107.789C41.1467,-115.591 41.3918,-125.067 41.0438,-133.848"/>
<polygon fill="black" stroke="black" points="37.5362,-133.834 40.3252,-144.055 44.5189,-134.325 37.5362,-133.834"/>
</g>
<!-- Node3 -->
<g id="node4" class="node"><title>Node3</title>
<g id="a_node4"><a xlink:title="0x400cb3 to 0x400cdb">
<ellipse fill="none" stroke="black" cx="34.4469" cy="-18" rx="34.394" ry="18"/>
<text text-anchor="middle" x="34.4469" y="-14.3" font-family="Times,serif" font-size="14.00">Node3</text>
</a>
</g>
</g>
<!-- Node2&#45;&gt;Node3 -->
<g id="edge4" class="edge"><title>Node2&#45;&gt;Node3</title>
<path fill="none" stroke="black" d="M34.4469,-71.6966C34.4469,-63.9827 34.4469,-54.7125 34.4469,-46.1124"/>
<polygon fill="black" stroke="black" points="37.947,-46.1043 34.4469,-36.1043 30.947,-46.1044 37.947,-46.1043"/>
</g>
</g>
</svg>
