<?xml version="1.0" encoding="UTF-8" standalone="no"?>
<!DOCTYPE svg PUBLIC "-//W3C//DTD SVG 1.1//EN"
 "http://www.w3.org/Graphics/SVG/1.1/DTD/svg11.dtd">
<!-- Generated by graphviz version 2.38.0 (20140413.2041)
 -->
<!-- Title: G Pages: 1 -->
<svg width="269pt" height="404pt"
 viewBox="0.00 0.00 268.89 404.00" xmlns="http://www.w3.org/2000/svg" xmlns:xlink="http://www.w3.org/1999/xlink">
<g id="graph0" class="graph" transform="scale(1 1) rotate(0) translate(4 400)">
<title>G</title>
<polygon fill="white" stroke="none" points="-4,4 -4,-400 264.894,-400 264.894,4 -4,4"/>
<!-- Node0 -->
<g id="node1" class="node"><title>Node0</title>
<g id="a_node1"><a xlink:title="0x400cf0 to 0x400d3c">
<ellipse fill="none" stroke="black" cx="214.447" cy="-378" rx="34.394" ry="18"/>
<text text-anchor="middle" x="214.447" y="-374.3" font-family="Times,serif" font-size="14.00">Node0</text>
</a>
</g>
</g>
<!-- Node1 -->
<g id="node2" class="node"><title>Node1</title>
<g id="a_node2"><a xlink:title="0x400db5 to 0x400dc6">
<ellipse fill="none" stroke="black" cx="214.447" cy="-306" rx="34.394" ry="18"/>
<text text-anchor="middle" x="214.447" y="-302.3" font-family="Times,serif" font-size="14.00">Node1</text>
</a>
</g>
</g>
<!-- Node0&#45;&gt;Node1 -->
<g id="edge1" class="edge"><title>Node0&#45;&gt;Node1</title>
<path fill="none" stroke="black" d="M214.447,-359.697C214.447,-351.983 214.447,-342.712 214.447,-334.112"/>
<polygon fill="black" stroke="black" points="217.947,-334.104 214.447,-324.104 210.947,-334.104 217.947,-334.104"/>
</g>
<!-- Node2 -->
<g id="node3" class="node"><title>Node2</title>
<g id="a_node3"><a xlink:title="0x400d4b to 0x400d53">
<ellipse fill="none" stroke="black" cx="214.447" cy="-234" rx="34.394" ry="18"/>
<text text-anchor="middle" x="214.447" y="-230.3" font-family="Times,serif" font-size="14.00">Node2</text>
</a>
</g>
</g>
<!-- Node1&#45;&gt;Node2 -->
<g id="edge2" class="edge"><title>Node1&#45;&gt;Node2</title>
<path fill="none" stroke="black" d="M214.447,-287.697C214.447,-279.983 214.447,-270.712 214.447,-262.112"/>
<polygon fill="black" stroke="black" points="217.947,-262.104 214.447,-252.104 210.947,-262.104 217.947,-262.104"/>
</g>
<!-- Node3 -->
<g id="node4" class="node"><title>Node3</title>
<g id="a_node4"><a xlink:title="0x400d5f to 0x400d6b">
<ellipse fill="none" stroke="black" cx="183.447" cy="-162" rx="34.394" ry="18"/>
<text text-anchor="middle" x="183.447" y="-158.3" font-family="Times,serif" font-size="14.00">Node3</text>
</a>
</g>
</g>
<!-- Node2&#45;&gt;Node3 -->
<g id="edge3" class="edge"><title>Node2&#45;&gt;Node3</title>
<path fill="none" stroke="black" d="M207.1,-216.411C203.524,-208.335 199.138,-198.431 195.118,-189.355"/>
<polygon fill="black" stroke="black" points="198.206,-187.682 190.956,-179.956 191.805,-190.517 198.206,-187.682"/>
</g>
<!-- Node4 -->
<g id="node5" class="node"><title>Node4</title>
<g id="a_node5"><a xlink:title="0x400d58 to 0x400d5d">
<ellipse fill="none" stroke="black" cx="183.447" cy="-90" rx="34.394" ry="18"/>
<text text-anchor="middle" x="183.447" y="-86.3" font-family="Times,serif" font-size="14.00">Node4</text>
</a>
</g>
</g>
<!-- Node3&#45;&gt;Node4 -->
<g id="edge4" class="edge"><title>Node3&#45;&gt;Node4</title>
<path fill="none" stroke="black" d="M177.569,-144.055C176.738,-136.231 176.501,-126.748 176.857,-117.977"/>
<polygon fill="black" stroke="black" points="180.363,-118.013 177.585,-107.789 173.381,-117.514 180.363,-118.013"/>
</g>
<!-- Node6 -->
<g id="node6" class="node"><title>Node6</title>
<g id="a_node6"><a xlink:title="0x400d6d to 0x400da0">
<ellipse fill="none" stroke="black" cx="59.4469" cy="-90" rx="34.394" ry="18"/>
<text text-anchor="middle" x="59.4469" y="-86.3" font-family="Times,serif" font-size="14.00">Node6</text>
</a>
</g>
</g>
<!-- Node3&#45;&gt;Node6 -->
<g id="edge5" class="edge"><title>Node3&#45;&gt;Node6</title>
<path fill="none" stroke="black" d="M160.991,-148.324C141.45,-137.292 112.913,-121.182 91.0632,-108.848"/>
<polygon fill="black" stroke="black" points="92.5832,-105.687 82.1544,-103.819 89.142,-111.783 92.5832,-105.687"/>
</g>
<!-- Node4&#45;&gt;Node3 -->
<g id="edge6" class="edge"><title>Node4&#45;&gt;Node3</title>
<path fill="none" stroke="black" d="M189.309,-107.789C190.147,-115.591 190.392,-125.067 190.044,-133.848"/>
<polygon fill="black" stroke="black" points="186.536,-133.834 189.325,-144.055 193.519,-134.325 186.536,-133.834"/>
</g>
<!-- Node5 -->
<g id="node7" class="node"><title>Node5</title>
<g id="a_node7"><a xlink:title="0x400db0 to 0x400dc6">
<ellipse fill="none" stroke="black" cx="226.447" cy="-18" rx="34.394" ry="18"/>
<text text-anchor="middle" x="226.447" y="-14.3" font-family="Times,serif" font-size="14.00">Node5</text>
</a>
</g>
</g>
<!-- Node4&#45;&gt;Node5 -->
<g id="edge7" class="edge"><title>Node4&#45;&gt;Node5</title>
<path fill="none" stroke="black" d="M193.42,-72.7646C198.609,-64.3172 205.07,-53.7993 210.898,-44.3122"/>
<polygon fill="black" stroke="black" points="213.977,-45.9862 216.229,-35.6334 208.013,-42.3222 213.977,-45.9862"/>
</g>
<!-- Node7 -->
<g id="node8" class="node"><title>Node7</title>
<g id="a_node8"><a xlink:title="0x400da2 to 0x400dac">
<ellipse fill="none" stroke="black" cx="34.4469" cy="-18" rx="34.394" ry="18"/>
<text text-anchor="middle" x="34.4469" y="-14.3" font-family="Times,serif" font-size="14.00">Node7</text>
</a>
</g>
</g>
<!-- Node6&#45;&gt;Node7 -->
<g id="edge9" class="edge"><title>Node6&#45;&gt;Node7</title>
<path fill="none" stroke="black" d="M53.3951,-72.055C50.5393,-64.0586 47.0651,-54.3308 43.8753,-45.3995"/>
<polygon fill="black" stroke="black" points="47.1025,-44.0292 40.443,-35.789 40.5103,-46.3836 47.1025,-44.0292"/>
</g>
<!-- Node8 -->
<g id="node9" class="node"><title>Node8</title>
<g id="a_node9"><a xlink:title="0x400d3e to 0x400d53">
<ellipse fill="none" stroke="black" cx="121.447" cy="-18" rx="34.394" ry="18"/>
<text text-anchor="middle" x="121.447" y="-14.3" font-family="Times,serif" font-size="14.00">Node8</text>
</a>
</g>
</g>
<!-- Node6&#45;&gt;Node8 -->
<g id="edge10" class="edge"><title>Node6&#45;&gt;Node8</title>
<path fill="none" stroke="black" d="M73.2068,-73.4647C81.2013,-64.4386 91.4389,-52.88 100.425,-42.7349"/>
<polygon fill="black" stroke="black" points="103.285,-44.7837 107.296,-34.9772 98.0453,-40.1424 103.285,-44.7837"/>
</g>
<!-- Node5&#45;&gt;Node2 -->
<g id="edge8" class="edge"><title>Node5&#45;&gt;Node2</title>
<path fill="none" stroke="black" d="M227.683,-35.99C229.548,-65.428 232.285,-127.777 226.447,-180 225.489,-188.57 223.685,-197.777 221.762,-206.074"/>
<polygon fill="black" stroke="black" points="218.315,-205.432 219.316,-215.979 225.111,-207.11 218.315,-205.432"/>
</g>
<!-- Node8&#45;&gt;Node3 -->
<g id="edge11" class="edge"><title>Node8&#45;&gt;Node3</title>
<path fill="none" stroke="black" d="M122.715,-36.1641C124.616,-54.6721 129.271,-84.623 140.447,-108 145.612,-118.804 153.4,-129.337 160.936,-138.13"/>
<polygon fill="black" stroke="black" points="158.42,-140.567 167.703,-145.674 163.631,-135.893 158.42,-140.567"/>
</g>
</g>
</svg>
