<?xml version="1.0" encoding="UTF-8" standalone="no"?>
<!DOCTYPE svg PUBLIC "-//W3C//DTD SVG 1.1//EN"
 "http://www.w3.org/Graphics/SVG/1.1/DTD/svg11.dtd">
<!-- Generated by graphviz version 2.38.0 (20140413.2041)
 -->
<!-- Title: G Pages: 1 -->
<svg width="210pt" height="260pt"
 viewBox="0.00 0.00 209.89 260.00" xmlns="http://www.w3.org/2000/svg" xmlns:xlink="http://www.w3.org/1999/xlink">
<g id="graph0" class="graph" transform="scale(1 1) rotate(0) translate(4 256)">
<title>G</title>
<polygon fill="white" stroke="none" points="-4,4 -4,-256 205.894,-256 205.894,4 -4,4"/>
<!-- Node0 -->
<g id="node1" class="node"><title>Node0</title>
<g id="a_node1"><a xlink:title="0x400af0 to 0x400b28">
<ellipse fill="none" stroke="black" cx="108.447" cy="-234" rx="34.394" ry="18"/>
<text text-anchor="middle" x="108.447" y="-230.3" font-family="Times,serif" font-size="14.00">Node0</text>
</a>
</g>
</g>
<!-- Node1 -->
<g id="node2" class="node"><title>Node1</title>
<g id="a_node2"><a xlink:title="0x400b46 to 0x400b54">
<ellipse fill="none" stroke="black" cx="49.4469" cy="-162" rx="34.394" ry="18"/>
<text text-anchor="middle" x="49.4469" y="-158.3" font-family="Times,serif" font-size="14.00">Node1</text>
</a>
</g>
</g>
<!-- Node0&#45;&gt;Node1 -->
<g id="edge1" class="edge"><title>Node0&#45;&gt;Node1</title>
<path fill="none" stroke="black" d="M95.0589,-217.116C87.44,-208.076 77.7527,-196.583 69.2671,-186.515"/>
<polygon fill="black" stroke="black" points="71.9029,-184.212 62.782,-178.821 66.5505,-188.723 71.9029,-184.212"/>
</g>
<!-- Node5 -->
<g id="node3" class="node"><title>Node5</title>
<g id="a_node3"><a xlink:title="0x400b2a to 0x400b2a">
<ellipse fill="none" stroke="black" cx="167.447" cy="-162" rx="34.394" ry="18"/>
<text text-anchor="middle" x="167.447" y="-158.3" font-family="Times,serif" font-size="14.00">Node5</text>
</a>
</g>
</g>
<!-- Node0&#45;&gt;Node5 -->
<g id="edge2" class="edge"><title>Node0&#45;&gt;Node5</title>
<path fill="none" stroke="black" d="M121.835,-217.116C129.454,-208.076 139.141,-196.583 147.627,-186.515"/>
<polygon fill="black" stroke="black" points="150.343,-188.723 154.112,-178.821 144.991,-184.212 150.343,-188.723"/>
</g>
<!-- Node2 -->
<g id="node4" class="node"><title>Node2</title>
<g id="a_node4"><a xlink:title="0x400b30 to 0x400b44">
<ellipse fill="none" stroke="black" cx="34.4469" cy="-90" rx="34.394" ry="18"/>
<text text-anchor="middle" x="34.4469" y="-86.3" font-family="Times,serif" font-size="14.00">Node2</text>
</a>
</g>
</g>
<!-- Node1&#45;&gt;Node2 -->
<g id="edge3" class="edge"><title>Node1&#45;&gt;Node2</title>
<path fill="none" stroke="black" d="M40.0522,-144.411C37.5609,-136.708 35.2956,-127.341 33.7501,-118.616"/>
<polygon fill="black" stroke="black" points="37.1724,-117.831 32.2551,-108.447 30.2468,-118.85 37.1724,-117.831"/>
</g>
<!-- Node4 -->
<g id="node5" class="node"><title>Node4</title>
<g id="a_node5"><a xlink:title="0x400b56 to 0x400b60">
<ellipse fill="none" stroke="black" cx="121.447" cy="-90" rx="34.394" ry="18"/>
<text text-anchor="middle" x="121.447" y="-86.3" font-family="Times,serif" font-size="14.00">Node4</text>
</a>
</g>
</g>
<!-- Node1&#45;&gt;Node4 -->
<g id="edge4" class="edge"><title>Node1&#45;&gt;Node4</title>
<path fill="none" stroke="black" d="M65.0699,-145.811C74.8823,-136.271 87.7062,-123.803 98.6439,-113.17"/>
<polygon fill="black" stroke="black" points="101.124,-115.64 105.855,-106.159 96.2447,-110.621 101.124,-115.64"/>
</g>
<!-- Node3 -->
<g id="node6" class="node"><title>Node3</title>
<g id="a_node6"><a xlink:title="0x400b68 to 0x400b74">
<ellipse fill="none" stroke="black" cx="108.447" cy="-18" rx="34.394" ry="18"/>
<text text-anchor="middle" x="108.447" y="-14.3" font-family="Times,serif" font-size="14.00">Node3</text>
</a>
</g>
</g>
<!-- Node5&#45;&gt;Node3 -->
<g id="edge7" class="edge"><title>Node5&#45;&gt;Node3</title>
<path fill="none" stroke="black" d="M170.598,-143.735C173.164,-125.141 174.862,-95.1168 164.447,-72 158.575,-58.9678 147.859,-47.5863 137.361,-38.7458"/>
<polygon fill="black" stroke="black" points="139.474,-35.9544 129.459,-32.4954 135.131,-41.4445 139.474,-35.9544"/>
</g>
<!-- Node2&#45;&gt;Node1 -->
<g id="edge5" class="edge"><title>Node2&#45;&gt;Node1</title>
<path fill="none" stroke="black" d="M43.8524,-107.622C46.3788,-115.441 48.672,-124.967 50.2165,-133.796"/>
<polygon fill="black" stroke="black" points="46.7534,-134.304 51.6548,-143.697 53.6806,-133.297 46.7534,-134.304"/>
</g>
<!-- Node2&#45;&gt;Node3 -->
<g id="edge6" class="edge"><title>Node2&#45;&gt;Node3</title>
<path fill="none" stroke="black" d="M50.5038,-73.811C60.5888,-64.2712 73.769,-51.8035 85.0104,-41.1697"/>
<polygon fill="black" stroke="black" points="87.5619,-43.574 92.4214,-34.1593 82.7515,-38.4887 87.5619,-43.574"/>
</g>
</g>
</svg>
