<?xml version="1.0" encoding="UTF-8" standalone="no"?>
<!DOCTYPE svg PUBLIC "-//W3C//DTD SVG 1.1//EN"
 "http://www.w3.org/Graphics/SVG/1.1/DTD/svg11.dtd">
<!-- Generated by graphviz version 2.38.0 (20140413.2041)
 -->
<!-- Title: G Pages: 1 -->
<svg width="250pt" height="404pt"
 viewBox="0.00 0.00 249.89 404.00" xmlns="http://www.w3.org/2000/svg" xmlns:xlink="http://www.w3.org/1999/xlink">
<g id="graph0" class="graph" transform="scale(1 1) rotate(0) translate(4 400)">
<title>G</title>
<polygon fill="white" stroke="none" points="-4,4 -4,-400 245.894,-400 245.894,4 -4,4"/>
<!-- Node0 -->
<g id="node1" class="node"><title>Node0</title>
<g id="a_node1"><a xlink:title="0x400b80 to 0x400bae">
<ellipse fill="none" stroke="black" cx="34.4469" cy="-378" rx="34.394" ry="18"/>
<text text-anchor="middle" x="34.4469" y="-374.3" font-family="Times,serif" font-size="14.00">Node0</text>
</a>
</g>
</g>
<!-- Node1 -->
<g id="node2" class="node"><title>Node1</title>
<g id="a_node2"><a xlink:title="0x400c19 to 0x400c31">
<ellipse fill="none" stroke="black" cx="127.447" cy="-18" rx="34.394" ry="18"/>
<text text-anchor="middle" x="127.447" y="-14.3" font-family="Times,serif" font-size="14.00">Node1</text>
</a>
</g>
</g>
<!-- Node0&#45;&gt;Node1 -->
<g id="edge1" class="edge"><title>Node0&#45;&gt;Node1</title>
<path fill="none" stroke="black" d="M28.3223,-360.21C19.288,-333.898 3.44694,-281.177 3.44694,-235 3.44694,-235 3.44694,-235 3.44694,-161 3.44694,-120.553 -2.25051,-104.031 22.4469,-72 38.5217,-51.152 65.0354,-37.8606 87.3972,-29.8022"/>
<polygon fill="black" stroke="black" points="88.6481,-33.074 97.0045,-26.5609 86.4103,-26.4413 88.6481,-33.074"/>
</g>
<!-- Node2 -->
<g id="node3" class="node"><title>Node2</title>
<g id="a_node3"><a xlink:title="0x400bb0 to 0x400bc1">
<ellipse fill="none" stroke="black" cx="65.4469" cy="-306" rx="34.394" ry="18"/>
<text text-anchor="middle" x="65.4469" y="-302.3" font-family="Times,serif" font-size="14.00">Node2</text>
</a>
</g>
</g>
<!-- Node0&#45;&gt;Node2 -->
<g id="edge2" class="edge"><title>Node0&#45;&gt;Node2</title>
<path fill="none" stroke="black" d="M41.7935,-360.411C45.3699,-352.335 49.756,-342.431 53.7756,-333.355"/>
<polygon fill="black" stroke="black" points="57.0887,-334.517 57.9378,-323.956 50.6882,-331.682 57.0887,-334.517"/>
</g>
<!-- Node3 -->
<g id="node4" class="node"><title>Node3</title>
<g id="a_node4"><a xlink:title="0x400be9 to 0x400bff">
<ellipse fill="none" stroke="black" cx="65.4469" cy="-234" rx="34.394" ry="18"/>
<text text-anchor="middle" x="65.4469" y="-230.3" font-family="Times,serif" font-size="14.00">Node3</text>
</a>
</g>
</g>
<!-- Node2&#45;&gt;Node3 -->
<g id="edge3" class="edge"><title>Node2&#45;&gt;Node3</title>
<path fill="none" stroke="black" d="M65.4469,-287.697C65.4469,-279.983 65.4469,-270.712 65.4469,-262.112"/>
<polygon fill="black" stroke="black" points="68.947,-262.104 65.4469,-252.104 61.947,-262.104 68.947,-262.104"/>
</g>
<!-- Node4 -->
<g id="node5" class="node"><title>Node4</title>
<g id="a_node5"><a xlink:title="0x400bc8 to 0x400be7">
<ellipse fill="none" stroke="black" cx="65.4469" cy="-162" rx="34.394" ry="18"/>
<text text-anchor="middle" x="65.4469" y="-158.3" font-family="Times,serif" font-size="14.00">Node4</text>
</a>
</g>
</g>
<!-- Node3&#45;&gt;Node4 -->
<g id="edge4" class="edge"><title>Node3&#45;&gt;Node4</title>
<path fill="none" stroke="black" d="M59.5687,-216.055C58.7384,-208.231 58.5012,-198.748 58.8571,-189.977"/>
<polygon fill="black" stroke="black" points="62.3634,-190.013 59.5854,-179.789 55.3812,-189.514 62.3634,-190.013"/>
</g>
<!-- Node6 -->
<g id="node6" class="node"><title>Node6</title>
<g id="a_node6"><a xlink:title="0x400c01 to 0x400c17">
<ellipse fill="none" stroke="black" cx="152.447" cy="-162" rx="34.394" ry="18"/>
<text text-anchor="middle" x="152.447" y="-158.3" font-family="Times,serif" font-size="14.00">Node6</text>
</a>
</g>
</g>
<!-- Node3&#45;&gt;Node6 -->
<g id="edge5" class="edge"><title>Node3&#45;&gt;Node6</title>
<path fill="none" stroke="black" d="M83.4734,-218.496C95.8384,-208.547 112.443,-195.187 126.262,-184.068"/>
<polygon fill="black" stroke="black" points="128.846,-186.481 134.444,-177.485 124.458,-181.027 128.846,-186.481"/>
</g>
<!-- Node4&#45;&gt;Node3 -->
<g id="edge6" class="edge"><title>Node4&#45;&gt;Node3</title>
<path fill="none" stroke="black" d="M71.3085,-179.789C72.1467,-187.591 72.3918,-197.067 72.0438,-205.848"/>
<polygon fill="black" stroke="black" points="68.5362,-205.834 71.3252,-216.055 75.5189,-206.325 68.5362,-205.834"/>
</g>
<!-- Node5 -->
<g id="node7" class="node"><title>Node5</title>
<g id="a_node7"><a xlink:title="0x400c32 to 0x400c69">
<ellipse fill="none" stroke="black" cx="65.4469" cy="-90" rx="34.394" ry="18"/>
<text text-anchor="middle" x="65.4469" y="-86.3" font-family="Times,serif" font-size="14.00">Node5</text>
</a>
</g>
</g>
<!-- Node4&#45;&gt;Node5 -->
<g id="edge7" class="edge"><title>Node4&#45;&gt;Node5</title>
<path fill="none" stroke="black" d="M65.4469,-143.697C65.4469,-135.983 65.4469,-126.712 65.4469,-118.112"/>
<polygon fill="black" stroke="black" points="68.947,-118.104 65.4469,-108.104 61.947,-118.104 68.947,-118.104"/>
</g>
<!-- Node6&#45;&gt;Node1 -->
<g id="edge8" class="edge"><title>Node6&#45;&gt;Node1</title>
<path fill="none" stroke="black" d="M149.431,-143.871C145.171,-119.67 137.343,-75.2108 132.27,-46.3932"/>
<polygon fill="black" stroke="black" points="135.654,-45.4309 130.473,-36.1893 128.76,-46.6447 135.654,-45.4309"/>
</g>
<!-- Node7 -->
<g id="node8" class="node"><title>Node7</title>
<g id="a_node8"><a xlink:title="0x400c08 to 0x400c17">
<ellipse fill="none" stroke="black" cx="189.447" cy="-90" rx="34.394" ry="18"/>
<text text-anchor="middle" x="189.447" y="-86.3" font-family="Times,serif" font-size="14.00">Node7</text>
</a>
</g>
</g>
<!-- Node6&#45;&gt;Node7 -->
<g id="edge9" class="edge"><title>Node6&#45;&gt;Node7</title>
<path fill="none" stroke="black" d="M161.215,-144.411C165.639,-136.042 171.1,-125.71 176.037,-116.37"/>
<polygon fill="black" stroke="black" points="179.163,-117.947 180.741,-107.47 172.974,-114.675 179.163,-117.947"/>
</g>
<!-- Node7&#45;&gt;Node1 -->
<g id="edge10" class="edge"><title>Node7&#45;&gt;Node1</title>
<path fill="none" stroke="black" d="M175.687,-73.4647C167.693,-64.4386 157.455,-52.88 148.469,-42.7349"/>
<polygon fill="black" stroke="black" points="150.849,-40.1424 141.598,-34.9772 145.608,-44.7837 150.849,-40.1424"/>
</g>
<!-- Node7&#45;&gt;Node7 -->
<g id="edge11" class="edge"><title>Node7&#45;&gt;Node7</title>
<path fill="none" stroke="black" d="M213.996,-102.708C228.406,-105.416 241.894,-101.18 241.894,-90 241.894,-81.5279 234.148,-77.0434 224.125,-76.5464"/>
<polygon fill="black" stroke="black" points="223.712,-73.0673 213.996,-77.2918 224.226,-80.0484 223.712,-73.0673"/>
</g>
</g>
</svg>
