<?xml version="1.0" encoding="UTF-8" standalone="no"?>
<!DOCTYPE svg PUBLIC "-//W3C//DTD SVG 1.1//EN"
 "http://www.w3.org/Graphics/SVG/1.1/DTD/svg11.dtd">
<!-- Generated by graphviz version 2.38.0 (20140413.2041)
 -->
<!-- Title: G Pages: 1 -->
<svg width="135pt" height="332pt"
 viewBox="0.00 0.00 135.19 332.00" xmlns="http://www.w3.org/2000/svg" xmlns:xlink="http://www.w3.org/1999/xlink">
<g id="graph0" class="graph" transform="scale(1 1) rotate(0) translate(4 328)">
<title>G</title>
<polygon fill="white" stroke="none" points="-4,4 -4,-328 131.193,-328 131.193,4 -4,4"/>
<!-- Node0 -->
<g id="node1" class="node"><title>Node0</title>
<g id="a_node1"><a xlink:title="0x0 to 0x2c">
<ellipse fill="none" stroke="black" cx="85.5963" cy="-306" rx="41.6928" ry="18"/>
<text text-anchor="middle" x="85.5963" y="-302.3" font-family="Times,serif" font-size="14.00">Node0</text>
</a>
</g>
</g>
<!-- Node1 -->
<g id="node2" class="node"><title>Node1</title>
<g id="a_node2"><a xlink:title="0x3f to 0x50">
<ellipse fill="none" stroke="black" cx="85.5963" cy="-234" rx="41.6928" ry="18"/>
<text text-anchor="middle" x="85.5963" y="-230.3" font-family="Times,serif" font-size="14.00">Node1</text>
</a>
</g>
</g>
<!-- Node0&#45;&gt;Node1 -->
<g id="edge1" class="edge"><title>Node0&#45;&gt;Node1</title>
<path fill="none" stroke="black" d="M85.5963,-287.697C85.5963,-279.983 85.5963,-270.712 85.5963,-262.112"/>
<polygon fill="black" stroke="black" points="89.0964,-262.104 85.5963,-252.104 82.0964,-262.104 89.0964,-262.104"/>
</g>
<!-- Node2 -->
<g id="node3" class="node"><title>Node2</title>
<g id="a_node3"><a xlink:title="0x30 to 0x50">
<ellipse fill="none" stroke="black" cx="41.5963" cy="-162" rx="41.6928" ry="18"/>
<text text-anchor="middle" x="41.5963" y="-158.3" font-family="Times,serif" font-size="14.00">Node2</text>
</a>
</g>
</g>
<!-- Node1&#45;&gt;Node2 -->
<g id="edge2" class="edge"><title>Node1&#45;&gt;Node2</title>
<path fill="none" stroke="black" d="M75.1689,-216.411C69.8537,-207.955 63.2785,-197.494 57.3598,-188.078"/>
<polygon fill="black" stroke="black" points="60.2338,-186.074 51.9488,-179.47 54.3074,-189.799 60.2338,-186.074"/>
</g>
<!-- Node3 -->
<g id="node4" class="node"><title>Node3</title>
<g id="a_node4"><a xlink:title="0x52 to 0x62">
<ellipse fill="none" stroke="black" cx="85.5963" cy="-90" rx="41.6928" ry="18"/>
<text text-anchor="middle" x="85.5963" y="-86.3" font-family="Times,serif" font-size="14.00">Node3</text>
</a>
</g>
</g>
<!-- Node1&#45;&gt;Node3 -->
<g id="edge3" class="edge"><title>Node1&#45;&gt;Node3</title>
<path fill="none" stroke="black" d="M95.7023,-216.5C101.304,-206.372 107.705,-192.906 110.596,-180 114.094,-164.387 114.094,-159.613 110.596,-144 108.496,-134.623 104.542,-124.951 100.388,-116.477"/>
<polygon fill="black" stroke="black" points="103.432,-114.745 95.7023,-107.5 97.227,-117.984 103.432,-114.745"/>
</g>
<!-- Node2&#45;&gt;Node2 -->
<g id="edge4" class="edge"><title>Node2&#45;&gt;Node2</title>
<path fill="none" stroke="black" d="M70.7255,-174.899C86.6276,-177.198 101.193,-172.898 101.193,-162 101.193,-153.486 92.3028,-148.999 80.8308,-148.539"/>
<polygon fill="black" stroke="black" points="80.516,-145.051 70.7255,-149.101 80.9043,-152.041 80.516,-145.051"/>
</g>
<!-- Node2&#45;&gt;Node3 -->
<g id="edge5" class="edge"><title>Node2&#45;&gt;Node3</title>
<path fill="none" stroke="black" d="M52.0237,-144.411C57.339,-135.955 63.9141,-125.494 69.8328,-116.078"/>
<polygon fill="black" stroke="black" points="72.8852,-117.799 75.2438,-107.47 66.9588,-114.074 72.8852,-117.799"/>
</g>
<!-- Node4 -->
<g id="node5" class="node"><title>Node4</title>
<g id="a_node5"><a xlink:title="0x64 to 0x6e">
<ellipse fill="none" stroke="black" cx="85.5963" cy="-18" rx="41.6928" ry="18"/>
<text text-anchor="middle" x="85.5963" y="-14.3" font-family="Times,serif" font-size="14.00">Node4</text>
</a>
</g>
</g>
<!-- Node3&#45;&gt;Node4 -->
<g id="edge6" class="edge"><title>Node3&#45;&gt;Node4</title>
<path fill="none" stroke="black" d="M85.5963,-71.6966C85.5963,-63.9827 85.5963,-54.7125 85.5963,-46.1124"/>
<polygon fill="black" stroke="black" points="89.0964,-46.1043 85.5963,-36.1043 82.0964,-46.1044 89.0964,-46.1043"/>
</g>
</g>
</svg>
