<?xml version="1.0" encoding="UTF-8" standalone="no"?>
<!DOCTYPE svg PUBLIC "-//W3C//DTD SVG 1.1//EN"
 "http://www.w3.org/Graphics/SVG/1.1/DTD/svg11.dtd">
<!-- Generated by graphviz version 2.38.0 (20140413.2041)
 -->
<!-- Title: G Pages: 1 -->
<svg width="220pt" height="260pt"
 viewBox="0.00 0.00 219.89 260.00" xmlns="http://www.w3.org/2000/svg" xmlns:xlink="http://www.w3.org/1999/xlink">
<g id="graph0" class="graph" transform="scale(1 1) rotate(0) translate(4 256)">
<title>G</title>
<polygon fill="white" stroke="none" points="-4,4 -4,-256 215.894,-256 215.894,4 -4,4"/>
<!-- Node0 -->
<g id="node1" class="node"><title>Node0</title>
<g id="a_node1"><a xlink:title="0x4008c0 to 0x4008ea">
<ellipse fill="none" stroke="black" cx="77.4469" cy="-234" rx="34.394" ry="18"/>
<text text-anchor="middle" x="77.4469" y="-230.3" font-family="Times,serif" font-size="14.00">Node0</text>
</a>
</g>
</g>
<!-- Node1 -->
<g id="node2" class="node"><title>Node1</title>
<g id="a_node2"><a xlink:title="0x40093d to 0x400949">
<ellipse fill="none" stroke="black" cx="34.4469" cy="-162" rx="34.394" ry="18"/>
<text text-anchor="middle" x="34.4469" y="-158.3" font-family="Times,serif" font-size="14.00">Node1</text>
</a>
</g>
</g>
<!-- Node0&#45;&gt;Node1 -->
<g id="edge1" class="edge"><title>Node0&#45;&gt;Node1</title>
<path fill="none" stroke="black" d="M67.4738,-216.765C62.2847,-208.317 55.8237,-197.799 49.9959,-188.312"/>
<polygon fill="black" stroke="black" points="52.8811,-186.322 44.6646,-179.633 46.9166,-189.986 52.8811,-186.322"/>
</g>
<!-- Node2 -->
<g id="node3" class="node"><title>Node2</title>
<g id="a_node3"><a xlink:title="0x4008ec to 0x400902">
<ellipse fill="none" stroke="black" cx="121.447" cy="-162" rx="34.394" ry="18"/>
<text text-anchor="middle" x="121.447" y="-158.3" font-family="Times,serif" font-size="14.00">Node2</text>
</a>
</g>
</g>
<!-- Node0&#45;&gt;Node2 -->
<g id="edge2" class="edge"><title>Node0&#45;&gt;Node2</title>
<path fill="none" stroke="black" d="M87.652,-216.765C92.9618,-208.317 99.5731,-197.799 105.536,-188.312"/>
<polygon fill="black" stroke="black" points="108.633,-189.962 110.992,-179.633 102.707,-186.237 108.633,-189.962"/>
</g>
<!-- Node3 -->
<g id="node4" class="node"><title>Node3</title>
<g id="a_node4"><a xlink:title="0x400950 to 0x40096c">
<ellipse fill="none" stroke="black" cx="90.4469" cy="-18" rx="34.394" ry="18"/>
<text text-anchor="middle" x="90.4469" y="-14.3" font-family="Times,serif" font-size="14.00">Node3</text>
</a>
</g>
</g>
<!-- Node2&#45;&gt;Node3 -->
<g id="edge3" class="edge"><title>Node2&#45;&gt;Node3</title>
<path fill="none" stroke="black" d="M117.502,-143.826C115.135,-133.458 112.081,-119.978 109.447,-108 104.894,-87.2987 99.895,-63.8526 96.1679,-46.2237"/>
<polygon fill="black" stroke="black" points="99.5159,-45.1375 94.027,-36.0754 92.6666,-46.5826 99.5159,-45.1375"/>
</g>
<!-- Node4 -->
<g id="node5" class="node"><title>Node4</title>
<g id="a_node5"><a xlink:title="0x400904 to 0x400918">
<ellipse fill="none" stroke="black" cx="152.447" cy="-90" rx="34.394" ry="18"/>
<text text-anchor="middle" x="152.447" y="-86.3" font-family="Times,serif" font-size="14.00">Node4</text>
</a>
</g>
</g>
<!-- Node2&#45;&gt;Node4 -->
<g id="edge4" class="edge"><title>Node2&#45;&gt;Node4</title>
<path fill="none" stroke="black" d="M128.794,-144.411C132.37,-136.335 136.756,-126.431 140.776,-117.355"/>
<polygon fill="black" stroke="black" points="144.089,-118.517 144.938,-107.956 137.688,-115.682 144.089,-118.517"/>
</g>
<!-- Node4&#45;&gt;Node3 -->
<g id="edge5" class="edge"><title>Node4&#45;&gt;Node3</title>
<path fill="none" stroke="black" d="M138.687,-73.4647C130.693,-64.4386 120.455,-52.88 111.469,-42.7349"/>
<polygon fill="black" stroke="black" points="113.849,-40.1424 104.598,-34.9772 108.608,-44.7837 113.849,-40.1424"/>
</g>
<!-- Node5 -->
<g id="node6" class="node"><title>Node5</title>
<g id="a_node6"><a xlink:title="0x40091a to 0x400949">
<ellipse fill="none" stroke="black" cx="177.447" cy="-18" rx="34.394" ry="18"/>
<text text-anchor="middle" x="177.447" y="-14.3" font-family="Times,serif" font-size="14.00">Node5</text>
</a>
</g>
</g>
<!-- Node4&#45;&gt;Node5 -->
<g id="edge6" class="edge"><title>Node4&#45;&gt;Node5</title>
<path fill="none" stroke="black" d="M158.499,-72.055C161.355,-64.0586 164.829,-54.3308 168.019,-45.3995"/>
<polygon fill="black" stroke="black" points="171.384,-46.3836 171.451,-35.789 164.791,-44.0292 171.384,-46.3836"/>
</g>
</g>
</svg>
