<?xml version="1.0" encoding="UTF-8" standalone="no"?>
<!DOCTYPE svg PUBLIC "-//W3C//DTD SVG 1.1//EN"
 "http://www.w3.org/Graphics/SVG/1.1/DTD/svg11.dtd">
<!-- Generated by graphviz version 2.38.0 (20140413.2041)
 -->
<!-- Title: G Pages: 1 -->
<svg width="244pt" height="404pt"
 viewBox="0.00 0.00 243.89 404.00" xmlns="http://www.w3.org/2000/svg" xmlns:xlink="http://www.w3.org/1999/xlink">
<g id="graph0" class="graph" transform="scale(1 1) rotate(0) translate(4 400)">
<title>G</title>
<polygon fill="white" stroke="none" points="-4,4 -4,-400 239.894,-400 239.894,4 -4,4"/>
<!-- Node0 -->
<g id="node1" class="node"><title>Node0</title>
<g id="a_node1"><a xlink:title="0x400d80 to 0x400dad">
<ellipse fill="none" stroke="black" cx="77.4469" cy="-378" rx="34.394" ry="18"/>
<text text-anchor="middle" x="77.4469" y="-374.3" font-family="Times,serif" font-size="14.00">Node0</text>
</a>
</g>
</g>
<!-- Node1 -->
<g id="node2" class="node"><title>Node1</title>
<g id="a_node2"><a xlink:title="0x400e56 to 0x400e5c">
<ellipse fill="none" stroke="black" cx="34.4469" cy="-306" rx="34.394" ry="18"/>
<text text-anchor="middle" x="34.4469" y="-302.3" font-family="Times,serif" font-size="14.00">Node1</text>
</a>
</g>
</g>
<!-- Node0&#45;&gt;Node1 -->
<g id="edge1" class="edge"><title>Node0&#45;&gt;Node1</title>
<path fill="none" stroke="black" d="M67.4738,-360.765C62.2847,-352.317 55.8237,-341.799 49.9959,-332.312"/>
<polygon fill="black" stroke="black" points="52.8811,-330.322 44.6646,-323.633 46.9166,-333.986 52.8811,-330.322"/>
</g>
<!-- Node3 -->
<g id="node3" class="node"><title>Node3</title>
<g id="a_node3"><a xlink:title="0x400db3 to 0x400ddd">
<ellipse fill="none" stroke="black" cx="121.447" cy="-306" rx="34.394" ry="18"/>
<text text-anchor="middle" x="121.447" y="-302.3" font-family="Times,serif" font-size="14.00">Node3</text>
</a>
</g>
</g>
<!-- Node0&#45;&gt;Node3 -->
<g id="edge2" class="edge"><title>Node0&#45;&gt;Node3</title>
<path fill="none" stroke="black" d="M87.652,-360.765C92.9618,-352.317 99.5731,-341.799 105.536,-332.312"/>
<polygon fill="black" stroke="black" points="108.633,-333.962 110.992,-323.633 102.707,-330.237 108.633,-333.962"/>
</g>
<!-- Node2 -->
<g id="node4" class="node"><title>Node2</title>
<g id="a_node4"><a xlink:title="0x400e19 to 0x400e4c">
<ellipse fill="none" stroke="black" cx="34.4469" cy="-162" rx="34.394" ry="18"/>
<text text-anchor="middle" x="34.4469" y="-158.3" font-family="Times,serif" font-size="14.00">Node2</text>
</a>
</g>
</g>
<!-- Node1&#45;&gt;Node2 -->
<g id="edge3" class="edge"><title>Node1&#45;&gt;Node2</title>
<path fill="none" stroke="black" d="M34.4469,-287.871C34.4469,-263.67 34.4469,-219.211 34.4469,-190.393"/>
<polygon fill="black" stroke="black" points="37.947,-190.189 34.4469,-180.189 30.947,-190.189 37.947,-190.189"/>
</g>
<!-- Node4 -->
<g id="node5" class="node"><title>Node4</title>
<g id="a_node5"><a xlink:title="0x400e0f to 0x400e17">
<ellipse fill="none" stroke="black" cx="114.447" cy="-234" rx="34.394" ry="18"/>
<text text-anchor="middle" x="114.447" y="-230.3" font-family="Times,serif" font-size="14.00">Node4</text>
</a>
</g>
</g>
<!-- Node3&#45;&gt;Node4 -->
<g id="edge4" class="edge"><title>Node3&#45;&gt;Node4</title>
<path fill="none" stroke="black" d="M119.717,-287.697C118.945,-279.983 118.018,-270.712 117.158,-262.112"/>
<polygon fill="black" stroke="black" points="120.635,-261.706 116.157,-252.104 113.67,-262.403 120.635,-261.706"/>
</g>
<!-- Node8 -->
<g id="node6" class="node"><title>Node8</title>
<g id="a_node6"><a xlink:title="0x400ddf to 0x400ddf">
<ellipse fill="none" stroke="black" cx="201.447" cy="-234" rx="34.394" ry="18"/>
<text text-anchor="middle" x="201.447" y="-230.3" font-family="Times,serif" font-size="14.00">Node8</text>
</a>
</g>
</g>
<!-- Node3&#45;&gt;Node8 -->
<g id="edge5" class="edge"><title>Node3&#45;&gt;Node8</title>
<path fill="none" stroke="black" d="M138.413,-290.155C149.55,-280.41 164.3,-267.503 176.732,-256.626"/>
<polygon fill="black" stroke="black" points="179.284,-259.043 184.505,-249.824 174.675,-253.775 179.284,-259.043"/>
</g>
<!-- Node4&#45;&gt;Node2 -->
<g id="edge6" class="edge"><title>Node4&#45;&gt;Node2</title>
<path fill="none" stroke="black" d="M97.481,-218.155C86.3442,-208.41 71.5937,-195.503 59.1619,-184.626"/>
<polygon fill="black" stroke="black" points="61.219,-181.775 51.3884,-177.824 56.6094,-187.043 61.219,-181.775"/>
</g>
<!-- Node5 -->
<g id="node7" class="node"><title>Node5</title>
<g id="a_node7"><a xlink:title="0x400de8 to 0x400e0d">
<ellipse fill="none" stroke="black" cx="121.447" cy="-162" rx="34.394" ry="18"/>
<text text-anchor="middle" x="121.447" y="-158.3" font-family="Times,serif" font-size="14.00">Node5</text>
</a>
</g>
</g>
<!-- Node4&#45;&gt;Node5 -->
<g id="edge7" class="edge"><title>Node4&#45;&gt;Node5</title>
<path fill="none" stroke="black" d="M110.263,-216.055C110.215,-208.145 110.942,-198.54 112.2,-189.688"/>
<polygon fill="black" stroke="black" points="115.657,-190.238 113.906,-179.789 108.759,-189.049 115.657,-190.238"/>
</g>
<!-- Node6 -->
<g id="node8" class="node"><title>Node6</title>
<g id="a_node8"><a xlink:title="0x400e50 to 0x400e54">
<ellipse fill="none" stroke="black" cx="155.447" cy="-90" rx="34.394" ry="18"/>
<text text-anchor="middle" x="155.447" y="-86.3" font-family="Times,serif" font-size="14.00">Node6</text>
</a>
</g>
</g>
<!-- Node8&#45;&gt;Node6 -->
<g id="edge11" class="edge"><title>Node8&#45;&gt;Node6</title>
<path fill="none" stroke="black" d="M195.99,-216.153C188.105,-191.813 173.448,-146.568 164.085,-117.665"/>
<polygon fill="black" stroke="black" points="167.309,-116.26 160.897,-107.825 160.649,-118.417 167.309,-116.26"/>
</g>
<!-- Node5&#45;&gt;Node4 -->
<g id="edge8" class="edge"><title>Node5&#45;&gt;Node4</title>
<path fill="none" stroke="black" d="M125.631,-179.956C125.679,-187.914 124.942,-197.584 123.67,-206.477"/>
<polygon fill="black" stroke="black" points="120.208,-205.96 121.946,-216.411 127.105,-207.157 120.208,-205.96"/>
</g>
<!-- Node5&#45;&gt;Node6 -->
<g id="edge9" class="edge"><title>Node5&#45;&gt;Node6</title>
<path fill="none" stroke="black" d="M129.504,-144.411C133.469,-136.249 138.34,-126.22 142.787,-117.065"/>
<polygon fill="black" stroke="black" points="145.99,-118.48 147.211,-107.956 139.694,-115.422 145.99,-118.48"/>
</g>
<!-- Node7 -->
<g id="node9" class="node"><title>Node7</title>
<g id="a_node9"><a xlink:title="0x400e2b to 0x400e4c">
<ellipse fill="none" stroke="black" cx="155.447" cy="-18" rx="34.394" ry="18"/>
<text text-anchor="middle" x="155.447" y="-14.3" font-family="Times,serif" font-size="14.00">Node7</text>
</a>
</g>
</g>
<!-- Node6&#45;&gt;Node7 -->
<g id="edge10" class="edge"><title>Node6&#45;&gt;Node7</title>
<path fill="none" stroke="black" d="M155.447,-71.6966C155.447,-63.9827 155.447,-54.7125 155.447,-46.1124"/>
<polygon fill="black" stroke="black" points="158.947,-46.1043 155.447,-36.1043 151.947,-46.1044 158.947,-46.1043"/>
</g>
</g>
</svg>
