<?xml version="1.0" encoding="UTF-8" standalone="no"?>
<!DOCTYPE svg PUBLIC "-//W3C//DTD SVG 1.1//EN"
 "http://www.w3.org/Graphics/SVG/1.1/DTD/svg11.dtd">
<!-- Generated by graphviz version 2.38.0 (20140413.2041)
 -->
<!-- Title: G Pages: 1 -->
<svg width="164pt" height="260pt"
 viewBox="0.00 0.00 163.89 260.00" xmlns="http://www.w3.org/2000/svg" xmlns:xlink="http://www.w3.org/1999/xlink">
<g id="graph0" class="graph" transform="scale(1 1) rotate(0) translate(4 256)">
<title>G</title>
<polygon fill="white" stroke="none" points="-4,4 -4,-256 159.894,-256 159.894,4 -4,4"/>
<!-- Node0 -->
<g id="node1" class="node"><title>Node0</title>
<g id="a_node1"><a xlink:title="0x400c30 to 0x400c38">
<ellipse fill="none" stroke="black" cx="34.4469" cy="-234" rx="34.394" ry="18"/>
<text text-anchor="middle" x="34.4469" y="-230.3" font-family="Times,serif" font-size="14.00">Node0</text>
</a>
</g>
</g>
<!-- Node1 -->
<g id="node2" class="node"><title>Node1</title>
<g id="a_node2"><a xlink:title="0x400c57 to 0x400c57">
<ellipse fill="none" stroke="black" cx="41.4469" cy="-18" rx="34.394" ry="18"/>
<text text-anchor="middle" x="41.4469" y="-14.3" font-family="Times,serif" font-size="14.00">Node1</text>
</a>
</g>
</g>
<!-- Node0&#45;&gt;Node1 -->
<g id="edge1" class="edge"><title>Node0&#45;&gt;Node1</title>
<path fill="none" stroke="black" d="M29.5778,-215.979C26.8827,-205.665 23.8095,-192.189 22.4469,-180 17.1653,-132.755 27.1243,-77.7666 34.512,-45.8196"/>
<polygon fill="black" stroke="black" points="37.9591,-46.4543 36.8931,-35.9133 31.1529,-44.8184 37.9591,-46.4543"/>
</g>
<!-- Node2 -->
<g id="node3" class="node"><title>Node2</title>
<g id="a_node3"><a xlink:title="0x400c3a to 0x400c55">
<ellipse fill="none" stroke="black" cx="65.4469" cy="-162" rx="34.394" ry="18"/>
<text text-anchor="middle" x="65.4469" y="-158.3" font-family="Times,serif" font-size="14.00">Node2</text>
</a>
</g>
</g>
<!-- Node0&#45;&gt;Node2 -->
<g id="edge2" class="edge"><title>Node0&#45;&gt;Node2</title>
<path fill="none" stroke="black" d="M41.7935,-216.411C45.3699,-208.335 49.756,-198.431 53.7756,-189.355"/>
<polygon fill="black" stroke="black" points="57.0887,-190.517 57.9378,-179.956 50.6882,-187.682 57.0887,-190.517"/>
</g>
<!-- Node2&#45;&gt;Node1 -->
<g id="edge3" class="edge"><title>Node2&#45;&gt;Node1</title>
<path fill="none" stroke="black" d="M62.552,-143.871C58.4616,-119.67 50.9474,-75.2108 46.0768,-46.3932"/>
<polygon fill="black" stroke="black" points="49.4698,-45.4661 44.3522,-36.1893 42.5677,-46.6327 49.4698,-45.4661"/>
</g>
<!-- Node3 -->
<g id="node4" class="node"><title>Node3</title>
<g id="a_node4"><a xlink:title="0x400c40 to 0x400c55">
<ellipse fill="none" stroke="black" cx="103.447" cy="-90" rx="34.394" ry="18"/>
<text text-anchor="middle" x="103.447" y="-86.3" font-family="Times,serif" font-size="14.00">Node3</text>
</a>
</g>
</g>
<!-- Node2&#45;&gt;Node3 -->
<g id="edge4" class="edge"><title>Node2&#45;&gt;Node3</title>
<path fill="none" stroke="black" d="M74.4524,-144.411C78.9955,-136.042 84.6045,-125.71 89.6748,-116.37"/>
<polygon fill="black" stroke="black" points="92.8111,-117.928 94.5061,-107.47 86.6592,-114.589 92.8111,-117.928"/>
</g>
<!-- Node3&#45;&gt;Node1 -->
<g id="edge5" class="edge"><title>Node3&#45;&gt;Node1</title>
<path fill="none" stroke="black" d="M89.6871,-73.4647C81.6925,-64.4386 71.4549,-52.88 62.4693,-42.7349"/>
<polygon fill="black" stroke="black" points="64.8486,-40.1424 55.5981,-34.9772 59.6085,-44.7837 64.8486,-40.1424"/>
</g>
<!-- Node3&#45;&gt;Node3 -->
<g id="edge6" class="edge"><title>Node3&#45;&gt;Node3</title>
<path fill="none" stroke="black" d="M127.996,-102.708C142.406,-105.416 155.894,-101.18 155.894,-90 155.894,-81.5279 148.148,-77.0434 138.125,-76.5464"/>
<polygon fill="black" stroke="black" points="137.712,-73.0673 127.996,-77.2918 138.226,-80.0484 137.712,-73.0673"/>
</g>
</g>
</svg>
