<?xml version="1.0" encoding="UTF-8" standalone="no"?>
<!DOCTYPE svg PUBLIC "-//W3C//DTD SVG 1.1//EN"
 "http://www.w3.org/Graphics/SVG/1.1/DTD/svg11.dtd">
<!-- Generated by graphviz version 2.38.0 (20140413.2041)
 -->
<!-- Title: G Pages: 1 -->
<svg width="313pt" height="404pt"
 viewBox="0.00 0.00 312.89 404.00" xmlns="http://www.w3.org/2000/svg" xmlns:xlink="http://www.w3.org/1999/xlink">
<g id="graph0" class="graph" transform="scale(1 1) rotate(0) translate(4 400)">
<title>G</title>
<polygon fill="white" stroke="none" points="-4,4 -4,-400 308.894,-400 308.894,4 -4,4"/>
<!-- Node0 -->
<g id="node1" class="node"><title>Node0</title>
<g id="a_node1"><a xlink:title="0x4009d0 to 0x400a5f">
<ellipse fill="none" stroke="black" cx="152.447" cy="-378" rx="34.394" ry="18"/>
<text text-anchor="middle" x="152.447" y="-374.3" font-family="Times,serif" font-size="14.00">Node0</text>
</a>
</g>
</g>
<!-- Node1 -->
<g id="node2" class="node"><title>Node1</title>
<g id="a_node2"><a xlink:title="0x400a88 to 0x400ae4">
<ellipse fill="none" stroke="black" cx="121.447" cy="-306" rx="34.394" ry="18"/>
<text text-anchor="middle" x="121.447" y="-302.3" font-family="Times,serif" font-size="14.00">Node1</text>
</a>
</g>
</g>
<!-- Node0&#45;&gt;Node1 -->
<g id="edge1" class="edge"><title>Node0&#45;&gt;Node1</title>
<path fill="none" stroke="black" d="M145.1,-360.411C141.524,-352.335 137.138,-342.431 133.118,-333.355"/>
<polygon fill="black" stroke="black" points="136.206,-331.682 128.956,-323.956 129.805,-334.517 136.206,-331.682"/>
</g>
<!-- Node3 -->
<g id="node3" class="node"><title>Node3</title>
<g id="a_node3"><a xlink:title="0x400a61 to 0x400a6f">
<ellipse fill="none" stroke="black" cx="183.447" cy="-162" rx="34.394" ry="18"/>
<text text-anchor="middle" x="183.447" y="-158.3" font-family="Times,serif" font-size="14.00">Node3</text>
</a>
</g>
</g>
<!-- Node0&#45;&gt;Node3 -->
<g id="edge2" class="edge"><title>Node0&#45;&gt;Node3</title>
<path fill="none" stroke="black" d="M156.798,-359.906C159.309,-349.566 162.371,-336.088 164.447,-324 172.458,-277.35 178.143,-222.512 181.101,-190.375"/>
<polygon fill="black" stroke="black" points="184.624,-190.279 182.033,-180.005 177.652,-189.652 184.624,-190.279"/>
</g>
<!-- Node2 -->
<g id="node4" class="node"><title>Node2</title>
<g id="a_node4"><a xlink:title="0x400b90 to 0x400b9a">
<ellipse fill="none" stroke="black" cx="121.447" cy="-234" rx="34.394" ry="18"/>
<text text-anchor="middle" x="121.447" y="-230.3" font-family="Times,serif" font-size="14.00">Node2</text>
</a>
</g>
</g>
<!-- Node1&#45;&gt;Node2 -->
<g id="edge3" class="edge"><title>Node1&#45;&gt;Node2</title>
<path fill="none" stroke="black" d="M121.447,-287.697C121.447,-279.983 121.447,-270.712 121.447,-262.112"/>
<polygon fill="black" stroke="black" points="124.947,-262.104 121.447,-252.104 117.947,-262.104 124.947,-262.104"/>
</g>
<!-- Node6 -->
<g id="node5" class="node"><title>Node6</title>
<g id="a_node5"><a xlink:title="0x400b11 to 0x400b19">
<ellipse fill="none" stroke="black" cx="34.4469" cy="-234" rx="34.394" ry="18"/>
<text text-anchor="middle" x="34.4469" y="-230.3" font-family="Times,serif" font-size="14.00">Node6</text>
</a>
</g>
</g>
<!-- Node1&#45;&gt;Node6 -->
<g id="edge4" class="edge"><title>Node1&#45;&gt;Node6</title>
<path fill="none" stroke="black" d="M103.42,-290.496C91.0555,-280.547 74.4505,-267.187 60.6317,-256.068"/>
<polygon fill="black" stroke="black" points="62.4356,-253.027 52.4503,-249.485 58.0474,-258.481 62.4356,-253.027"/>
</g>
<!-- Node4 -->
<g id="node6" class="node"><title>Node4</title>
<g id="a_node6"><a xlink:title="0x400a75 to 0x400a83">
<ellipse fill="none" stroke="black" cx="270.447" cy="-90" rx="34.394" ry="18"/>
<text text-anchor="middle" x="270.447" y="-86.3" font-family="Times,serif" font-size="14.00">Node4</text>
</a>
</g>
</g>
<!-- Node3&#45;&gt;Node4 -->
<g id="edge6" class="edge"><title>Node3&#45;&gt;Node4</title>
<path fill="none" stroke="black" d="M201.473,-146.496C213.838,-136.547 230.443,-123.187 244.262,-112.068"/>
<polygon fill="black" stroke="black" points="246.846,-114.481 252.444,-105.485 242.458,-109.027 246.846,-114.481"/>
</g>
<!-- Node5 -->
<g id="node7" class="node"><title>Node5</title>
<g id="a_node7"><a xlink:title="0x400aea to 0x400aef">
<ellipse fill="none" stroke="black" cx="183.447" cy="-90" rx="34.394" ry="18"/>
<text text-anchor="middle" x="183.447" y="-86.3" font-family="Times,serif" font-size="14.00">Node5</text>
</a>
</g>
</g>
<!-- Node3&#45;&gt;Node5 -->
<g id="edge7" class="edge"><title>Node3&#45;&gt;Node5</title>
<path fill="none" stroke="black" d="M183.447,-143.697C183.447,-135.983 183.447,-126.712 183.447,-118.112"/>
<polygon fill="black" stroke="black" points="186.947,-118.104 183.447,-108.104 179.947,-118.104 186.947,-118.104"/>
</g>
<!-- Node2&#45;&gt;Node3 -->
<g id="edge5" class="edge"><title>Node2&#45;&gt;Node3</title>
<path fill="none" stroke="black" d="M135.207,-217.465C143.201,-208.439 153.439,-196.88 162.425,-186.735"/>
<polygon fill="black" stroke="black" points="165.285,-188.784 169.296,-178.977 160.045,-184.142 165.285,-188.784"/>
</g>
<!-- Node8 -->
<g id="node9" class="node"><title>Node8</title>
<g id="a_node9"><a xlink:title="0x400b1b to 0x400b88">
<ellipse fill="none" stroke="black" cx="34.4469" cy="-162" rx="34.394" ry="18"/>
<text text-anchor="middle" x="34.4469" y="-158.3" font-family="Times,serif" font-size="14.00">Node8</text>
</a>
</g>
</g>
<!-- Node6&#45;&gt;Node8 -->
<g id="edge9" class="edge"><title>Node6&#45;&gt;Node8</title>
<path fill="none" stroke="black" d="M34.4469,-215.697C34.4469,-207.983 34.4469,-198.712 34.4469,-190.112"/>
<polygon fill="black" stroke="black" points="37.947,-190.104 34.4469,-180.104 30.947,-190.104 37.947,-190.104"/>
</g>
<!-- Node7 -->
<g id="node8" class="node"><title>Node7</title>
<g id="a_node8"><a xlink:title="0x400af8 to 0x400b0b">
<ellipse fill="none" stroke="black" cx="152.447" cy="-18" rx="34.394" ry="18"/>
<text text-anchor="middle" x="152.447" y="-14.3" font-family="Times,serif" font-size="14.00">Node7</text>
</a>
</g>
</g>
<!-- Node5&#45;&gt;Node7 -->
<g id="edge8" class="edge"><title>Node5&#45;&gt;Node7</title>
<path fill="none" stroke="black" d="M176.1,-72.411C172.524,-64.3352 168.138,-54.4312 164.118,-45.3547"/>
<polygon fill="black" stroke="black" points="167.206,-43.6825 159.956,-35.9562 160.805,-46.517 167.206,-43.6825"/>
</g>
<!-- Node7&#45;&gt;Node2 -->
<g id="edge10" class="edge"><title>Node7&#45;&gt;Node2</title>
<path fill="none" stroke="black" d="M148.096,-36.0943C145.585,-46.4339 142.523,-59.9124 140.447,-72 132.436,-118.65 126.751,-173.488 123.793,-205.625"/>
<polygon fill="black" stroke="black" points="120.27,-205.721 122.861,-215.995 127.242,-206.348 120.27,-205.721"/>
</g>
<!-- Node7&#45;&gt;Node7 -->
<g id="edge11" class="edge"><title>Node7&#45;&gt;Node7</title>
<path fill="none" stroke="black" d="M176.996,-30.7082C191.406,-33.4157 204.894,-29.1797 204.894,-18 204.894,-9.52789 197.148,-5.04337 187.125,-4.54645"/>
<polygon fill="black" stroke="black" points="186.712,-1.06727 176.996,-5.29184 187.226,-8.04839 186.712,-1.06727"/>
</g>
<!-- Node8&#45;&gt;Node8 -->
<g id="edge12" class="edge"><title>Node8&#45;&gt;Node8</title>
<path fill="none" stroke="black" d="M58.9961,-174.708C73.406,-177.416 86.8939,-173.18 86.8939,-162 86.8939,-153.528 79.1481,-149.043 69.1251,-148.546"/>
<polygon fill="black" stroke="black" points="68.7123,-145.067 58.9961,-149.292 69.2261,-152.048 68.7123,-145.067"/>
</g>
</g>
</svg>
