<?xml version="1.0" encoding="UTF-8" standalone="no"?>
<!DOCTYPE svg PUBLIC "-//W3C//DTD SVG 1.1//EN"
 "http://www.w3.org/Graphics/SVG/1.1/DTD/svg11.dtd">
<!-- Generated by graphviz version 2.38.0 (20140413.2041)
 -->
<!-- Title: G Pages: 1 -->
<svg width="226pt" height="404pt"
 viewBox="0.00 0.00 225.89 404.00" xmlns="http://www.w3.org/2000/svg" xmlns:xlink="http://www.w3.org/1999/xlink">
<g id="graph0" class="graph" transform="scale(1 1) rotate(0) translate(4 400)">
<title>G</title>
<polygon fill="white" stroke="none" points="-4,4 -4,-400 221.894,-400 221.894,4 -4,4"/>
<!-- Node0 -->
<g id="node1" class="node"><title>Node0</title>
<g id="a_node1"><a xlink:title="0x400b30 to 0x400b54">
<ellipse fill="none" stroke="black" cx="65.4469" cy="-378" rx="34.394" ry="18"/>
<text text-anchor="middle" x="65.4469" y="-374.3" font-family="Times,serif" font-size="14.00">Node0</text>
</a>
</g>
</g>
<!-- Node1 -->
<g id="node2" class="node"><title>Node1</title>
<g id="a_node2"><a xlink:title="0x400bae to 0x400bdf">
<ellipse fill="none" stroke="black" cx="34.4469" cy="-162" rx="34.394" ry="18"/>
<text text-anchor="middle" x="34.4469" y="-158.3" font-family="Times,serif" font-size="14.00">Node1</text>
</a>
</g>
</g>
<!-- Node0&#45;&gt;Node1 -->
<g id="edge1" class="edge"><title>Node0&#45;&gt;Node1</title>
<path fill="none" stroke="black" d="M61.0961,-359.906C58.5847,-349.566 55.5227,-336.088 53.4469,-324 45.4361,-277.35 39.7509,-222.512 36.7928,-190.375"/>
<polygon fill="black" stroke="black" points="40.242,-189.652 35.8609,-180.005 33.2701,-190.279 40.242,-189.652"/>
</g>
<!-- Node2 -->
<g id="node3" class="node"><title>Node2</title>
<g id="a_node3"><a xlink:title="0x400b56 to 0x400b7a">
<ellipse fill="none" stroke="black" cx="96.4469" cy="-306" rx="34.394" ry="18"/>
<text text-anchor="middle" x="96.4469" y="-302.3" font-family="Times,serif" font-size="14.00">Node2</text>
</a>
</g>
</g>
<!-- Node0&#45;&gt;Node2 -->
<g id="edge2" class="edge"><title>Node0&#45;&gt;Node2</title>
<path fill="none" stroke="black" d="M72.7935,-360.411C76.3699,-352.335 80.756,-342.431 84.7756,-333.355"/>
<polygon fill="black" stroke="black" points="88.0887,-334.517 88.9378,-323.956 81.6882,-331.682 88.0887,-334.517"/>
</g>
<!-- Node3 -->
<g id="node4" class="node"><title>Node3</title>
<g id="a_node4"><a xlink:title="0x400ba4 to 0x400bac">
<ellipse fill="none" stroke="black" cx="96.4469" cy="-234" rx="34.394" ry="18"/>
<text text-anchor="middle" x="96.4469" y="-230.3" font-family="Times,serif" font-size="14.00">Node3</text>
</a>
</g>
</g>
<!-- Node2&#45;&gt;Node3 -->
<g id="edge3" class="edge"><title>Node2&#45;&gt;Node3</title>
<path fill="none" stroke="black" d="M96.4469,-287.697C96.4469,-279.983 96.4469,-270.712 96.4469,-262.112"/>
<polygon fill="black" stroke="black" points="99.947,-262.104 96.4469,-252.104 92.947,-262.104 99.947,-262.104"/>
</g>
<!-- Node7 -->
<g id="node5" class="node"><title>Node7</title>
<g id="a_node5"><a xlink:title="0x400b7c to 0x400b7c">
<ellipse fill="none" stroke="black" cx="183.447" cy="-234" rx="34.394" ry="18"/>
<text text-anchor="middle" x="183.447" y="-230.3" font-family="Times,serif" font-size="14.00">Node7</text>
</a>
</g>
</g>
<!-- Node2&#45;&gt;Node7 -->
<g id="edge4" class="edge"><title>Node2&#45;&gt;Node7</title>
<path fill="none" stroke="black" d="M114.473,-290.496C126.838,-280.547 143.443,-267.187 157.262,-256.068"/>
<polygon fill="black" stroke="black" points="159.846,-258.481 165.444,-249.485 155.458,-253.027 159.846,-258.481"/>
</g>
<!-- Node3&#45;&gt;Node1 -->
<g id="edge5" class="edge"><title>Node3&#45;&gt;Node1</title>
<path fill="none" stroke="black" d="M82.6871,-217.465C74.6925,-208.439 64.4549,-196.88 55.4693,-186.735"/>
<polygon fill="black" stroke="black" points="57.8486,-184.142 48.5981,-178.977 52.6085,-188.784 57.8486,-184.142"/>
</g>
<!-- Node4 -->
<g id="node6" class="node"><title>Node4</title>
<g id="a_node6"><a xlink:title="0x400b80 to 0x400ba2">
<ellipse fill="none" stroke="black" cx="121.447" cy="-162" rx="34.394" ry="18"/>
<text text-anchor="middle" x="121.447" y="-158.3" font-family="Times,serif" font-size="14.00">Node4</text>
</a>
</g>
</g>
<!-- Node3&#45;&gt;Node4 -->
<g id="edge6" class="edge"><title>Node3&#45;&gt;Node4</title>
<path fill="none" stroke="black" d="M96.711,-215.697C98.7953,-207.491 102.153,-197.523 105.826,-188.475"/>
<polygon fill="black" stroke="black" points="109.106,-189.71 109.89,-179.145 102.688,-186.915 109.106,-189.71"/>
</g>
<!-- Node5 -->
<g id="node7" class="node"><title>Node5</title>
<g id="a_node7"><a xlink:title="0x400be0 to 0x400be4">
<ellipse fill="none" stroke="black" cx="152.447" cy="-90" rx="34.394" ry="18"/>
<text text-anchor="middle" x="152.447" y="-86.3" font-family="Times,serif" font-size="14.00">Node5</text>
</a>
</g>
</g>
<!-- Node7&#45;&gt;Node5 -->
<g id="edge10" class="edge"><title>Node7&#45;&gt;Node5</title>
<path fill="none" stroke="black" d="M179.867,-215.925C176.093,-197.998 169.945,-168.998 164.447,-144 162.595,-135.578 160.535,-126.413 158.653,-118.11"/>
<polygon fill="black" stroke="black" points="162.023,-117.148 156.392,-108.174 155.198,-118.701 162.023,-117.148"/>
</g>
<!-- Node4&#45;&gt;Node3 -->
<g id="edge7" class="edge"><title>Node4&#45;&gt;Node3</title>
<path fill="none" stroke="black" d="M121.228,-180.124C119.157,-188.325 115.8,-198.317 112.12,-207.397"/>
<polygon fill="black" stroke="black" points="108.824,-206.198 108.046,-216.765 115.244,-208.99 108.824,-206.198"/>
</g>
<!-- Node4&#45;&gt;Node5 -->
<g id="edge8" class="edge"><title>Node4&#45;&gt;Node5</title>
<path fill="none" stroke="black" d="M128.794,-144.411C132.37,-136.335 136.756,-126.431 140.776,-117.355"/>
<polygon fill="black" stroke="black" points="144.089,-118.517 144.938,-107.956 137.688,-115.682 144.089,-118.517"/>
</g>
<!-- Node6 -->
<g id="node8" class="node"><title>Node6</title>
<g id="a_node8"><a xlink:title="0x400bc0 to 0x400bdf">
<ellipse fill="none" stroke="black" cx="152.447" cy="-18" rx="34.394" ry="18"/>
<text text-anchor="middle" x="152.447" y="-14.3" font-family="Times,serif" font-size="14.00">Node6</text>
</a>
</g>
</g>
<!-- Node5&#45;&gt;Node6 -->
<g id="edge9" class="edge"><title>Node5&#45;&gt;Node6</title>
<path fill="none" stroke="black" d="M152.447,-71.6966C152.447,-63.9827 152.447,-54.7125 152.447,-46.1124"/>
<polygon fill="black" stroke="black" points="155.947,-46.1043 152.447,-36.1043 148.947,-46.1044 155.947,-46.1043"/>
</g>
</g>
</svg>
