<?xml version="1.0" encoding="UTF-8" standalone="no"?>
<!DOCTYPE svg PUBLIC "-//W3C//DTD SVG 1.1//EN"
 "http://www.w3.org/Graphics/SVG/1.1/DTD/svg11.dtd">
<!-- Generated by graphviz version 2.38.0 (20140413.2041)
 -->
<!-- Title: G Pages: 1 -->
<svg width="262pt" height="404pt"
 viewBox="0.00 0.00 262.19 404.00" xmlns="http://www.w3.org/2000/svg" xmlns:xlink="http://www.w3.org/1999/xlink">
<g id="graph0" class="graph" transform="scale(1 1) rotate(0) translate(4 400)">
<title>G</title>
<polygon fill="white" stroke="none" points="-4,4 -4,-400 258.193,-400 258.193,4 -4,4"/>
<!-- Node0 -->
<g id="node1" class="node"><title>Node0</title>
<g id="a_node1"><a xlink:title="0x110 to 0x130">
<ellipse fill="none" stroke="black" cx="76.5963" cy="-378" rx="41.6928" ry="18"/>
<text text-anchor="middle" x="76.5963" y="-374.3" font-family="Times,serif" font-size="14.00">Node0</text>
</a>
</g>
</g>
<!-- Node1 -->
<g id="node2" class="node"><title>Node1</title>
<g id="a_node2"><a xlink:title="0x18e to 0x1bc">
<ellipse fill="none" stroke="black" cx="41.5963" cy="-162" rx="41.6928" ry="18"/>
<text text-anchor="middle" x="41.5963" y="-158.3" font-family="Times,serif" font-size="14.00">Node1</text>
</a>
</g>
</g>
<!-- Node0&#45;&gt;Node1 -->
<g id="edge1" class="edge"><title>Node0&#45;&gt;Node1</title>
<path fill="none" stroke="black" d="M70.6352,-360.011C67.2301,-349.709 63.1439,-336.233 60.5963,-324 50.9036,-277.459 45.7301,-222.246 43.3317,-190.064"/>
<polygon fill="black" stroke="black" points="46.8223,-189.806 42.6223,-180.079 39.8399,-190.302 46.8223,-189.806"/>
</g>
<!-- Node2 -->
<g id="node3" class="node"><title>Node2</title>
<g id="a_node3"><a xlink:title="0x132 to 0x159">
<ellipse fill="none" stroke="black" cx="111.596" cy="-306" rx="41.6928" ry="18"/>
<text text-anchor="middle" x="111.596" y="-302.3" font-family="Times,serif" font-size="14.00">Node2</text>
</a>
</g>
</g>
<!-- Node0&#45;&gt;Node2 -->
<g id="edge2" class="edge"><title>Node0&#45;&gt;Node2</title>
<path fill="none" stroke="black" d="M85.0688,-360.055C89.153,-351.887 94.1405,-341.912 98.6841,-332.824"/>
<polygon fill="black" stroke="black" points="101.86,-334.299 103.202,-323.789 95.5991,-331.168 101.86,-334.299"/>
</g>
<!-- Node3 -->
<g id="node4" class="node"><title>Node3</title>
<g id="a_node4"><a xlink:title="0x184 to 0x18c">
<ellipse fill="none" stroke="black" cx="111.596" cy="-234" rx="41.6928" ry="18"/>
<text text-anchor="middle" x="111.596" y="-230.3" font-family="Times,serif" font-size="14.00">Node3</text>
</a>
</g>
</g>
<!-- Node2&#45;&gt;Node3 -->
<g id="edge3" class="edge"><title>Node2&#45;&gt;Node3</title>
<path fill="none" stroke="black" d="M111.596,-287.697C111.596,-279.983 111.596,-270.712 111.596,-262.112"/>
<polygon fill="black" stroke="black" points="115.096,-262.104 111.596,-252.104 108.096,-262.104 115.096,-262.104"/>
</g>
<!-- Node7 -->
<g id="node5" class="node"><title>Node7</title>
<g id="a_node5"><a xlink:title="0x15b to 0x15b">
<ellipse fill="none" stroke="black" cx="212.596" cy="-234" rx="41.6928" ry="18"/>
<text text-anchor="middle" x="212.596" y="-230.3" font-family="Times,serif" font-size="14.00">Node7</text>
</a>
</g>
</g>
<!-- Node2&#45;&gt;Node7 -->
<g id="edge4" class="edge"><title>Node2&#45;&gt;Node7</title>
<path fill="none" stroke="black" d="M133.016,-290.155C147.575,-280.064 167.027,-266.583 183.055,-255.474"/>
<polygon fill="black" stroke="black" points="185.329,-258.157 191.554,-249.584 181.341,-252.403 185.329,-258.157"/>
</g>
<!-- Node3&#45;&gt;Node1 -->
<g id="edge5" class="edge"><title>Node3&#45;&gt;Node1</title>
<path fill="none" stroke="black" d="M95.7122,-217.116C86.4938,-207.897 74.7232,-196.127 64.5154,-185.919"/>
<polygon fill="black" stroke="black" points="66.9635,-183.417 57.4175,-178.821 62.0137,-188.367 66.9635,-183.417"/>
</g>
<!-- Node4 -->
<g id="node6" class="node"><title>Node4</title>
<g id="a_node6"><a xlink:title="0x160 to 0x182">
<ellipse fill="none" stroke="black" cx="142.596" cy="-162" rx="41.6928" ry="18"/>
<text text-anchor="middle" x="142.596" y="-158.3" font-family="Times,serif" font-size="14.00">Node4</text>
</a>
</g>
</g>
<!-- Node3&#45;&gt;Node4 -->
<g id="edge6" class="edge"><title>Node3&#45;&gt;Node4</title>
<path fill="none" stroke="black" d="M113.344,-215.697C116.161,-207.403 120.433,-197.311 124.934,-188.187"/>
<polygon fill="black" stroke="black" points="128.129,-189.629 129.656,-179.145 121.924,-186.388 128.129,-189.629"/>
</g>
<!-- Node5 -->
<g id="node7" class="node"><title>Node5</title>
<g id="a_node7"><a xlink:title="0x1c0 to 0x1c4">
<ellipse fill="none" stroke="black" cx="177.596" cy="-90" rx="41.6928" ry="18"/>
<text text-anchor="middle" x="177.596" y="-86.3" font-family="Times,serif" font-size="14.00">Node5</text>
</a>
</g>
</g>
<!-- Node7&#45;&gt;Node5 -->
<g id="edge10" class="edge"><title>Node7&#45;&gt;Node5</title>
<path fill="none" stroke="black" d="M209.371,-215.84C205.887,-197.844 199.972,-168.788 193.596,-144 191.383,-135.397 188.683,-126.098 186.135,-117.726"/>
<polygon fill="black" stroke="black" points="189.451,-116.6 183.147,-108.085 182.764,-118.672 189.451,-116.6"/>
</g>
<!-- Node4&#45;&gt;Node3 -->
<g id="edge7" class="edge"><title>Node4&#45;&gt;Node3</title>
<path fill="none" stroke="black" d="M140.91,-180.124C138.106,-188.413 133.832,-198.53 129.321,-207.687"/>
<polygon fill="black" stroke="black" points="126.108,-206.28 124.587,-216.765 132.314,-209.516 126.108,-206.28"/>
</g>
<!-- Node4&#45;&gt;Node5 -->
<g id="edge8" class="edge"><title>Node4&#45;&gt;Node5</title>
<path fill="none" stroke="black" d="M151.069,-144.055C155.153,-135.887 160.141,-125.912 164.684,-116.824"/>
<polygon fill="black" stroke="black" points="167.86,-118.299 169.202,-107.789 161.599,-115.168 167.86,-118.299"/>
</g>
<!-- Node6 -->
<g id="node8" class="node"><title>Node6</title>
<g id="a_node8"><a xlink:title="0x1a0 to 0x1bc">
<ellipse fill="none" stroke="black" cx="177.596" cy="-18" rx="41.6928" ry="18"/>
<text text-anchor="middle" x="177.596" y="-14.3" font-family="Times,serif" font-size="14.00">Node6</text>
</a>
</g>
</g>
<!-- Node5&#45;&gt;Node6 -->
<g id="edge9" class="edge"><title>Node5&#45;&gt;Node6</title>
<path fill="none" stroke="black" d="M177.596,-71.6966C177.596,-63.9827 177.596,-54.7125 177.596,-46.1124"/>
<polygon fill="black" stroke="black" points="181.096,-46.1043 177.596,-36.1043 174.096,-46.1044 181.096,-46.1043"/>
</g>
</g>
</svg>
